SplineFontDB: 3.2
FontName: establishThornFont
FullName: Thorn Font
FamilyName: Thorn Font
Weight: Book
Copyright: Copyright (c) 2021 SEOUL YOUTH MEDIA CENTER SSRO.NET. All rights reserved. Font designed by Baek Minju.
Version: 1.0.0; Build Release
ItalicAngle: 0
UnderlinePosition: -100
UnderlineWidth: 50
Ascent: 800
Descent: 200
InvalidEm: 0
sfntRevision: 0x00010000
LayerCount: 2
Layer: 0 1 "+tLe6dAAA" 1
Layer: 1 1 "+xV66dAAA" 0
XUID: [1021 137 -1431354394 24324]
StyleMap: 0x0040
FSType: 4
OS2Version: 3
OS2_WeightWidthSlopeOnly: 0
OS2_UseTypoMetrics: 0
CreationTime: 1635225208
ModificationTime: 1733052503
PfmFamily: 81
TTFWeight: 400
TTFWidth: 5
LineGap: 0
VLineGap: 0
Panose: 0 0 5 0 0 0 0 0 0 0
OS2TypoAscent: 800
OS2TypoAOffset: 0
OS2TypoDescent: -200
OS2TypoDOffset: 0
OS2TypoLinegap: 0
OS2WinAscent: 850
OS2WinAOffset: 0
OS2WinDescent: 250
OS2WinDOffset: 0
HheadAscent: 850
HheadAOffset: 0
HheadDescent: -250
HheadDOffset: 0
OS2SubXSize: 700
OS2SubYSize: 650
OS2SubXOff: 0
OS2SubYOff: 140
OS2SupXSize: 700
OS2SupYSize: 650
OS2SupXOff: 0
OS2SupYOff: 477
OS2StrikeYSize: 50
OS2StrikeYPos: 250
OS2CapHeight: 700
OS2XHeight: 500
OS2Vendor: 'SSRO'
OS2CodePages: 00080001.00000000
OS2UnicodeRanges: 80000003.01100000.00000010.00000000
Lookup: 258 0 0 "'kern' +rAC4XMTwrjAA +zuSy3QAA +yHDWjAAA 0" { "'kern' +rAC4XMTwrjAA +zuSy3QAA +yHDWjAAA 0 +1VjHBAAA +0UzHdL4U"  } ['kern' ('DFLT' <'dflt' > ) ]
DEI: 91125
ShortTable: maxp 16
  1
  0
  659
  210
  5
  0
  0
  1
  0
  0
  0
  0
  0
  0
  0
  0
EndShort
LangName: 1033 "" "" "Regular" "establishThornFont" "" "Version 1.0.0; Build Release" "" "Thorn Font is a registered trademark of SEOUL YOUTH MEDIA CENTER SSRO.NET." "SEOUL YOUTH MEDIA CENTER SSRO.NET" "Baek Minju;" "" "https://www.ssro.net/" "https://www.ssro.net/" "SEOUL YOUTH MEDIA CENTER SSRO.NET" "https://www.ssro.net/" "" "Thorn Font" "Regular"

StartChar: .notdef
Encoding: 65536 -1 0
Width: 1000
GlyphClass: 1
Flags: W
LayerCount: 2
Fore
SplineSet
100 -100 m 1,0,-1
 100 700 l 1,1,-1
 900 700 l 1,2,-1
 900 -100 l 1,3,-1
 100 -100 l 1,0,-1
150 -50 m 1,4,-1
 850 -50 l 1,5,-1
 850 650 l 1,6,-1
 150 650 l 1,7,-1
 150 -50 l 1,4,-1
EndSplineSet
EndChar

StartChar: exclam
Encoding: 33 33 6
Width: 179
GlyphClass: 2
Flags: W
LayerCount: 2
Fore
SplineSet
147 605 m 1,0,-1
 134 592 l 1,1,-1
 88 141 l 1,2,-1
 51 156 l 1,3,-1
 57 598 l 1,4,-1
 45 620 l 1,5,-1
 84 614 l 1,6,-1
 147 605 l 1,0,-1
28 70 m 1,7,-1
 50 115 l 1,8,-1
 79 113 l 1,9,-1
 96 60 l 1,10,-1
 28 70 l 1,7,-1
EndSplineSet
EndChar

StartChar: quotedbl
Encoding: 34 34 7
Width: 297
GlyphClass: 2
Flags: W
LayerCount: 2
Fore
SplineSet
147 636 m 1,0,-1
 128 585 l 1,1,-1
 35 471 l 1,2,-1
 57 614 l 1,3,-1
 49 657 l 1,4,-1
 86 676 l 1,5,-1
 92 681 l 1,6,-1
 147 636 l 1,0,-1
253 636 m 1,7,-1
 233 585 l 1,8,-1
 141 471 l 1,9,-1
 163 614 l 1,10,-1
 155 657 l 1,11,-1
 192 676 l 1,12,-1
 198 681 l 1,13,-1
 253 636 l 1,7,-1
EndSplineSet
EndChar

StartChar: numbersign
Encoding: 35 35 8
Width: 583
GlyphClass: 2
Flags: W
LayerCount: 2
Fore
SplineSet
200 712 m 1,0,-1
 278 712 l 1,1,-1
 254 542 l 1,2,-1
 369 542 l 1,3,-1
 393 712 l 1,4,-1
 471 712 l 1,5,-1
 447 542 l 1,6,-1
 561 542 l 1,7,-1
 551 478 l 1,8,-1
 438 478 l 1,9,-1
 409 268 l 1,10,-1
 521 268 l 1,11,-1
 513 204 l 1,12,-1
 400 204 l 1,13,-1
 367 -30 l 1,14,-1
 289 -30 l 1,15,-1
 322 204 l 1,16,-1
 207 204 l 1,17,-1
 174 -30 l 1,18,-1
 96 -30 l 1,19,-1
 129 204 l 1,20,-1
 23 204 l 1,21,-1
 31 268 l 1,22,-1
 138 268 l 1,23,-1
 167 478 l 1,24,-1
 61 478 l 1,25,-1
 71 542 l 1,26,-1
 176 542 l 1,27,-1
 200 712 l 1,0,-1
242 482 m 1,28,-1
 211 264 l 1,29,-1
 334 264 l 1,30,-1
 365 482 l 1,31,-1
 242 482 l 1,28,-1
EndSplineSet
EndChar

StartChar: dollar
Encoding: 36 36 9
Width: 583
GlyphClass: 2
Flags: W
LayerCount: 2
Fore
SplineSet
66 135 m 2,0,1
 66 146 66 146 77 138 c 0,2,3
 120 93 120 93 164.5 70.5 c 128,-1,4
 209 48 209 48 266 46 c 1,5,-1
 266 341 l 1,6,-1
 237 352 l 2,7,8
 200 368 200 368 169.5 385 c 128,-1,9
 139 402 139 402 117.5 424 c 128,-1,10
 96 446 96 446 84 475 c 128,-1,11
 72 504 72 504 72 543 c 0,12,13
 72 583 72 583 86.5 613.5 c 128,-1,14
 101 644 101 644 127 665.5 c 128,-1,15
 153 687 153 687 188 700 c 128,-1,16
 223 713 223 713 264 718 c 1,17,-1
 264 799 l 1,18,-1
 342 799 l 1,19,-1
 342 718 l 1,20,21
 382 714 382 714 422.5 702.5 c 128,-1,22
 463 691 463 691 495 668 c 1,23,-1
 495 598 l 2,24,25
 495 580 495 580 483 592 c 0,26,27
 449 616 449 616 415.5 631.5 c 128,-1,28
 382 647 382 647 340 652 c 1,29,-1
 340 389 l 1,30,-1
 351 385 l 1,31,32
 441 346 441 346 486.5 300 c 128,-1,33
 532 254 532 254 532 184 c 0,34,35
 532 94 532 94 480.5 45.5 c 128,-1,36
 429 -3 429 -3 342 -16 c 1,37,-1
 342 -128 l 1,38,-1
 264 -128 l 1,39,-1
 264 -21 l 1,40,41
 207 -21 207 -21 155.5 -6.5 c 128,-1,42
 104 8 104 8 66 41 c 1,43,-1
 66 135 l 2,0,1
277 415 m 1,44,-1
 277 652 l 1,45,46
 222 645 222 645 189.5 618 c 128,-1,47
 157 591 157 591 157 546 c 0,48,49
 157 522 157 522 166.5 502 c 128,-1,50
 176 482 176 482 192.5 465.5 c 128,-1,51
 209 449 209 449 230.5 436.5 c 128,-1,52
 252 424 252 424 276 415 c 1,53,-1
 277 415 l 1,44,-1
329 314 m 1,54,-1
 329 48 l 1,55,56
 443 70 443 70 443 179 c 0,57,58
 443 224 443 224 412 256 c 128,-1,59
 381 288 381 288 330 314 c 1,60,-1
 329 314 l 1,54,-1
EndSplineSet
EndChar

StartChar: percent
Encoding: 37 37 10
Width: 892
GlyphClass: 2
Flags: W
LayerCount: 2
Fore
SplineSet
606 734 m 1,0,-1
 691 734 l 1,1,-1
 272 -50 l 1,2,-1
 187 -50 l 1,3,-1
 606 734 l 1,0,-1
238 728 m 0,4,5
 278 728 278 728 308.5 711.5 c 128,-1,6
 339 695 339 695 359.5 667.5 c 128,-1,7
 380 640 380 640 390 604.5 c 128,-1,8
 400 569 400 569 400 530 c 256,9,10
 400 491 400 491 390 455.5 c 128,-1,11
 380 420 380 420 359.5 392.5 c 128,-1,12
 339 365 339 365 308.5 349 c 128,-1,13
 278 333 278 333 238 333 c 0,14,15
 197 333 197 333 167 349 c 128,-1,16
 137 365 137 365 116.5 392.5 c 128,-1,17
 96 420 96 420 86 455.5 c 128,-1,18
 76 491 76 491 76 530 c 256,19,20
 76 569 76 569 86 604.5 c 128,-1,21
 96 640 96 640 116.5 667.5 c 128,-1,22
 137 695 137 695 167 711.5 c 128,-1,23
 197 728 197 728 238 728 c 0,4,5
238 669 m 256,24,25
 213 669 213 669 196.5 656.5 c 128,-1,26
 180 644 180 644 170.5 624.5 c 128,-1,27
 161 605 161 605 157 579.5 c 128,-1,28
 153 554 153 554 153 529 c 256,29,30
 153 504 153 504 157 479.5 c 128,-1,31
 161 455 161 455 170.5 435.5 c 128,-1,32
 180 416 180 416 196.5 404 c 128,-1,33
 213 392 213 392 238 392 c 256,34,35
 263 392 263 392 279 404 c 128,-1,36
 295 416 295 416 305 435.5 c 128,-1,37
 315 455 315 455 319 479.5 c 128,-1,38
 323 504 323 504 323 529 c 256,39,40
 323 554 323 554 319 579.5 c 128,-1,41
 315 605 315 605 305 624.5 c 128,-1,42
 295 644 295 644 279 656.5 c 128,-1,43
 263 669 263 669 238 669 c 256,24,25
653 354 m 0,44,45
 693 354 693 354 723.5 337.5 c 128,-1,46
 754 321 754 321 774.5 293.5 c 128,-1,47
 795 266 795 266 805 230.5 c 128,-1,48
 815 195 815 195 815 156 c 256,49,50
 815 117 815 117 805 81.5 c 128,-1,51
 795 46 795 46 774.5 18.5 c 128,-1,52
 754 -9 754 -9 723.5 -25 c 128,-1,53
 693 -41 693 -41 653 -41 c 0,54,55
 612 -41 612 -41 582 -25 c 128,-1,56
 552 -9 552 -9 531.5 18.5 c 128,-1,57
 511 46 511 46 501 81.5 c 128,-1,58
 491 117 491 117 491 156 c 256,59,60
 491 195 491 195 501 230.5 c 128,-1,61
 511 266 511 266 531.5 293.5 c 128,-1,62
 552 321 552 321 582 337.5 c 128,-1,63
 612 354 612 354 653 354 c 0,44,45
653 295 m 256,64,65
 628 295 628 295 611.5 282.5 c 128,-1,66
 595 270 595 270 585.5 250.5 c 128,-1,67
 576 231 576 231 572 205.5 c 128,-1,68
 568 180 568 180 568 155 c 256,69,70
 568 130 568 130 572 105.5 c 128,-1,71
 576 81 576 81 585.5 61.5 c 128,-1,72
 595 42 595 42 611.5 30 c 128,-1,73
 628 18 628 18 653 18 c 256,74,75
 678 18 678 18 694 30 c 128,-1,76
 710 42 710 42 720 61.5 c 128,-1,77
 730 81 730 81 734 105.5 c 128,-1,78
 738 130 738 130 738 155 c 256,79,80
 738 180 738 180 734 205.5 c 128,-1,81
 730 231 730 231 720 250.5 c 128,-1,82
 710 270 710 270 694 282.5 c 128,-1,83
 678 295 678 295 653 295 c 256,64,65
EndSplineSet
EndChar

StartChar: ampersand
Encoding: 38 38 11
Width: 892
GlyphClass: 2
Flags: W
LayerCount: 2
Fore
SplineSet
364 449 m 1,0,1
 387 465 387 465 406 480.5 c 128,-1,2
 425 496 425 496 438.5 513 c 128,-1,3
 452 530 452 530 459.5 549.5 c 128,-1,4
 467 569 467 569 467 594 c 0,5,6
 467 626 467 626 446 648 c 128,-1,7
 425 670 425 670 377 670 c 0,8,9
 341 670 341 670 318 647 c 128,-1,10
 295 624 295 624 295 587 c 0,11,12
 295 567 295 567 299 550 c 128,-1,13
 303 533 303 533 311.5 517.5 c 128,-1,14
 320 502 320 502 332.5 485.5 c 128,-1,15
 345 469 345 469 362 449 c 1,16,-1
 364 449 l 1,0,1
615 365 m 0,17,18
 609 377 609 377 622 377 c 2,19,-1
 702 377 l 1,20,21
 713 302 713 302 703 239 c 128,-1,22
 693 176 693 176 665 122 c 1,23,-1
 665 120 l 1,24,-1
 810 -34 l 1,25,-1
 699 -34 l 1,26,-1
 620 54 l 1,27,-1
 618 54 l 1,28,29
 576 3 576 3 519 -25.5 c 128,-1,30
 462 -54 462 -54 389 -54 c 0,31,32
 360 -54 360 -54 335 -52 c 128,-1,33
 310 -50 310 -50 288 -44.5 c 128,-1,34
 266 -39 266 -39 245.5 -30 c 128,-1,35
 225 -21 225 -21 204 -6 c 0,36,37
 168 21 168 21 147.5 61.5 c 128,-1,38
 127 102 127 102 127 159 c 0,39,40
 127 195 127 195 140.5 227.5 c 128,-1,41
 154 260 154 260 178 290.5 c 128,-1,42
 202 321 202 321 233.5 349.5 c 128,-1,43
 265 378 265 378 301 406 c 1,44,-1
 301 410 l 1,45,46
 283 431 283 431 267.5 450.5 c 128,-1,47
 252 470 252 470 240 490.5 c 128,-1,48
 228 511 228 511 221.5 533 c 128,-1,49
 215 555 215 555 215 582 c 0,50,51
 215 614 215 614 225.5 642 c 128,-1,52
 236 670 236 670 256.5 690.5 c 128,-1,53
 277 711 277 711 307 723 c 128,-1,54
 337 735 337 735 377 735 c 0,55,56
 462 735 462 735 506 697.5 c 128,-1,57
 550 660 550 660 550 599 c 0,58,59
 550 565 550 565 538.5 536.5 c 128,-1,60
 527 508 527 508 508 483.5 c 128,-1,61
 489 459 489 459 465 438 c 128,-1,62
 441 417 441 417 417 398 c 1,63,-1
 417 396 l 1,64,-1
 604 187 l 1,65,-1
 606 187 l 1,66,67
 627 229 627 229 627 276 c 128,-1,68
 627 323 627 323 615 365 c 0,17,18
353 352 m 1,69,70
 322 328 322 328 297 306.5 c 128,-1,71
 272 285 272 285 254.5 262.5 c 128,-1,72
 237 240 237 240 227.5 215 c 128,-1,73
 218 190 218 190 218 159 c 0,74,75
 218 124 218 124 232 98 c 128,-1,76
 246 72 246 72 268.5 54.5 c 128,-1,77
 291 37 291 37 320 28 c 128,-1,78
 349 19 349 19 379 19 c 0,79,80
 439 19 439 19 485.5 44 c 128,-1,81
 532 69 532 69 564 114 c 1,82,-1
 564 116 l 1,83,-1
 355 352 l 1,84,-1
 353 352 l 1,69,70
EndSplineSet
EndChar

StartChar: quotesingle
Encoding: 39 39 12
Width: 143
GlyphClass: 2
Flags: W
LayerCount: 2
Fore
SplineSet
128 624 m 1,0,-1
 109 573 l 1,1,-1
 16 459 l 1,2,-1
 38 602 l 1,3,-1
 30 645 l 1,4,-1
 67 664 l 1,5,-1
 73 669 l 1,6,-1
 128 624 l 1,0,-1
EndSplineSet
EndChar

StartChar: parenleft
Encoding: 40 40 13
Width: 446
GlyphClass: 2
Flags: W
LayerCount: 2
Fore
SplineSet
152 317 m 256,0,1
 152 381 152 381 167 445.5 c 128,-1,2
 182 510 182 510 208.5 570.5 c 128,-1,3
 235 631 235 631 271 685.5 c 128,-1,4
 307 740 307 740 349 784 c 1,5,-1
 415 784 l 1,6,7
 330 666 330 666 287.5 547.5 c 128,-1,8
 245 429 245 429 245 317 c 256,9,10
 245 205 245 205 287.5 86.5 c 128,-1,11
 330 -32 330 -32 415 -150 c 1,12,-1
 349 -150 l 1,13,14
 307 -106 307 -106 271 -51.5 c 128,-1,15
 235 3 235 3 208.5 63.5 c 128,-1,16
 182 124 182 124 167 188.5 c 128,-1,17
 152 253 152 253 152 317 c 256,0,1
EndSplineSet
EndChar

StartChar: parenright
Encoding: 41 41 14
Width: 446
GlyphClass: 2
Flags: W
LayerCount: 2
Fore
SplineSet
303 317 m 256,0,1
 303 253 303 253 288 188.5 c 128,-1,2
 273 124 273 124 246.5 63.5 c 128,-1,3
 220 3 220 3 184 -51.5 c 128,-1,4
 148 -106 148 -106 106 -150 c 1,5,-1
 40 -150 l 1,6,7
 125 -32 125 -32 167.5 86.5 c 128,-1,8
 210 205 210 205 210 317 c 256,9,10
 210 429 210 429 167.5 547.5 c 128,-1,11
 125 666 125 666 40 784 c 1,12,-1
 106 784 l 1,13,14
 148 740 148 740 184 685.5 c 128,-1,15
 220 631 220 631 246.5 570.5 c 128,-1,16
 273 510 273 510 288 445.5 c 128,-1,17
 303 381 303 381 303 317 c 256,0,1
EndSplineSet
EndChar

StartChar: asterisk
Encoding: 42 42 15
Width: 310
GlyphClass: 2
Flags: W
LayerCount: 2
Fore
SplineSet
185 479 m 1,0,-1
 258 400 l 1,1,-1
 220 372 l 1,2,-1
 165 465 l 1,3,-1
 109 368 l 1,4,-1
 70 396 l 1,5,-1
 142 479 l 1,6,-1
 28 501 l 1,7,-1
 42 546 l 1,8,-1
 148 501 l 1,9,-1
 135 612 l 1,10,-1
 182 612 l 1,11,-1
 172 501 l 1,12,-1
 273 548 l 1,13,-1
 287 503 l 1,14,-1
 185 479 l 1,0,-1
EndSplineSet
EndChar

StartChar: plus
Encoding: 43 43 16
Width: 541
GlyphClass: 2
Flags: W
LayerCount: 2
Fore
SplineSet
523 322 m 1,0,-1
 305 322 l 1,1,-1
 305 104 l 1,2,-1
 246 104 l 1,3,-1
 246 322 l 1,4,-1
 28 322 l 1,5,-1
 28 381 l 1,6,-1
 246 381 l 1,7,-1
 246 599 l 1,8,-1
 305 599 l 1,9,-1
 305 381 l 1,10,-1
 523 381 l 1,11,-1
 523 322 l 1,0,-1
EndSplineSet
EndChar

StartChar: comma
Encoding: 44 44 17
Width: 179
GlyphClass: 2
Flags: W
LayerCount: 2
Fore
SplineSet
164 87 m 1,0,-1
 139 19 l 1,1,-1
 15 -133 l 1,2,-1
 45 58 l 1,3,-1
 33 115 l 1,4,-1
 83 141 l 1,5,-1
 91 147 l 1,6,-1
 164 87 l 1,0,-1
EndSplineSet
EndChar

StartChar: hyphen
Encoding: 45 45 18
Width: 507
GlyphClass: 2
Flags: W
LayerCount: 2
Fore
SplineSet
477 302 m 1,0,-1
 31 302 l 1,1,-1
 31 390 l 1,2,-1
 477 390 l 1,3,-1
 477 302 l 1,0,-1
EndSplineSet
EndChar

StartChar: period
Encoding: 46 46 19
Width: 147
GlyphClass: 2
Flags: WO
HStem: 105 0
VStem: 2.58017e+08 2.53985e+08
LayerCount: 2
Fore
SplineSet
140 60 m 1,0,-1
 83.4951171875 3.0146484375 l 1,1,-1
 3.0859375 33.4072265625 l 1,2,-1
 11.779296875 109.387695312 l 1,3,-1
 96.53515625 124.58203125 l 1,4,-1
 140 60 l 1,0,-1
EndSplineSet
EndChar

StartChar: slash
Encoding: 47 47 20
Width: 399
GlyphClass: 2
Flags: W
LayerCount: 2
Fore
SplineSet
88 4 m 1,0,-1
 35 4 l 1,1,-1
 304 704 l 1,2,-1
 366 704 l 1,3,-1
 88 4 l 1,0,-1
EndSplineSet
EndChar

StartChar: zero
Encoding: 48 48 21
Width: 583
GlyphClass: 2
Flags: W
LayerCount: 2
Fore
SplineSet
358 656 m 1,0,1
 386 653 386 653 421.5 637.5 c 128,-1,2
 457 622 457 622 489 582.5 c 128,-1,3
 521 543 521 543 543 474 c 128,-1,4
 565 405 565 405 565 294 c 0,5,6
 565 226 565 226 553.5 175 c 128,-1,7
 542 124 542 124 523.5 87 c 128,-1,8
 505 50 505 50 481.5 25.5 c 128,-1,9
 458 1 458 1 433 -14 c 0,10,11
 375 -49 375 -49 302 -49 c 0,12,13
 228 -49 228 -49 171 -14 c 0,14,15
 147 1 147 1 123.5 25.5 c 128,-1,16
 100 50 100 50 81.5 87 c 128,-1,17
 63 124 63 124 52 175 c 128,-1,18
 41 226 41 226 41 294 c 0,19,20
 41 380 41 380 59 440.5 c 128,-1,21
 77 501 77 501 104 541 c 128,-1,22
 131 581 131 581 163.5 604 c 128,-1,23
 196 627 196 627 225.5 638.5 c 128,-1,24
 255 650 255 650 277 653 c 128,-1,25
 299 656 299 656 306 656 c 1,26,-1
 239 729 l 1,27,-1
 339 697 l 1,28,-1
 358 656 l 1,0,1
241 43 m 0,29,30
 251 39 251 39 272 38 c 128,-1,31
 293 37 293 37 318.5 44 c 128,-1,32
 344 51 344 51 371 67 c 128,-1,33
 398 83 398 83 420.5 112.5 c 128,-1,34
 443 142 443 142 457.5 186 c 128,-1,35
 472 230 472 230 472 294 c 0,36,37
 472 386 472 386 458 442 c 128,-1,38
 444 498 444 498 426 528.5 c 128,-1,39
 408 559 408 559 391.5 569.5 c 128,-1,40
 375 580 375 580 370 582 c 0,41,42
 313 582 313 582 270.5 569 c 128,-1,43
 228 556 228 556 200 524 c 128,-1,44
 172 492 172 492 158 437.5 c 128,-1,45
 144 383 144 383 144 300 c 0,46,47
 144 216 144 216 154.5 167.5 c 128,-1,48
 165 119 165 119 180.5 93.5 c 128,-1,49
 196 68 196 68 212.5 58.5 c 128,-1,50
 229 49 229 49 241 43 c 0,29,30
EndSplineSet
EndChar

StartChar: one
Encoding: 49 49 22
Width: 323
GlyphClass: 2
Flags: W
LayerCount: 2
Fore
SplineSet
142 -20 m 1,0,-1
 142 644 l 1,1,-1
 27 621 l 1,2,-1
 242 748 l 1,3,-1
 242 10 l 1,4,-1
 299 -52 l 1,5,-1
 83 -52 l 1,6,-1
 142 -20 l 1,0,-1
EndSplineSet
EndChar

StartChar: two
Encoding: 50 50 23
Width: 583
GlyphClass: 2
Flags: W
LayerCount: 2
Fore
SplineSet
566 -43 m 1,0,-1
 25 -43 l 1,1,-1
 25 -10 l 1,2,-1
 328 315 l 1,3,4
 357 354 357 354 372 397 c 0,5,6
 385 433 385 433 384 478.5 c 128,-1,7
 383 524 383 524 352 568 c 0,8,9
 343 580 343 580 320 587 c 128,-1,10
 297 594 297 594 269 594 c 128,-1,11
 241 594 241 594 214 585 c 128,-1,12
 187 576 187 576 170 555 c 0,13,14
 165 548 165 548 160 539 c 0,15,16
 155 531 155 531 150 522 c 128,-1,17
 145 513 145 513 141 502 c 1,18,-1
 170 469 l 1,19,-1
 25 469 l 1,20,-1
 45 532 l 2,21,22
 52 548 52 548 60.5 568 c 128,-1,23
 69 588 69 588 83 608 c 128,-1,24
 97 628 97 628 119.5 647.5 c 128,-1,25
 142 667 142 667 179 683 c 0,26,27
 189 686 189 686 219 693.5 c 128,-1,28
 249 701 249 701 289.5 699.5 c 128,-1,29
 330 698 330 698 375 680.5 c 128,-1,30
 420 663 420 663 459 615 c 0,31,32
 472 593 472 593 482.5 561.5 c 128,-1,33
 493 530 493 530 494 490 c 128,-1,34
 495 450 495 450 483 402.5 c 128,-1,35
 471 355 471 355 440 302 c 0,36,37
 437 297 437 297 433 293 c 0,38,39
 430 289 430 289 427 285.5 c 128,-1,40
 424 282 424 282 422 280 c 0,41,42
 414 272 414 272 401.5 258 c 128,-1,43
 389 244 389 244 373.5 226.5 c 128,-1,44
 358 209 358 209 340.5 189 c 128,-1,45
 323 169 323 169 306 149 c 0,46,47
 266 102 266 102 220 49 c 1,48,-1
 491 49 l 1,49,-1
 566 -43 l 1,0,-1
EndSplineSet
EndChar

StartChar: three
Encoding: 51 51 24
Width: 551
GlyphClass: 2
Flags: W
LayerCount: 2
Fore
SplineSet
397 398 m 1,0,1
 428 387 428 387 458.5 353.5 c 128,-1,2
 489 320 489 320 507.5 276 c 128,-1,3
 526 232 526 232 526.5 183 c 128,-1,4
 527 134 527 134 498 92 c 128,-1,5
 469 50 469 50 404 20.5 c 128,-1,6
 339 -9 339 -9 227 -14 c 1,7,-1
 108 -12 l 1,8,-1
 89 -43 l 1,9,-1
 89 147 l 1,10,-1
 108 109 l 1,11,-1
 177 105 l 2,12,13
 209 103 209 103 241 106 c 0,14,15
 268 108 268 108 297.5 114.5 c 128,-1,16
 327 121 327 121 350 135 c 0,17,18
 375 150 375 150 388 182.5 c 128,-1,19
 401 215 401 215 396 249.5 c 128,-1,20
 391 284 391 284 365.5 313 c 128,-1,21
 340 342 340 342 289 350 c 1,22,-1
 137 357 l 1,23,-1
 133 433 l 1,24,25
 183 437 183 437 215 443.5 c 128,-1,26
 247 450 247 450 266 457 c 0,27,28
 288 465 288 465 299 473 c 0,29,30
 322 486 322 486 334 513 c 128,-1,31
 346 540 346 540 340.5 568 c 128,-1,32
 335 596 335 596 310.5 619.5 c 128,-1,33
 286 643 286 643 235 651 c 1,34,-1
 108 659 l 1,35,-1
 103 660 l 1,36,-1
 30 607 l 1,37,-1
 103 741 l 1,38,39
 135 742 135 742 172 742 c 0,40,41
 204 742 204 742 244 742 c 128,-1,42
 284 742 284 742 328 741 c 0,43,44
 360 740 360 740 389 722 c 128,-1,45
 418 704 418 704 439 674.5 c 128,-1,46
 460 645 460 645 471 608.5 c 128,-1,47
 482 572 482 572 479 534.5 c 128,-1,48
 476 497 476 497 456.5 461 c 128,-1,49
 437 425 437 425 397 398 c 1,0,1
EndSplineSet
EndChar

StartChar: four
Encoding: 52 52 25
Width: 583
GlyphClass: 2
Flags: W
LayerCount: 2
Fore
SplineSet
452 517 m 2,0,1
 452 476 452 476 452.5 436.5 c 128,-1,2
 453 397 453 397 453 366.5 c 128,-1,3
 453 336 453 336 453 316.5 c 128,-1,4
 453 297 453 297 453 297 c 1,5,-1
 512 298 l 1,6,-1
 536 298 l 1,7,-1
 567 220 l 1,8,-1
 453 220 l 1,9,-1
 453 8 l 1,10,-1
 491 -34 l 1,11,-1
 352 -34 l 1,12,-1
 393 -12 l 1,13,-1
 393 220 l 1,14,-1
 30 220 l 1,15,-1
 30 240 l 1,16,-1
 412 735 l 1,17,-1
 450 735 l 1,18,-1
 452 517 l 2,0,1
393 297 m 1,19,-1
 393 602 l 1,20,-1
 168 297 l 1,21,-1
 393 297 l 1,19,-1
EndSplineSet
EndChar

StartChar: five
Encoding: 53 53 26
Width: 600
GlyphClass: 2
Flags: W
LayerCount: 2
Fore
SplineSet
364 488 m 0,0,1
 382 479 382 479 404 470 c 128,-1,2
 426 461 426 461 448.5 445 c 128,-1,3
 471 429 471 429 492.5 403.5 c 128,-1,4
 514 378 514 378 532 337 c 0,5,6
 534 330 534 330 539 310.5 c 128,-1,7
 544 291 544 291 547 264.5 c 128,-1,8
 550 238 550 238 549 207 c 128,-1,9
 548 176 548 176 539 144.5 c 128,-1,10
 530 113 530 113 510 84 c 128,-1,11
 490 55 490 55 455 34 c 0,12,13
 442 24 442 24 408 11.5 c 128,-1,14
 374 -1 374 -1 327 -4.5 c 128,-1,15
 280 -8 280 -8 223 1.5 c 128,-1,16
 166 11 166 11 107 46 c 0,17,18
 97 54 97 54 85.5 67 c 128,-1,19
 74 80 74 80 63 94 c 0,20,21
 51 110 51 110 37 128 c 1,22,-1
 142 214 l 1,23,-1
 122 171 l 1,24,25
 166 138 166 138 214 122 c 0,26,27
 234 115 234 115 257 111 c 128,-1,28
 280 107 280 107 304.5 108.5 c 128,-1,29
 329 110 329 110 354 118.5 c 128,-1,30
 379 127 379 127 404 145 c 0,31,32
 417 155 417 155 425.5 181 c 128,-1,33
 434 207 434 207 434 237.5 c 128,-1,34
 434 268 434 268 424 298.5 c 128,-1,35
 414 329 414 329 390 347 c 0,36,37
 384 351 384 351 359.5 363 c 128,-1,38
 335 375 335 375 294.5 386.5 c 128,-1,39
 254 398 254 398 199 405 c 128,-1,40
 144 412 144 412 76 408 c 1,41,42
 77 415 77 415 80 433.5 c 128,-1,43
 83 452 83 452 86.5 476.5 c 128,-1,44
 90 501 90 501 94 530.5 c 128,-1,45
 98 560 98 560 102 589 c 0,46,47
 111 658 111 658 122 739 c 1,48,-1
 561 747 l 1,49,-1
 506 637 l 1,50,-1
 212 637 l 1,51,-1
 195 511 l 1,52,53
 229 511 229 511 261 508 c 0,54,55
 288 506 288 506 316.5 501 c 128,-1,56
 345 496 345 496 364 488 c 0,0,1
EndSplineSet
EndChar

StartChar: six
Encoding: 54 54 27
Width: 465
GlyphClass: 2
Flags: W
LayerCount: 2
Fore
SplineSet
253 369 m 0,0,1
 298 370 298 370 334 349 c 0,2,3
 349 340 349 340 363.5 325.5 c 128,-1,4
 378 311 378 311 389.5 289 c 128,-1,5
 401 267 401 267 408 237 c 128,-1,6
 415 207 415 207 415 167 c 0,7,8
 415 126 415 126 407.5 95 c 128,-1,9
 400 64 400 64 387.5 41.5 c 128,-1,10
 375 19 375 19 359 3.5 c 128,-1,11
 343 -12 343 -12 327 -22 c 0,12,13
 288 -46 288 -46 239 -49 c 0,14,15
 199 -51 199 -51 171 -34.5 c 128,-1,16
 143 -18 143 -18 123.5 10.5 c 128,-1,17
 104 39 104 39 92.5 76 c 128,-1,18
 81 113 81 113 75 152 c 0,19,20
 61 243 61 243 70 360 c 1,21,22
 67 436 67 436 75 491 c 128,-1,23
 83 546 83 546 98 585 c 128,-1,24
 113 624 113 624 133.5 648.5 c 128,-1,25
 154 673 154 673 176 687 c 0,26,27
 227 720 227 720 294 712 c 1,28,-1
 289 684 l 1,29,-1
 287 662 l 1,30,-1
 274 682 l 1,31,32
 245 677 245 677 224.5 660 c 128,-1,33
 204 643 204 643 189.5 619.5 c 128,-1,34
 175 596 175 596 166 567.5 c 128,-1,35
 157 539 157 539 152 510 c 0,36,37
 141 442 141 442 145 360 c 1,38,-1
 145 329 l 1,39,40
 162 346 162 346 181.5 354.5 c 128,-1,41
 201 363 201 363 217 366 c 0,42,43
 235 370 235 370 253 369 c 0,0,1
208 -3 m 0,44,45
 244 -3 244 -3 271 4.5 c 128,-1,46
 298 12 298 12 316 31 c 128,-1,47
 334 50 334 50 343 82 c 128,-1,48
 352 114 352 114 352 164 c 0,49,50
 352 213 352 213 339.5 242 c 128,-1,51
 327 271 327 271 310.5 285.5 c 128,-1,52
 294 300 294 300 277 303.5 c 128,-1,53
 260 307 260 307 251 306 c 256,54,55
 242 305 242 305 224.5 304 c 128,-1,56
 207 303 207 303 189.5 291.5 c 128,-1,57
 172 280 172 280 159.5 251.5 c 128,-1,58
 147 223 147 223 147 167 c 0,59,60
 147 116 147 116 154.5 84 c 128,-1,61
 162 52 162 52 172 33.5 c 128,-1,62
 182 15 182 15 192.5 7 c 128,-1,63
 203 -1 203 -1 208 -3 c 0,44,45
EndSplineSet
EndChar

StartChar: seven
Encoding: 55 55 28
Width: 517
GlyphClass: 2
Flags: W
LayerCount: 2
Fore
SplineSet
481 713 m 1,0,-1
 292 -40 l 1,1,-1
 208 -40 l 1,2,-1
 365 610 l 1,3,-1
 76 614 l 1,4,-1
 39 588 l 1,5,-1
 104 713 l 1,6,-1
 481 713 l 1,0,-1
EndSplineSet
EndChar

StartChar: eight
Encoding: 56 56 29
Width: 600
GlyphClass: 2
Flags: W
LayerCount: 2
Fore
SplineSet
430 380 m 1,0,1
 455 372 455 372 480 357 c 128,-1,2
 505 342 505 342 524.5 318.5 c 128,-1,3
 544 295 544 295 556 260.5 c 128,-1,4
 568 226 568 226 568 179 c 0,5,6
 568 138 568 138 556.5 108 c 128,-1,7
 545 78 545 78 526 56.5 c 128,-1,8
 507 35 507 35 482.5 20.5 c 128,-1,9
 458 6 458 6 433 -3 c 0,10,11
 373 -24 373 -24 298 -24 c 0,12,13
 222 -25 222 -25 163 -4 c 0,14,15
 138 5 138 5 114 19.5 c 128,-1,16
 90 34 90 34 71 56 c 128,-1,17
 52 78 52 78 40.5 108 c 128,-1,18
 29 138 29 138 29 179 c 256,19,20
 29 220 29 220 42 251 c 128,-1,21
 55 282 55 282 76.5 305 c 128,-1,22
 98 328 98 328 125 343.5 c 128,-1,23
 152 359 152 359 181 369 c 1,24,25
 158 376 158 376 136.5 388.5 c 128,-1,26
 115 401 115 401 98.5 420 c 128,-1,27
 82 439 82 439 71.5 465.5 c 128,-1,28
 61 492 61 492 61 528 c 0,29,30
 61 585 61 585 89 620 c 128,-1,31
 117 655 117 655 155.5 675 c 128,-1,32
 194 695 194 695 234 702.5 c 128,-1,33
 274 710 274 710 298 712 c 1,34,-1
 297 712 l 1,35,36
 360 716 360 716 410 698 c 0,37,38
 431 690 431 690 451.5 677.5 c 128,-1,39
 472 665 472 665 488 644.5 c 128,-1,40
 504 624 504 624 514 595.5 c 128,-1,41
 524 567 524 567 524 528 c 0,42,43
 524 498 524 498 516.5 474.5 c 128,-1,44
 509 451 509 451 496 433 c 128,-1,45
 483 415 483 415 466 402 c 128,-1,46
 449 389 449 389 430 380 c 1,0,1
354 674 m 0,47,48
 303 674 303 674 265.5 667.5 c 128,-1,49
 228 661 228 661 202.5 644.5 c 128,-1,50
 177 628 177 628 164.5 600.5 c 128,-1,51
 152 573 152 573 152 530 c 0,52,53
 152 488 152 488 169.5 463 c 128,-1,54
 187 438 187 438 210 425.5 c 128,-1,55
 233 413 233 413 257 410 c 128,-1,56
 281 407 281 407 293 408 c 0,57,58
 307 409 307 409 332 409.5 c 128,-1,59
 357 410 357 410 381 420 c 128,-1,60
 405 430 405 430 423 454.5 c 128,-1,61
 441 479 441 479 441 528 c 0,62,63
 441 572 441 572 430 600 c 128,-1,64
 419 628 419 628 404 644 c 128,-1,65
 389 660 389 660 374.5 666 c 128,-1,66
 360 672 360 672 354 674 c 0,47,48
300 40 m 0,67,68
 316 41 316 41 344.5 41.5 c 128,-1,69
 373 42 373 42 401.5 53.5 c 128,-1,70
 430 65 430 65 451 93.5 c 128,-1,71
 472 122 472 122 472 179 c 0,72,73
 472 231 472 231 459 263.5 c 128,-1,74
 446 296 446 296 429 314.5 c 128,-1,75
 412 333 412 333 395 340.5 c 128,-1,76
 378 348 378 348 370 350 c 0,77,78
 311 350 311 350 267 342.5 c 128,-1,79
 223 335 223 335 193.5 316 c 128,-1,80
 164 297 164 297 149.5 264.5 c 128,-1,81
 135 232 135 232 135 183 c 0,82,83
 135 133 135 133 155.5 104 c 128,-1,84
 176 75 176 75 203 60.5 c 128,-1,85
 230 46 230 46 257.5 42.5 c 128,-1,86
 285 39 285 39 300 40 c 0,67,68
EndSplineSet
EndChar

StartChar: nine
Encoding: 57 57 30
Width: 404
GlyphClass: 2
Flags: W
LayerCount: 2
Fore
SplineSet
371 346 m 0,0,1
 374 271 374 271 366.5 216 c 128,-1,2
 359 161 359 161 344.5 123 c 128,-1,3
 330 85 330 85 311 60.5 c 128,-1,4
 292 36 292 36 271 23 c 0,5,6
 223 -10 223 -10 159 0 c 1,7,-1
 163 28 l 1,8,-1
 168 46 l 1,9,-1
 183 31 l 1,10,11
 210 37 210 37 229.5 54 c 128,-1,12
 249 71 249 71 263 94 c 128,-1,13
 277 117 277 117 285.5 145 c 128,-1,14
 294 173 294 173 299 201 c 0,15,16
 310 267 310 267 307 348 c 2,17,-1
 307 379 l 1,18,19
 289 362 289 362 270.5 353.5 c 128,-1,20
 252 345 252 345 236 342 c 0,21,22
 218 338 218 338 200 339 c 0,23,24
 154 338 154 338 119 359 c 0,25,26
 104 368 104 368 89 382 c 128,-1,27
 74 396 74 396 63 418 c 128,-1,28
 52 440 52 440 45 470 c 128,-1,29
 38 500 38 500 38 540 c 256,30,31
 38 580 38 580 45.5 610.5 c 128,-1,32
 53 641 53 641 65.5 663.5 c 128,-1,33
 78 686 78 686 93.5 701.5 c 128,-1,34
 109 717 109 717 126 727 c 0,35,36
 165 750 165 750 214 753 c 0,37,38
 227 753 227 753 252.5 748.5 c 128,-1,39
 278 744 278 744 304 721 c 0,40,41
 311 712 311 712 318 703 c 0,42,43
 324 695 324 695 330 685.5 c 128,-1,44
 336 676 336 676 341 667 c 0,45,46
 348 636 348 636 354 590 c 0,47,48
 359 551 359 551 364 490.5 c 128,-1,49
 369 430 369 430 371 346 c 0,0,1
201 402 m 256,50,51
 210 403 210 403 227.5 403.5 c 128,-1,52
 245 404 245 404 262.5 415.5 c 128,-1,53
 280 427 280 427 292.5 455.5 c 128,-1,54
 305 484 305 484 305 540 c 0,55,56
 305 590 305 590 297.5 621.5 c 128,-1,57
 290 653 290 653 280 671.5 c 128,-1,58
 270 690 270 690 259.5 697.5 c 128,-1,59
 249 705 249 705 244 707 c 0,60,61
 209 707 209 707 182.5 699.5 c 128,-1,62
 156 692 156 692 138 673.5 c 128,-1,63
 120 655 120 655 111 623.5 c 128,-1,64
 102 592 102 592 102 543 c 256,65,66
 102 494 102 494 114 465.5 c 128,-1,67
 126 437 126 437 142.5 422.5 c 128,-1,68
 159 408 159 408 175.5 404.5 c 128,-1,69
 192 401 192 401 201 402 c 256,50,51
EndSplineSet
EndChar

StartChar: colon
Encoding: 58 58 31
Width: 258
GlyphClass: 2
Flags: W
LayerCount: 2
Fore
SplineSet
243 576 m 1,0,-1
 147 468 l 1,1,-1
 15 525 l 1,2,-1
 29 669 l 1,3,-1
 170 700 l 1,4,-1
 243 576 l 1,0,-1
243 108 m 1,5,-1
 147 0 l 1,6,-1
 15 58 l 1,7,-1
 29 201 l 1,8,-1
 170 232 l 1,9,-1
 243 108 l 1,5,-1
EndSplineSet
EndChar

StartChar: semicolon
Encoding: 59 59 32
Width: 232
GlyphClass: 2
Flags: W
LayerCount: 2
Fore
SplineSet
215 293 m 1,0,-1
 181 202 l 1,1,-1
 17 0 l 1,2,-1
 56 254 l 1,3,-1
 41 330 l 1,4,-1
 107 364 l 1,5,-1
 118 372 l 1,6,-1
 215 293 l 1,0,-1
202 613 m 1,7,-1
 135 537 l 1,8,-1
 42 578 l 1,9,-1
 52 678 l 1,10,-1
 151 700 l 1,11,-1
 202 613 l 1,7,-1
EndSplineSet
EndChar

StartChar: less
Encoding: 60 60 33
Width: 406
GlyphClass: 2
Flags: W
LayerCount: 2
Fore
SplineSet
337 -89 m 1,0,-1
 18 350 l 1,1,-1
 337 790 l 1,2,-1
 387 753 l 1,3,-1
 95 350 l 1,4,-1
 387 -53 l 1,5,-1
 337 -89 l 1,0,-1
EndSplineSet
EndChar

StartChar: equal
Encoding: 61 61 34
Width: 307
GlyphClass: 2
Flags: W
LayerCount: 2
Fore
SplineSet
15 399 m 1,0,-1
 280 399 l 1,1,-1
 280 368 l 1,2,-1
 15 368 l 1,3,-1
 15 399 l 1,0,-1
280 266 m 1,4,-1
 15 266 l 1,5,-1
 15 297 l 1,6,-1
 280 297 l 1,7,-1
 280 266 l 1,4,-1
EndSplineSet
EndChar

StartChar: greater
Encoding: 62 62 35
Width: 412
GlyphClass: 2
Flags: W
LayerCount: 2
Fore
SplineSet
25 -51 m 1,0,-1
 316 350 l 1,1,-1
 25 751 l 1,2,-1
 75 787 l 1,3,-1
 392 350 l 1,4,-1
 75 -87 l 1,5,-1
 25 -51 l 1,0,-1
EndSplineSet
EndChar

StartChar: question
Encoding: 63 63 36
Width: 669
GlyphClass: 2
Flags: W
LayerCount: 2
Fore
SplineSet
93 607 m 0,0,1
 81 595 81 595 81 613 c 2,2,-1
 81 693 l 1,3,4
 123 719 123 719 166 734.5 c 128,-1,5
 209 750 209 750 257 750 c 256,6,7
 305 750 305 750 344.5 738.5 c 128,-1,8
 384 727 384 727 412 705 c 128,-1,9
 440 683 440 683 455.5 651.5 c 128,-1,10
 471 620 471 620 471 580 c 0,11,12
 471 551 471 551 461 523.5 c 128,-1,13
 451 496 451 496 435.5 471 c 128,-1,14
 420 446 420 446 401 424.5 c 128,-1,15
 382 403 382 403 364 385 c 2,16,-1
 334 355 l 2,17,18
 314 335 314 335 302.5 311.5 c 128,-1,19
 291 288 291 288 291 254 c 0,20,21
 291 233 291 233 293.5 214.5 c 128,-1,22
 296 196 296 196 300 177 c 1,23,-1
 221 177 l 1,24,25
 212 214 212 214 212 256 c 0,26,27
 212 309 212 309 234 346 c 128,-1,28
 256 383 256 383 292 420 c 0,29,30
 309 436 309 436 325.5 453 c 128,-1,31
 342 470 342 470 354.5 488 c 128,-1,32
 367 506 367 506 375 526.5 c 128,-1,33
 383 547 383 547 383 570 c 0,34,35
 383 624 383 624 346.5 650 c 128,-1,36
 310 676 310 676 247 676 c 0,37,38
 201 676 201 676 164 658 c 128,-1,39
 127 640 127 640 93 607 c 0,0,1
259 78 m 256,40,41
 289 78 289 78 308 59 c 128,-1,42
 327 40 327 40 327 11 c 256,43,44
 327 -18 327 -18 308 -37 c 128,-1,45
 289 -56 289 -56 259 -56 c 256,46,47
 229 -56 229 -56 210 -37 c 128,-1,48
 191 -18 191 -18 191 11 c 256,49,50
 191 40 191 40 210 59 c 128,-1,51
 229 78 229 78 259 78 c 256,40,41
EndSplineSet
EndChar

StartChar: at
Encoding: 64 64 37
Width: 1052
GlyphClass: 2
Flags: W
LayerCount: 2
Fore
SplineSet
540 490 m 0,0,1
 507 490 507 490 479.5 470.5 c 128,-1,2
 452 451 452 451 432.5 418.5 c 128,-1,3
 413 386 413 386 402 343.5 c 128,-1,4
 391 301 391 301 391 256 c 0,5,6
 391 190 391 190 416 156 c 128,-1,7
 441 122 441 122 487 122 c 0,8,9
 520 122 520 122 547.5 139 c 128,-1,10
 575 156 575 156 595.5 188 c 128,-1,11
 616 220 616 220 627 265 c 128,-1,12
 638 310 638 310 638 366 c 0,13,14
 638 433 638 433 616 461.5 c 128,-1,15
 594 490 594 490 540 490 c 0,0,1
547 -150 m 0,16,17
 419 -150 419 -150 329.5 -117.5 c 128,-1,18
 240 -85 240 -85 184.5 -26.5 c 128,-1,19
 129 32 129 32 104 112.5 c 128,-1,20
 79 193 79 193 79 290 c 0,21,22
 79 393 79 393 113 480.5 c 128,-1,23
 147 568 147 568 208.5 631.5 c 128,-1,24
 270 695 270 695 355 730.5 c 128,-1,25
 440 766 440 766 541 766 c 0,26,27
 647 766 647 766 731 736 c 128,-1,28
 815 706 815 706 873.5 652 c 128,-1,29
 932 598 932 598 963 523 c 128,-1,30
 994 448 994 448 994 358 c 0,31,32
 994 283 994 283 973.5 226 c 128,-1,33
 953 169 953 169 920 130.5 c 128,-1,34
 887 92 887 92 845 72.5 c 128,-1,35
 803 53 803 53 760 53 c 0,36,37
 724 53 724 53 700 62 c 128,-1,38
 676 71 676 71 662 86.5 c 128,-1,39
 648 102 648 102 642 122 c 128,-1,40
 636 142 636 142 636 163 c 1,41,-1
 635 163 l 1,42,43
 609 109 609 109 571.5 81.5 c 128,-1,44
 534 54 534 54 471 54 c 0,45,46
 387 54 387 54 344.5 109.5 c 128,-1,47
 302 165 302 165 302 259 c 0,48,49
 302 329 302 329 323 384.5 c 128,-1,50
 344 440 344 440 377.5 478.5 c 128,-1,51
 411 517 411 517 453.5 537.5 c 128,-1,52
 496 558 496 558 539 558 c 0,53,54
 578 558 578 558 604 542 c 128,-1,55
 630 526 630 526 650 493 c 1,56,-1
 651 493 l 1,57,-1
 659 549 l 1,58,-1
 733 549 l 1,59,-1
 702 186 l 2,60,61
 702 171 702 171 704 158 c 128,-1,62
 706 145 706 145 713 135.5 c 128,-1,63
 720 126 720 126 733 121 c 128,-1,64
 746 116 746 116 767 116 c 0,65,66
 793 116 793 116 818 133 c 128,-1,67
 843 150 843 150 862.5 181 c 128,-1,68
 882 212 882 212 894 254 c 128,-1,69
 906 296 906 296 906 346 c 0,70,71
 906 432 906 432 880.5 498 c 128,-1,72
 855 564 855 564 807.5 609 c 128,-1,73
 760 654 760 654 693.5 677 c 128,-1,74
 627 700 627 700 545 700 c 0,75,76
 462 700 462 700 392.5 669.5 c 128,-1,77
 323 639 323 639 273 585 c 128,-1,78
 223 531 223 531 195 456 c 128,-1,79
 167 381 167 381 167 292 c 0,80,81
 167 105 167 105 263 10 c 128,-1,82
 359 -85 359 -85 549 -85 c 0,83,84
 645 -85 645 -85 716.5 -57.5 c 128,-1,85
 788 -30 788 -30 841 11 c 0,86,87
 852 17 852 17 852 5 c 2,88,-1
 852 -72 l 1,89,90
 825 -91 825 -91 790.5 -105.5 c 128,-1,91
 756 -120 756 -120 716.5 -130 c 128,-1,92
 677 -140 677 -140 634 -145 c 128,-1,93
 591 -150 591 -150 547 -150 c 0,16,17
EndSplineSet
EndChar

StartChar: A
Encoding: 65 65 38
Width: 648
GlyphClass: 2
Flags: W
LayerCount: 2
Fore
SplineSet
411 226 m 1,0,-1
 235 226 l 1,1,-1
 158 -3 l 1,2,-1
 71 -5 l 1,3,-1
 224 582 l 1,4,-1
 211 595 l 1,5,-1
 211 597 l 1,6,-1
 371 695 l 1,7,8
 368 685 368 685 375 678 c 1,9,-1
 596 -2 l 1,10,-1
 499 -4 l 1,11,-1
 411 226 l 1,0,-1
381 306 m 1,12,-1
 317 472 l 1,13,-1
 261 303 l 1,14,-1
 381 306 l 1,12,-1
EndSplineSet
EndChar

StartChar: B
Encoding: 66 66 39
Width: 616
GlyphClass: 2
Flags: W
LayerCount: 2
Fore
SplineSet
475 346 m 1,0,1
 495 339 495 339 515 320.5 c 128,-1,2
 535 302 535 302 551 276.5 c 128,-1,3
 567 251 567 251 577 221 c 128,-1,4
 587 191 587 191 586.5 160 c 128,-1,5
 586 129 586 129 572.5 100 c 128,-1,6
 559 71 559 71 529 47.5 c 128,-1,7
 499 24 499 24 449.5 8 c 128,-1,8
 400 -8 400 -8 327 -11 c 1,9,-1
 217 -9 l 1,10,-1
 87 -9 l 1,11,-1
 85 627 l 1,12,-1
 23 700 l 1,13,-1
 414 643 l 2,14,15
 435 640 435 640 457 623.5 c 128,-1,16
 479 607 479 607 497.5 582 c 128,-1,17
 516 557 516 557 527.5 526 c 128,-1,18
 539 495 539 495 539 463 c 128,-1,19
 539 431 539 431 524 400.5 c 128,-1,20
 509 370 509 370 475 346 c 1,0,1
220 573 m 1,21,-1
 229 391 l 1,22,-1
 321 386 l 2,23,24
 325 384 325 384 334 387 c 0,25,26
 342 389 342 389 354.5 394.5 c 128,-1,27
 367 400 367 400 387 412 c 0,28,29
 409 425 409 425 420 448 c 128,-1,30
 431 471 431 471 426.5 495 c 128,-1,31
 422 519 422 519 400 538.5 c 128,-1,32
 378 558 378 558 334 565 c 2,33,-1
 220 573 l 1,21,-1
434 118 m 0,34,35
 456 131 456 131 467 154 c 128,-1,36
 478 177 478 177 473.5 201 c 128,-1,37
 469 225 469 225 447 244.5 c 128,-1,38
 425 264 425 264 381 271 c 1,39,-1
 233 277 l 1,40,-1
 224 96 l 1,41,-1
 284 92 l 2,42,43
 312 90 312 90 339 93 c 0,44,45
 362 95 362 95 388 100.5 c 128,-1,46
 414 106 414 106 434 118 c 0,34,35
EndSplineSet
EndChar

StartChar: C
Encoding: 67 67 40
Width: 713
GlyphClass: 2
Flags: W
LayerCount: 2
Fore
SplineSet
577 551 m 1,0,1
 470 568 470 568 386 553 c 0,2,3
 350 547 350 547 315.5 532.5 c 128,-1,4
 281 518 281 518 254.5 492.5 c 128,-1,5
 228 467 228 467 211.5 428.5 c 128,-1,6
 195 390 195 390 195 336 c 0,7,8
 195 284 195 284 209.5 245.5 c 128,-1,9
 224 207 224 207 248 179.5 c 128,-1,10
 272 152 272 152 302.5 134.5 c 128,-1,11
 333 117 333 117 366 106.5 c 128,-1,12
 399 96 399 96 431.5 91.5 c 128,-1,13
 464 87 464 87 491 86 c 1,14,-1
 565 139 l 1,15,-1
 565 -30 l 1,16,17
 420 -57 420 -57 306 -30 c 0,18,19
 257 -18 257 -18 210.5 6 c 128,-1,20
 164 30 164 30 127.5 73 c 128,-1,21
 91 116 91 116 69 180 c 128,-1,22
 47 244 47 244 47 336 c 0,23,24
 47 427 47 427 74 490 c 128,-1,25
 101 553 101 553 145 594.5 c 128,-1,26
 189 636 189 636 245 658 c 128,-1,27
 301 680 301 680 360 689 c 0,28,29
 497 710 497 710 673 677 c 1,30,-1
 577 551 l 1,31,-1
 577 551 l 1,0,1
EndSplineSet
EndChar

StartChar: D
Encoding: 68 68 41
Width: 703
GlyphClass: 2
Flags: W
LayerCount: 2
Fore
SplineSet
654 339 m 0,0,1
 654 260 654 260 625 201.5 c 128,-1,2
 596 143 596 143 552 102 c 128,-1,3
 508 61 508 61 456.5 35 c 128,-1,4
 405 9 405 9 359.5 -5.5 c 128,-1,5
 314 -20 314 -20 282 -26 c 128,-1,6
 250 -32 250 -32 246 -32 c 2,7,-1
 32 -32 l 1,8,-1
 114 13 l 1,9,-1
 119 605 l 1,10,-1
 41 679 l 1,11,-1
 247 678 l 2,12,13
 257 679 257 679 291.5 679 c 128,-1,14
 326 679 326 679 371.5 671 c 128,-1,15
 417 663 417 663 467 644 c 128,-1,16
 517 625 517 625 558.5 587 c 128,-1,17
 600 549 600 549 627 489 c 128,-1,18
 654 429 654 429 654 339 c 0,0,1
243 71 m 1,19,20
 252 74 252 74 279.5 81.5 c 128,-1,21
 307 89 307 89 342 103 c 128,-1,22
 377 117 377 117 415 137.5 c 128,-1,23
 453 158 453 158 485 187 c 128,-1,24
 517 216 517 216 537.5 253.5 c 128,-1,25
 558 291 558 291 558 339 c 0,26,27
 558 395 558 395 539.5 434 c 128,-1,28
 521 473 521 473 491.5 500 c 128,-1,29
 462 527 462 527 425.5 543 c 128,-1,30
 389 559 389 559 354 567.5 c 128,-1,31
 319 576 319 576 289.5 579 c 128,-1,32
 260 582 260 582 243 583 c 1,33,-1
 243 71 l 1,19,20
EndSplineSet
EndChar

StartChar: E
Encoding: 69 69 42
Width: 636
GlyphClass: 2
Flags: W
LayerCount: 2
Fore
SplineSet
185 555 m 1,0,-1
 194 382 l 1,1,-1
 443 377 l 1,2,-1
 477 318 l 1,3,-1
 198 277 l 1,4,-1
 206 133 l 1,5,-1
 206 116 l 1,6,-1
 524 100 l 1,7,-1
 597 24 l 1,8,-1
 58 0 l 1,9,-1
 101 631 l 1,10,-1
 32 700 l 1,11,-1
 212 666 l 1,12,-1
 597 624 l 1,13,-1
 536 558 l 1,14,-1
 185 555 l 1,0,-1
EndSplineSet
EndChar

StartChar: F
Encoding: 70 70 43
Width: 640
GlyphClass: 2
Flags: W
LayerCount: 2
Fore
SplineSet
66 0 m 1,0,-1
 109 631 l 1,1,-1
 40 700 l 1,2,-1
 220 666 l 1,3,-1
 605 624 l 1,4,-1
 544 558 l 1,5,-1
 193 555 l 1,6,-1
 202 382 l 1,7,-1
 451 377 l 1,8,-1
 485 318 l 1,9,-1
 206 277 l 1,10,-1
 214 133 l 1,11,-1
 214 0 l 1,12,-1
 66 0 l 1,0,-1
EndSplineSet
EndChar

StartChar: G
Encoding: 71 71 44
Width: 705
GlyphClass: 2
Flags: W
LayerCount: 2
Fore
SplineSet
447 393 m 1,0,-1
 685 393 l 1,1,-1
 685 10 l 1,2,-1
 543 -13 l 2,3,4
 398 -40 398 -40 284 -13 c 0,5,6
 236 -2 236 -2 189.5 22.5 c 128,-1,7
 143 47 143 47 106.5 89.5 c 128,-1,8
 70 132 70 132 48 196.5 c 128,-1,9
 26 261 26 261 26 352 c 256,10,11
 26 443 26 443 53 506 c 128,-1,12
 80 569 80 569 124 610.5 c 128,-1,13
 168 652 168 652 224 674.5 c 128,-1,14
 280 697 280 697 339 706 c 0,15,16
 476 728 476 728 652 694 c 1,17,-1
 555 567 l 1,18,19
 448 584 448 584 364 569 c 0,20,21
 328 563 328 563 294 548.5 c 128,-1,22
 260 534 260 534 233.5 508.5 c 128,-1,23
 207 483 207 483 190.5 445 c 128,-1,24
 174 407 174 407 174 352 c 0,25,26
 174 274 174 274 205 226 c 128,-1,27
 236 178 236 178 281.5 151 c 128,-1,28
 327 124 327 124 378 114 c 128,-1,29
 429 104 429 104 469 103 c 1,30,-1
 569 116 l 1,31,-1
 569 298 l 1,32,-1
 401 298 l 1,33,-1
 447 393 l 1,0,-1
EndSplineSet
EndChar

StartChar: H
Encoding: 72 72 45
Width: 623
GlyphClass: 2
Flags: W
LayerCount: 2
Fore
SplineSet
568 666 m 1,0,-1
 562 0 l 1,1,-1
 414 0 l 1,2,-1
 435 298 l 1,3,-1
 215 265 l 1,4,-1
 213 0 l 1,5,-1
 65 0 l 1,6,-1
 108 631 l 1,7,-1
 39 700 l 1,8,-1
 219 666 l 1,9,-1
 217 402 l 1,10,-1
 442 398 l 1,11,-1
 458 631 l 1,12,-1
 388 700 l 1,13,-1
 568 666 l 1,0,-1
EndSplineSet
EndChar

StartChar: I
Encoding: 73 73 46
Width: 273
GlyphClass: 2
Flags: W
LayerCount: 2
Fore
SplineSet
94 646 m 1,0,-1
 46 698 l 1,1,-1
 248 698 l 1,2,-1
 198 671 l 1,3,-1
 195 50 l 1,4,-1
 243 -2 l 1,5,-1
 41 -2 l 1,6,-1
 91 25 l 1,7,-1
 94 646 l 1,0,-1
EndSplineSet
EndChar

StartChar: J
Encoding: 74 74 47
Width: 351
GlyphClass: 2
Flags: W
LayerCount: 2
Fore
SplineSet
284 687 m 1,0,-1
 288 276 l 2,1,2
 288 176 288 176 269 113.5 c 128,-1,3
 250 51 250 51 223.5 15 c 128,-1,4
 197 -21 197 -21 169 -35.5 c 128,-1,5
 141 -50 141 -50 124 -54 c 1,6,-1
 123 -54 l 2,7,8
 115 -56 115 -56 112 -56 c 2,9,-1
 56 -66 l 1,10,-1
 29 -6 l 1,11,-1
 71 52 l 1,12,-1
 65 16 l 1,13,14
 89 17 89 17 107.5 29.5 c 128,-1,15
 126 42 126 42 139.5 60.5 c 128,-1,16
 153 79 153 79 162.5 103 c 128,-1,17
 172 127 172 127 178 151 c 0,18,19
 193 208 193 208 196 279 c 2,20,-1
 192 688 l 1,21,-1
 145 711 l 1,22,-1
 328 711 l 1,23,-1
 284 687 l 1,0,-1
EndSplineSet
EndChar

StartChar: K
Encoding: 75 75 48
Width: 626
GlyphClass: 2
Flags: W
LayerCount: 2
Fore
SplineSet
321 397 m 1,0,-1
 595 -26 l 1,1,-1
 442 -26 l 1,2,-1
 237 313 l 1,3,-1
 185 260 l 1,4,-1
 185 240 l 1,5,-1
 183 -32 l 1,6,-1
 83 -32 l 1,7,-1
 80 658 l 1,8,9
 84 671 84 671 76 679 c 2,10,-1
 20 736 l 1,11,-1
 194 680 l 1,12,-1
 186 659 l 1,13,-1
 185 450 l 1,14,-1
 433 676 l 1,15,-1
 599 676 l 1,16,-1
 321 397 l 1,0,-1
EndSplineSet
EndChar

StartChar: L
Encoding: 76 76 49
Width: 613
GlyphClass: 2
Flags: W
LayerCount: 2
Fore
SplineSet
218 113 m 1,0,-1
 577 134 l 1,1,-1
 571 70 l 1,2,-1
 77 0 l 1,3,-1
 108 648 l 1,4,-1
 33 700 l 1,5,-1
 210 673 l 1,6,-1
 218 113 l 1,0,-1
EndSplineSet
EndChar

StartChar: M
Encoding: 77 77 50
Width: 903
GlyphClass: 2
Flags: W
LayerCount: 2
Fore
SplineSet
867 0 m 1,0,-1
 725 65 l 1,1,-1
 674 458 l 1,2,-1
 454 137 l 1,3,-1
 233 458 l 1,4,-1
 183 65 l 1,5,-1
 41 0 l 1,6,-1
 133 588 l 1,7,8
 140 604 140 604 132 617 c 2,9,-1
 67 700 l 1,10,-1
 288 598 l 1,11,-1
 273 572 l 1,12,-1
 454 294 l 1,13,-1
 635 572 l 1,14,-1
 620 598 l 1,15,-1
 841 700 l 1,16,-1
 776 617 l 2,17,18
 771 611 771 611 771 603 c 128,-1,19
 771 595 771 595 775 588 c 2,20,-1
 867 0 l 1,0,-1
EndSplineSet
EndChar

StartChar: N
Encoding: 78 78 51
Width: 710
GlyphClass: 2
Flags: W
LayerCount: 2
Fore
SplineSet
507 38 m 1,0,-1
 203 529 l 1,1,-1
 213 61 l 1,2,-1
 212 61 l 1,3,-1
 277 0 l 1,4,-1
 110 25 l 1,5,-1
 109 58 l 1,6,-1
 109 61 l 1,7,-1
 101 627 l 1,8,-1
 36 688 l 1,9,-1
 200 662 l 1,10,-1
 504 227 l 1,11,-1
 498 639 l 1,12,-1
 433 700 l 1,13,-1
 597 675 l 1,14,-1
 610 73 l 1,15,-1
 609 73 l 1,16,-1
 674 12 l 1,17,-1
 507 38 l 1,0,-1
EndSplineSet
EndChar

StartChar: O
Encoding: 79 79 52
Width: 817
GlyphClass: 2
Flags: W
LayerCount: 2
Fore
SplineSet
458 702 m 1,0,1
 482 702 482 702 516 697.5 c 128,-1,2
 550 693 550 693 587 679.5 c 128,-1,3
 624 666 624 666 661 640.5 c 128,-1,4
 698 615 698 615 727 573.5 c 128,-1,5
 756 532 756 532 774 471.5 c 128,-1,6
 792 411 792 411 792 327 c 0,7,8
 792 256 792 256 775.5 203.5 c 128,-1,9
 759 151 759 151 732 113 c 128,-1,10
 705 75 705 75 670.5 50 c 128,-1,11
 636 25 636 25 600 9 c 0,12,13
 516 -28 516 -28 409 -27 c 0,14,15
 303 -28 303 -28 219 9 c 0,16,17
 183 24 183 24 149 49.5 c 128,-1,18
 115 75 115 75 88.5 113 c 128,-1,19
 62 151 62 151 45.5 203.5 c 128,-1,20
 29 256 29 256 29 327 c 0,21,22
 29 403 29 403 48.5 460 c 128,-1,23
 68 517 68 517 99 557 c 128,-1,24
 130 597 130 597 169.5 623.5 c 128,-1,25
 209 650 209 650 248 665.5 c 128,-1,26
 287 681 287 681 322.5 688 c 128,-1,27
 358 695 358 695 382 698 c 1,28,-1
 334 750 l 1,29,-1
 453 712 l 1,30,-1
 458 702 l 1,0,1
320 68 m 0,31,32
 334 64 334 64 364.5 63 c 128,-1,33
 395 62 395 62 432.5 69 c 128,-1,34
 470 76 470 76 509.5 92.5 c 128,-1,35
 549 109 549 109 581.5 139 c 128,-1,36
 614 169 614 169 635 215 c 128,-1,37
 656 261 656 261 656 327 c 0,38,39
 656 421 656 421 635.5 479 c 128,-1,40
 615 537 615 537 589.5 568.5 c 128,-1,41
 564 600 564 600 539.5 611 c 128,-1,42
 515 622 515 622 508 624 c 0,43,44
 425 624 425 624 363.5 610.5 c 128,-1,45
 302 597 302 597 261 564 c 128,-1,46
 220 531 220 531 199.5 474.5 c 128,-1,47
 179 418 179 418 179 332 c 256,48,49
 179 246 179 246 194.5 196 c 128,-1,50
 210 146 210 146 232 119.5 c 128,-1,51
 254 93 254 93 278 83.5 c 128,-1,52
 302 74 302 74 320 68 c 0,31,32
EndSplineSet
EndChar

StartChar: P
Encoding: 80 80 53
Width: 660
GlyphClass: 2
Flags: W
LayerCount: 2
Fore
SplineSet
501 643 m 2,0,1
 527 639 527 639 555.5 613.5 c 128,-1,2
 584 588 584 588 602.5 551 c 128,-1,3
 621 514 621 514 624 472 c 128,-1,4
 627 430 627 430 603.5 392.5 c 128,-1,5
 580 355 580 355 523.5 329 c 128,-1,6
 467 303 467 303 367 298 c 1,7,-1
 238 286 l 1,8,-1
 225 -1 l 1,9,-1
 94 -1 l 1,10,-1
 93 627 l 1,11,-1
 31 699 l 1,12,-1
 501 643 l 2,0,1
326 390 m 2,13,14
 354 389 354 389 380 391 c 0,15,16
 403 393 403 393 428 398 c 128,-1,17
 453 403 453 403 473 415 c 0,18,19
 495 428 495 428 506 450.5 c 128,-1,20
 517 473 517 473 512.5 496.5 c 128,-1,21
 508 520 508 520 486.5 539.5 c 128,-1,22
 465 559 465 559 422 566 c 1,23,-1
 225 574 l 1,24,-1
 234 394 l 1,25,-1
 326 390 l 2,13,14
EndSplineSet
EndChar

StartChar: Q
Encoding: 81 81 54
Width: 819
GlyphClass: 2
Flags: W
LayerCount: 2
Fore
SplineSet
792 -60 m 1,0,-1
 651 -60 l 1,1,-1
 638 -41 l 1,2,-1
 637 -39 l 1,3,-1
 571 59 l 1,4,5
 537 45 537 45 505.5 38 c 128,-1,6
 474 31 474 31 449 28 c 0,7,8
 420 24 420 24 393 25 c 0,9,10
 292 25 292 25 213 59 c 0,11,12
 179 74 179 74 147 97.5 c 128,-1,13
 115 121 115 121 90 157 c 128,-1,14
 65 193 65 193 49.5 243 c 128,-1,15
 34 293 34 293 34 360 c 0,16,17
 34 432 34 432 52.5 486 c 128,-1,18
 71 540 71 540 100.5 578 c 128,-1,19
 130 616 130 616 167 641 c 128,-1,20
 204 666 204 666 241 680.5 c 128,-1,21
 278 695 278 695 311.5 702 c 128,-1,22
 345 709 345 709 368 711 c 1,23,-1
 323 760 l 1,24,-1
 435 724 l 1,25,-1
 439 715 l 1,26,27
 462 715 462 715 494 710.5 c 128,-1,28
 526 706 526 706 561 693.5 c 128,-1,29
 596 681 596 681 631 657 c 128,-1,30
 666 633 666 633 693.5 593.5 c 128,-1,31
 721 554 721 554 738 497 c 128,-1,32
 755 440 755 440 755 360 c 0,33,34
 755 273 755 273 729.5 215 c 128,-1,35
 704 157 704 157 665 120 c 1,36,-1
 792 -60 l 1,0,-1
309 115 m 0,37,38
 320 112 320 112 342 110.5 c 128,-1,39
 364 109 364 109 391.5 112.5 c 128,-1,40
 419 116 419 116 450 124.5 c 128,-1,41
 481 133 481 133 510 149 c 1,42,-1
 423 278 l 1,43,-1
 515 332 l 1,44,-1
 591 225 l 1,45,46
 608 251 608 251 617 284.5 c 128,-1,47
 626 318 626 318 626 360 c 0,48,49
 626 450 626 450 607 504 c 128,-1,50
 588 558 588 558 563.5 588 c 128,-1,51
 539 618 539 618 516.5 628.5 c 128,-1,52
 494 639 494 639 487 641 c 0,53,54
 409 641 409 641 350.5 628 c 128,-1,55
 292 615 292 615 253 583.5 c 128,-1,56
 214 552 214 552 195 499 c 128,-1,57
 176 446 176 446 176 365 c 256,58,59
 176 284 176 284 190.5 236.5 c 128,-1,60
 205 189 205 189 226 164 c 128,-1,61
 247 139 247 139 269.5 130 c 128,-1,62
 292 121 292 121 309 115 c 0,37,38
EndSplineSet
EndChar

StartChar: R
Encoding: 82 82 55
Width: 663
GlyphClass: 2
Flags: W
LayerCount: 2
Fore
SplineSet
634 2 m 1,0,-1
 512 -4 l 1,1,-1
 504 13 l 1,2,-1
 504 15 l 1,3,-1
 378 296 l 1,4,5
 367 296 367 296 362 295 c 2,6,-1
 225 283 l 1,7,-1
 220 -4 l 1,8,-1
 89 -4 l 1,9,-1
 88 624 l 1,10,-1
 26 696 l 1,11,-1
 496 640 l 2,12,13
 519 637 519 637 543.5 616.5 c 128,-1,14
 568 596 568 596 587 566.5 c 128,-1,15
 606 537 606 537 614.5 500.5 c 128,-1,16
 623 464 623 464 615 429.5 c 128,-1,17
 607 395 607 395 577.5 364.5 c 128,-1,18
 548 334 548 334 490 316 c 1,19,-1
 634 2 l 1,0,-1
321 387 m 2,20,21
 349 386 349 386 375 388 c 0,22,23
 398 390 398 390 423 395 c 128,-1,24
 448 400 448 400 468 412 c 0,25,26
 490 425 490 425 501 447.5 c 128,-1,27
 512 470 512 470 507.5 493.5 c 128,-1,28
 503 517 503 517 481.5 536.5 c 128,-1,29
 460 556 460 556 417 563 c 1,30,-1
 220 571 l 1,31,-1
 221 391 l 1,32,-1
 321 387 l 2,20,21
EndSplineSet
EndChar

StartChar: S
Encoding: 83 83 56
Width: 666
GlyphClass: 2
Flags: W
LayerCount: 2
Fore
SplineSet
441 359 m 0,0,1
 511 323 511 323 548.5 282.5 c 128,-1,2
 586 242 586 242 598.5 201 c 128,-1,3
 611 160 611 160 601 121 c 128,-1,4
 591 82 591 82 567 49 c 0,5,6
 550 32 550 32 531.5 17 c 128,-1,7
 513 2 513 2 489 -9.5 c 128,-1,8
 465 -21 465 -21 433.5 -26.5 c 128,-1,9
 402 -32 402 -32 359 -30 c 0,10,11
 314 -26 314 -26 276.5 -16.5 c 128,-1,12
 239 -7 239 -7 205 8 c 128,-1,13
 171 23 171 23 139 42.5 c 128,-1,14
 107 62 107 62 75 85 c 2,15,-1
 51 100 l 1,16,-1
 164 192 l 1,17,-1
 138 157 l 1,18,19
 206 110 206 110 269 85 c 0,20,21
 296 74 296 74 325 68 c 128,-1,22
 354 62 354 62 382 63.5 c 128,-1,23
 410 65 410 65 436.5 76.5 c 128,-1,24
 463 88 463 88 484 113 c 1,25,26
 499 139 499 139 494.5 165 c 128,-1,27
 490 191 490 191 471 216.5 c 128,-1,28
 452 242 452 242 420.5 266.5 c 128,-1,29
 389 291 389 291 349 314 c 0,30,31
 310 339 310 339 269 362.5 c 128,-1,32
 228 386 228 386 196 417.5 c 128,-1,33
 164 449 164 449 148 492 c 128,-1,34
 132 535 132 535 144 598 c 1,35,36
 151 613 151 613 162.5 632.5 c 128,-1,37
 174 652 174 652 193.5 668.5 c 128,-1,38
 213 685 213 685 242.5 696.5 c 128,-1,39
 272 708 272 708 314 708 c 128,-1,40
 356 708 356 708 412 694 c 128,-1,41
 468 680 468 680 541 646 c 1,42,-1
 567 631 l 1,43,-1
 564 505 l 1,44,-1
 546 538 l 1,45,46
 536 544 536 544 512.5 557.5 c 128,-1,47
 489 571 489 571 458.5 584.5 c 128,-1,48
 428 598 428 598 394 608 c 128,-1,49
 360 618 360 618 328 617.5 c 128,-1,50
 296 617 296 617 269.5 603 c 128,-1,51
 243 589 243 589 228 555 c 1,52,53
 225 537 225 537 232.5 519 c 128,-1,54
 240 501 240 501 254 484 c 128,-1,55
 268 467 268 467 287.5 451 c 128,-1,56
 307 435 307 435 328 421 c 0,57,58
 376 388 376 388 441 359 c 0,0,1
EndSplineSet
EndChar

StartChar: T
Encoding: 84 84 57
Width: 601
GlyphClass: 2
Flags: W
LayerCount: 2
Fore
SplineSet
573 516 m 1,0,-1
 519 573 l 1,1,-1
 374 579 l 1,2,-1
 370 -1 l 1,3,-1
 437 -41 l 1,4,-1
 155 -41 l 1,5,-1
 225 -3 l 1,6,-1
 229 579 l 1,7,-1
 81 573 l 1,8,-1
 27 516 l 1,9,-1
 50 698 l 1,10,-1
 78 699 l 1,11,-1
 522 699 l 1,12,-1
 550 698 l 1,13,-1
 573 516 l 1,0,-1
EndSplineSet
EndChar

StartChar: U
Encoding: 85 85 58
Width: 629
GlyphClass: 2
Flags: W
LayerCount: 2
Fore
SplineSet
596 679 m 1,0,-1
 580 92 l 2,1,2
 578 9 578 9 512.5 -22 c 128,-1,3
 447 -53 447 -53 323 -53 c 0,4,5
 277 -53 277 -53 242 -47 c 128,-1,6
 207 -41 207 -41 181 -31.5 c 128,-1,7
 155 -22 155 -22 137.5 -10 c 128,-1,8
 120 2 120 2 108 15 c 0,9,10
 81 45 81 45 77 84 c 2,11,-1
 19 712 l 1,12,-1
 164 646 l 1,13,-1
 207 86 l 1,14,-1
 330 58 l 1,15,-1
 451 86 l 1,16,-1
 460 679 l 1,17,-1
 596 679 l 1,0,-1
EndSplineSet
EndChar

StartChar: V
Encoding: 86 86 59
Width: 853
GlyphClass: 2
Flags: W
LayerCount: 2
Fore
SplineSet
562 77 m 1,0,-1
 384 0 l 1,1,2
 389 20 389 20 374 35 c 1,3,-1
 46 700 l 1,4,-1
 230 676 l 1,5,-1
 437 227 l 1,6,-1
 638 691 l 1,7,-1
 815 700 l 1,8,-1
 535 106 l 1,9,-1
 562 80 l 1,10,-1
 562 77 l 1,0,-1
EndSplineSet
EndChar

StartChar: W
Encoding: 87 87 60
Width: 923
GlyphClass: 2
Flags: W
LayerCount: 2
Fore
SplineSet
53 700 m 1,0,-1
 195 635 l 1,1,-1
 245 242 l 1,2,-1
 466 563 l 1,3,-1
 686 242 l 1,4,-1
 737 635 l 1,5,-1
 879 700 l 1,6,-1
 787 112 l 2,7,8
 783 105 783 105 783 97 c 128,-1,9
 783 89 783 89 788 83 c 2,10,-1
 853 0 l 1,11,-1
 632 102 l 1,12,-1
 647 128 l 1,13,-1
 466 406 l 1,14,-1
 285 128 l 1,15,-1
 300 102 l 1,16,-1
 79 0 l 1,17,-1
 144 83 l 2,18,19
 152 96 152 96 145 112 c 1,20,-1
 53 700 l 1,0,-1
EndSplineSet
EndChar

StartChar: X
Encoding: 88 88 61
Width: 681
GlyphClass: 2
Flags: W
LayerCount: 2
Fore
SplineSet
630 83 m 1,0,-1
 637 0 l 1,1,-1
 509 9 l 1,2,-1
 341 259 l 1,3,-1
 172 9 l 1,4,-1
 44 0 l 1,5,-1
 51 83 l 1,6,-1
 78 51 l 1,7,-1
 278 352 l 1,8,-1
 44 700 l 1,9,-1
 177 691 l 1,10,-1
 341 446 l 1,11,-1
 504 691 l 1,12,-1
 637 700 l 1,13,-1
 403 352 l 1,14,-1
 604 51 l 1,15,-1
 630 83 l 1,0,-1
EndSplineSet
EndChar

StartChar: Y
Encoding: 89 89 62
Width: 611
GlyphClass: 2
Flags: W
LayerCount: 2
Fore
SplineSet
371 71 m 1,0,-1
 436 0 l 1,1,-1
 202 0 l 1,2,-1
 270 37 l 1,3,-1
 270 335 l 1,4,-1
 53 700 l 1,5,-1
 169 684 l 1,6,-1
 318 460 l 1,7,-1
 457 694 l 1,8,-1
 562 700 l 1,9,-1
 371 327 l 1,10,-1
 371 71 l 1,0,-1
EndSplineSet
EndChar

StartChar: Z
Encoding: 90 90 63
Width: 769
GlyphClass: 2
Flags: W
LayerCount: 2
Fore
SplineSet
734 700 m 1,0,-1
 673 612 l 1,1,-1
 303 99 l 1,2,-1
 656 104 l 1,3,-1
 700 151 l 1,4,-1
 682 10 l 1,5,-1
 138 1 l 1,6,-1
 38 0 l 1,7,-1
 112 96 l 1,8,-1
 523 610 l 1,9,-1
 129 603 l 1,10,-1
 84 556 l 1,11,-1
 103 693 l 1,12,-1
 126 694 l 1,13,-1
 129 694 l 1,14,-1
 647 700 l 1,15,-1
 734 700 l 1,0,-1
EndSplineSet
EndChar

StartChar: bracketleft
Encoding: 91 91 64
Width: 446
GlyphClass: 2
Flags: W
LayerCount: 2
Fore
SplineSet
406 784 m 1,0,-1
 406 729 l 1,1,-1
 300 729 l 1,2,-1
 300 -95 l 1,3,-1
 406 -95 l 1,4,-1
 406 -150 l 1,5,-1
 213 -150 l 1,6,-1
 213 784 l 1,7,-1
 406 784 l 1,0,-1
EndSplineSet
EndChar

StartChar: backslash
Encoding: 92 92 65
Width: 961
GlyphClass: 2
Flags: W
LayerCount: 2
Fore
SplineSet
780 129 m 1,0,1
 773 115 773 115 781 104 c 2,2,-1
 838 30 l 1,3,-1
 643 120 l 1,4,-1
 656 144 l 1,5,-1
 542 320 l 1,6,-1
 450 320 l 1,7,-1
 335 144 l 1,8,-1
 349 120 l 1,9,-1
 153 30 l 1,10,-1
 211 104 l 2,11,12
 219 115 219 115 212 129 c 1,13,-1
 182 320 l 1,14,-1
 27 320 l 1,15,-1
 27 360 l 1,16,-1
 176 360 l 1,17,-1
 130 649 l 1,18,-1
 256 592 l 1,19,-1
 286 360 l 1,20,-1
 380 360 l 1,21,-1
 496 529 l 1,22,-1
 611 360 l 1,23,-1
 706 360 l 1,24,-1
 735 592 l 1,25,-1
 861 649 l 1,26,-1
 816 360 l 1,27,-1
 942 360 l 1,28,-1
 942 320 l 1,29,-1
 810 320 l 1,30,-1
 780 129 l 1,0,1
477 360 m 1,31,-1
 515 360 l 1,32,-1
 496 389 l 1,33,-1
 477 360 l 1,31,-1
353 320 m 1,34,-1
 291 320 l 1,35,-1
 301 244 l 1,36,-1
 353 320 l 1,34,-1
691 244 m 1,37,-1
 701 320 l 1,38,-1
 639 320 l 1,39,-1
 691 244 l 1,37,-1
EndSplineSet
EndChar

StartChar: bracketright
Encoding: 93 93 66
Width: 446
GlyphClass: 2
Flags: W
LayerCount: 2
Fore
SplineSet
40 784 m 1,0,-1
 233 784 l 1,1,-1
 233 -150 l 1,2,-1
 40 -150 l 1,3,-1
 40 -95 l 1,4,-1
 146 -95 l 1,5,-1
 146 729 l 1,6,-1
 40 729 l 1,7,-1
 40 784 l 1,0,-1
EndSplineSet
EndChar

StartChar: asciicircum
Encoding: 94 94 67
Width: 434
GlyphClass: 2
Flags: W
LayerCount: 2
Fore
SplineSet
383 410 m 1,0,-1
 218 607 l 1,1,-1
 61 410 l 1,2,-1
 22 441 l 1,3,-1
 217 685 l 1,4,-1
 421 442 l 1,5,-1
 383 410 l 1,0,-1
EndSplineSet
EndChar

StartChar: underscore
Encoding: 95 95 68
Width: 397
GlyphClass: 2
Flags: W
LayerCount: 2
Fore
SplineSet
388 0 m 1,0,-1
 7 0 l 1,1,-1
 7 75 l 1,2,-1
 388 75 l 1,3,-1
 388 0 l 1,0,-1
EndSplineSet
EndChar

StartChar: grave
Encoding: 96 96 69
Width: 128
GlyphClass: 2
Flags: W
LayerCount: 2
Fore
SplineSet
64 666 m 1,0,-1
 69 662 l 1,1,-1
 103 644 l 1,2,-1
 96 605 l 1,3,-1
 116 475 l 1,4,-1
 31 578 l 1,5,-1
 14 625 l 1,6,-1
 64 666 l 1,0,-1
EndSplineSet
EndChar

StartChar: a
Encoding: 97 97 70
Width: 507
GlyphClass: 2
Flags: W
LayerCount: 2
Fore
SplineSet
479 -29 m 1,0,-1
 381 -29 l 2,1,2
 366 -27 366 -27 348.5 -10 c 128,-1,3
 331 7 331 7 323 28 c 1,4,5
 311 23 311 23 300 19 c 128,-1,6
 289 15 289 15 281 13 c 0,7,8
 271 10 271 10 263 9 c 0,9,10
 208 1 208 1 163 7 c 0,11,12
 143 10 143 10 124 16 c 128,-1,13
 105 22 105 22 89 33.5 c 128,-1,14
 73 45 73 45 61 62.5 c 128,-1,15
 49 80 49 80 44 105 c 0,16,17
 36 146 36 146 56 175 c 128,-1,18
 76 204 76 204 107 223.5 c 128,-1,19
 138 243 138 243 170 253.5 c 128,-1,20
 202 264 202 264 218 269 c 1,21,-1
 217 269 l 1,22,23
 236 274 236 274 256 276 c 0,24,25
 273 278 273 278 294 275 c 128,-1,26
 315 272 315 272 335 262 c 1,27,28
 334 302 334 302 329.5 327.5 c 128,-1,29
 325 353 325 353 319.5 368 c 128,-1,30
 314 383 314 383 309 390 c 128,-1,31
 304 397 304 397 302 400 c 0,32,33
 297 408 297 408 289 415 c 128,-1,34
 281 422 281 422 272 421 c 0,35,36
 227 421 227 421 185 407.5 c 128,-1,37
 143 394 143 394 109 378 c 0,38,39
 69 359 69 359 33 335 c 1,40,-1
 65 439 l 1,41,42
 150 488 150 488 210 502 c 128,-1,43
 270 516 270 516 310 504.5 c 128,-1,44
 350 493 350 493 372.5 461 c 128,-1,45
 395 429 395 429 405.5 387.5 c 128,-1,46
 416 346 416 346 417 299 c 128,-1,47
 418 252 418 252 415 210.5 c 128,-1,48
 412 169 412 169 407 138 c 128,-1,49
 402 107 402 107 400 96 c 0,50,51
 398 73 398 73 404 58.5 c 128,-1,52
 410 44 410 44 418 36 c 0,53,54
 428 26 428 26 440 21 c 1,55,-1
 461 25 l 1,56,-1
 479 -29 l 1,0,-1
256 49 m 0,57,58
 267 52 267 52 286 56 c 128,-1,59
 305 60 305 60 321 74 c 1,60,61
 330 137 330 137 333 188 c 1,62,63
 325 208 325 208 314 220 c 128,-1,64
 303 232 303 232 293 238.5 c 128,-1,65
 283 245 283 245 274.5 247 c 128,-1,66
 266 249 266 249 262 249 c 0,67,68
 227 242 227 242 196 232.5 c 128,-1,69
 165 223 165 223 143.5 208 c 128,-1,70
 122 193 122 193 111 171 c 128,-1,71
 100 149 100 149 106 119 c 0,72,73
 112 88 112 88 133 72.5 c 128,-1,74
 154 57 154 57 178.5 51 c 128,-1,75
 203 45 203 45 225.5 46 c 128,-1,76
 248 47 248 47 256 49 c 0,57,58
EndSplineSet
EndChar

StartChar: b
Encoding: 98 98 71
Width: 539
GlyphClass: 2
Flags: W
LayerCount: 2
Fore
SplineSet
202 711 m 1,0,-1
 202 406 l 1,1,-1
 309 419 l 1,2,3
 383 423 383 423 426 397.5 c 128,-1,4
 469 372 469 372 488.5 331 c 128,-1,5
 508 290 508 290 506 241.5 c 128,-1,6
 504 193 504 193 488.5 150 c 128,-1,7
 473 107 473 107 446.5 77 c 128,-1,8
 420 47 420 47 390 44 c 2,9,-1
 202 31 l 1,10,-1
 202 -29 l 1,11,-1
 31 -20 l 1,12,-1
 108 11 l 1,13,-1
 103 771 l 1,14,-1
 202 711 l 1,0,-1
330 102 m 2,15,16
 363 107 363 107 379 139 c 128,-1,17
 395 171 395 171 398 210 c 128,-1,18
 401 249 401 249 393 283.5 c 128,-1,19
 385 318 385 318 369 328 c 0,20,21
 354 337 354 337 335 340.5 c 128,-1,22
 316 344 316 344 299 346 c 0,23,24
 279 348 279 348 258 347 c 2,25,-1
 202 345 l 1,26,-1
 202 97 l 1,27,-1
 330 102 l 2,15,16
EndSplineSet
EndChar

StartChar: c
Encoding: 99 99 72
Width: 468
GlyphClass: 2
Flags: W
LayerCount: 2
Fore
SplineSet
382 381 m 1,0,1
 311 392 311 392 256 382 c 0,2,3
 232 377 232 377 209.5 368 c 128,-1,4
 187 359 187 359 169.5 342 c 128,-1,5
 152 325 152 325 141 300 c 128,-1,6
 130 275 130 275 130 239 c 0,7,8
 130 187 130 187 150.5 155.5 c 128,-1,9
 171 124 171 124 201 106 c 128,-1,10
 231 88 231 88 264.5 81.5 c 128,-1,11
 298 75 298 75 325 74 c 1,12,-1
 374 108 l 1,13,-1
 374 -3 l 1,14,15
 278 -21 278 -21 203 -3 c 0,16,17
 171 4 171 4 140 20.5 c 128,-1,18
 109 37 109 37 85 65.5 c 128,-1,19
 61 94 61 94 46.5 136.5 c 128,-1,20
 32 179 32 179 32 239 c 256,21,22
 32 299 32 299 49.5 340.5 c 128,-1,23
 67 382 67 382 96.5 409.5 c 128,-1,24
 126 437 126 437 163 451.5 c 128,-1,25
 200 466 200 466 239 472 c 0,26,27
 330 486 330 486 446 464 c 1,28,-1
 382 381 l 1,29,-1
 382 381 l 1,0,1
EndSplineSet
EndChar

StartChar: d
Encoding: 100 100 73
Width: 526
GlyphClass: 2
Flags: W
LayerCount: 2
Fore
SplineSet
431 767 m 1,0,-1
 426 13 l 1,1,-1
 503 -17 l 1,2,-1
 333 -26 l 1,3,-1
 333 34 l 1,4,-1
 147 46 l 2,5,6
 117 49 117 49 90.5 79 c 128,-1,7
 64 109 64 109 48.5 152 c 128,-1,8
 33 195 33 195 31.5 243 c 128,-1,9
 30 291 30 291 48.5 331.5 c 128,-1,10
 67 372 67 372 110 397.5 c 128,-1,11
 153 423 153 423 226 419 c 1,12,-1
 333 406 l 1,13,-1
 333 708 l 1,14,-1
 431 767 l 1,0,-1
167 329 m 0,15,16
 156 323 156 323 149 304.5 c 128,-1,17
 142 286 142 286 139 262 c 128,-1,18
 136 238 136 238 138 211.5 c 128,-1,19
 140 185 140 185 148 162.5 c 128,-1,20
 156 140 156 140 170 123.5 c 128,-1,21
 184 107 184 107 206 104 c 2,22,-1
 333 99 l 1,23,-1
 333 345 l 1,24,-1
 277 347 l 2,25,26
 257 349 257 349 237 347 c 0,27,28
 220 345 220 345 200.5 341 c 128,-1,29
 181 337 181 337 167 329 c 0,15,16
EndSplineSet
EndChar

StartChar: e
Encoding: 101 101 74
Width: 590
GlyphClass: 2
Flags: W
LayerCount: 2
Fore
SplineSet
315 404 m 0,0,1
 286 403 286 403 253 396 c 128,-1,2
 220 389 220 389 192.5 370.5 c 128,-1,3
 165 352 165 352 147 317.5 c 128,-1,4
 129 283 129 283 129 227 c 0,5,6
 129 188 129 188 140.5 159 c 128,-1,7
 152 130 152 130 171.5 110 c 128,-1,8
 191 90 191 90 215.5 77.5 c 128,-1,9
 240 65 240 65 266 58 c 0,10,11
 327 41 327 41 404 46 c 1,12,-1
 484 -34 l 1,13,14
 354 -54 354 -54 253 -35 c 0,15,16
 210 -27 210 -27 168.5 -10 c 128,-1,17
 127 7 127 7 95 38 c 128,-1,18
 63 69 63 69 43 115 c 128,-1,19
 23 161 23 161 23 227 c 256,20,21
 23 293 23 293 39 339.5 c 128,-1,22
 55 386 55 386 81 417.5 c 128,-1,23
 107 449 107 449 140 467 c 128,-1,24
 173 485 173 485 208 494 c 0,25,26
 290 515 290 515 394 499 c 0,27,28
 434 493 434 493 462.5 478 c 128,-1,29
 491 463 491 463 510.5 441.5 c 128,-1,30
 530 420 530 420 541.5 394.5 c 128,-1,31
 553 369 553 369 559 344 c 0,32,33
 573 284 573 284 565 211 c 1,34,-1
 212 211 l 1,35,-1
 179 280 l 1,36,-1
 481 280 l 1,37,38
 475 313 475 313 455 339 c 0,39,40
 438 361 438 361 404.5 381 c 128,-1,41
 371 401 371 401 315 404 c 0,0,1
EndSplineSet
EndChar

StartChar: f
Encoding: 102 102 75
Width: 532
GlyphClass: 2
Flags: W
LayerCount: 2
Fore
SplineSet
243 353 m 1,0,-1
 378 353 l 1,1,-1
 343 295 l 1,2,-1
 243 295 l 1,3,-1
 243 -89 l 1,4,-1
 265 -114 l 1,5,-1
 129 -114 l 1,6,-1
 156 -89 l 1,7,8
 156 -71 156 -71 155.5 -29.5 c 128,-1,9
 155 12 155 12 154.5 65.5 c 128,-1,10
 154 119 154 119 153 179 c 128,-1,11
 152 239 152 239 152 295 c 1,12,-1
 20 295 l 1,13,-1
 62 353 l 1,14,-1
 152 353 l 1,15,16
 152 403 152 403 153 439 c 128,-1,17
 154 475 154 475 156 488 c 0,18,19
 166 549 166 549 186.5 587 c 128,-1,20
 207 625 207 625 233.5 645.5 c 128,-1,21
 260 666 260 666 290.5 671.5 c 128,-1,22
 321 677 321 677 351 674 c 0,23,24
 422 666 422 666 506 615 c 1,25,-1
 510 518 l 1,26,27
 444 565 444 565 394 574.5 c 128,-1,28
 344 584 344 584 310.5 569 c 128,-1,29
 277 554 277 554 260.5 522 c 128,-1,30
 244 490 244 490 244 456 c 0,31,32
 244 450 244 450 243.5 446 c 128,-1,33
 243 442 243 442 243 439 c 2,34,-1
 243 433 l 1,35,-1
 243 353 l 1,0,-1
EndSplineSet
EndChar

StartChar: g
Encoding: 103 103 76
Width: 553
GlyphClass: 2
Flags: W
LayerCount: 2
Fore
SplineSet
518 144 m 2,0,1
 518 48 518 48 508.5 -18 c 128,-1,2
 499 -84 499 -84 483.5 -127 c 128,-1,3
 468 -170 468 -170 449 -194.5 c 128,-1,4
 430 -219 430 -219 410.5 -231 c 128,-1,5
 391 -243 391 -243 374 -247 c 128,-1,6
 357 -251 357 -251 346 -253 c 0,7,8
 288 -265 288 -265 235 -262 c 0,9,10
 212 -261 212 -261 188 -256.5 c 128,-1,11
 164 -252 164 -252 141.5 -242.5 c 128,-1,12
 119 -233 119 -233 98.5 -218 c 128,-1,13
 78 -203 78 -203 63 -180 c 0,14,15
 54 -167 54 -167 47 -148 c 128,-1,16
 40 -129 40 -129 37.5 -105.5 c 128,-1,17
 35 -82 35 -82 39.5 -54.5 c 128,-1,18
 44 -27 44 -27 58 2 c 1,19,-1
 141 14 l 1,20,-1
 131 -4 l 2,21,22
 121 -27 121 -27 115 -47 c 0,23,24
 110 -65 110 -65 108 -83.5 c 128,-1,25
 106 -102 106 -102 113 -115 c 0,26,27
 138 -166 138 -166 170 -176 c 0,28,29
 228 -194 228 -194 270 -189.5 c 128,-1,30
 312 -185 312 -185 341.5 -165.5 c 128,-1,31
 371 -146 371 -146 388.5 -115.5 c 128,-1,32
 406 -85 406 -85 416 -50 c 0,33,34
 439 31 439 31 429 147 c 1,35,-1
 429 181 l 1,36,37
 409 162 409 162 388 153 c 128,-1,38
 367 144 367 144 349 140 c 0,39,40
 328 136 328 136 308 136 c 0,41,42
 257 135 257 135 217 159 c 0,43,44
 200 169 200 169 183.5 185 c 128,-1,45
 167 201 167 201 154 225.5 c 128,-1,46
 141 250 141 250 133.5 283.5 c 128,-1,47
 126 317 126 317 126 362 c 256,48,49
 126 407 126 407 134.5 441.5 c 128,-1,50
 143 476 143 476 157 501.5 c 128,-1,51
 171 527 171 527 188.5 544.5 c 128,-1,52
 206 562 206 562 225 573 c 0,53,54
 268 599 268 599 324 602 c 0,55,56
 339 603 339 603 368 597 c 128,-1,57
 397 591 397 591 425 566 c 1,58,-1
 425 636 l 1,59,-1
 380 657 l 1,60,-1
 510 700 l 1,61,-1
 513 634 l 1,62,-1
 518 144 l 2,0,1
310 207 m 256,63,64
 320 208 320 208 339.5 209 c 128,-1,65
 359 210 359 210 378.5 223 c 128,-1,66
 398 236 398 236 412 267.5 c 128,-1,67
 426 299 426 299 426 362 c 0,68,69
 426 419 426 419 417.5 454.5 c 128,-1,70
 409 490 409 490 398 511 c 128,-1,71
 387 532 387 532 376 540.5 c 128,-1,72
 365 549 365 549 359 551 c 0,73,74
 319 551 319 551 289 542.5 c 128,-1,75
 259 534 259 534 238.5 513 c 128,-1,76
 218 492 218 492 208 456.5 c 128,-1,77
 198 421 198 421 198 366 c 256,78,79
 198 311 198 311 212 279 c 128,-1,80
 226 247 226 247 244.5 230.5 c 128,-1,81
 263 214 263 214 281.5 210 c 128,-1,82
 300 206 300 206 310 207 c 256,63,64
EndSplineSet
EndChar

StartChar: h
Encoding: 104 104 77
Width: 557
GlyphClass: 2
Flags: W
LayerCount: 2
Fore
SplineSet
531 -16 m 1,0,-1
 401 43 l 1,1,-1
 355 402 l 1,2,-1
 226 323 l 1,3,-1
 224 -15 l 1,4,-1
 102 -15 l 1,5,-1
 98 821 l 1,6,7
 103 837 103 837 94 847 c 2,8,-1
 26 916 l 1,9,-1
 237 848 l 1,10,-1
 227 822 l 1,11,-1
 226 449 l 1,12,-1
 447 559 l 1,13,-1
 531 -16 l 1,0,-1
EndSplineSet
EndChar

StartChar: i
Encoding: 105 105 78
Width: 282
GlyphClass: 2
Flags: W
LayerCount: 2
Fore
SplineSet
96 432 m 1,0,-1
 35 499 l 1,1,-1
 257 499 l 1,2,-1
 192 464 l 1,3,-1
 188 67 l 1,4,-1
 250 0 l 1,5,-1
 28 0 l 1,6,-1
 93 35 l 1,7,-1
 96 432 l 1,0,-1
224 612 m 1,8,-1
 156 535 l 1,9,-1
 62 576 l 1,10,-1
 72 678 l 1,11,-1
 172 700 l 1,12,-1
 224 612 l 1,8,-1
EndSplineSet
EndChar

StartChar: j
Encoding: 106 106 79
Width: 363
GlyphClass: 2
Flags: W
LayerCount: 2
Fore
SplineSet
271 509 m 1,0,-1
 276 308 l 2,1,2
 276 204 276 204 260.5 138.5 c 128,-1,3
 245 73 245 73 223 35.5 c 128,-1,4
 201 -2 201 -2 176.5 -17 c 128,-1,5
 152 -32 152 -32 134 -36 c 0,6,7
 126 -38 126 -38 122 -38 c 2,8,-1
 64 -48 l 1,9,-1
 36 15 l 1,10,-1
 57 76 l 1,11,-1
 73 37 l 1,12,13
 95 38 95 38 111.5 51 c 128,-1,14
 128 64 128 64 140 83.5 c 128,-1,15
 152 103 152 103 159 127.5 c 128,-1,16
 166 152 166 152 171 177 c 0,17,18
 182 236 182 236 180 311 c 2,19,-1
 175 510 l 1,20,-1
 126 534 l 1,21,-1
 317 562 l 1,22,-1
 271 509 l 1,0,-1
308 665 m 1,23,-1
 244 594 l 1,24,-1
 157 632 l 1,25,-1
 166 727 l 1,26,-1
 259 748 l 1,27,-1
 308 665 l 1,23,-1
EndSplineSet
EndChar

StartChar: k
Encoding: 107 107 80
Width: 578
GlyphClass: 2
Flags: W
LayerCount: 2
Fore
SplineSet
161 237 m 1,0,-1
 160 1 l 1,1,-1
 73 1 l 1,2,-1
 72 678 l 2,3,4
 74 683 74 683 72 687.5 c 128,-1,5
 70 692 70 692 67 696 c 2,6,-1
 18 745 l 1,7,-1
 169 696 l 1,8,-1
 162 695 l 1,9,-1
 161 354 l 1,10,-1
 438 569 l 1,11,-1
 561 569 l 1,12,-1
 324 348 l 1,13,-1
 494 0 l 1,14,-1
 401 0 l 1,15,-1
 254 300 l 1,16,-1
 161 237 l 1,0,-1
EndSplineSet
EndChar

StartChar: l
Encoding: 108 108 81
Width: 228
GlyphClass: 2
Flags: W
LayerCount: 2
Fore
SplineSet
96 28 m 1,0,-1
 94 598 l 1,1,-1
 21 589 l 1,2,-1
 206 700 l 1,3,-1
 172 625 l 1,4,-1
 176 28 l 1,5,-1
 199 0 l 1,6,-1
 71 0 l 1,7,-1
 96 28 l 1,0,-1
EndSplineSet
EndChar

StartChar: m
Encoding: 109 109 82
Width: 936
GlyphClass: 2
Flags: W
LayerCount: 2
Fore
SplineSet
888 -4 m 1,0,-1
 746 61 l 1,1,-1
 696 454 l 1,2,-1
 529 352 l 1,3,-1
 581 -4 l 1,4,-1
 438 61 l 1,5,-1
 388 454 l 1,6,-1
 246 368 l 1,7,-1
 244 -3 l 1,8,-1
 111 -3 l 1,9,-1
 131 592 l 1,10,11
 138 608 138 608 126 620 c 2,12,-1
 52 695 l 1,13,-1
 284 621 l 1,14,-1
 272 592 l 1,15,-1
 254 509 l 1,16,-1
 489 626 l 1,17,-1
 508 493 l 1,18,-1
 657 568 l 1,19,-1
 642 594 l 1,20,-1
 863 696 l 1,21,-1
 798 613 l 2,22,23
 793 607 793 607 793 599 c 128,-1,24
 793 591 793 591 797 584 c 2,25,-1
 888 -4 l 1,0,-1
EndSplineSet
EndChar

StartChar: n
Encoding: 110 110 83
Width: 619
GlyphClass: 2
Flags: W
LayerCount: 2
Fore
SplineSet
576 0 m 1,0,-1
 434 65 l 1,1,-1
 384 459 l 1,2,-1
 241 372 l 1,3,-1
 240 1 l 1,4,-1
 106 1 l 1,5,-1
 126 596 l 1,6,7
 133 613 133 613 121 625 c 2,8,-1
 47 700 l 1,9,-1
 279 626 l 1,10,-1
 267 597 l 1,11,-1
 249 514 l 1,12,-1
 485 631 l 1,13,-1
 576 0 l 1,0,-1
EndSplineSet
EndChar

StartChar: o
Encoding: 111 111 84
Width: 591
GlyphClass: 2
Flags: W
LayerCount: 2
Fore
SplineSet
324 445 m 1,0,1
 340 445 340 445 362.5 442 c 128,-1,2
 385 439 385 439 409.5 430 c 128,-1,3
 434 421 434 421 458 404.5 c 128,-1,4
 482 388 482 388 501 360.5 c 128,-1,5
 520 333 520 333 532 293 c 128,-1,6
 544 253 544 253 544 197 c 0,7,8
 544 150 544 150 533 115.5 c 128,-1,9
 522 81 522 81 504.5 56 c 128,-1,10
 487 31 487 31 464.5 14 c 128,-1,11
 442 -3 442 -3 418 -13 c 0,12,13
 363 -38 363 -38 292 -37 c 0,14,15
 221 -38 221 -38 166 -13 c 0,16,17
 142 -3 142 -3 119.5 13.5 c 128,-1,18
 97 30 97 30 79.5 55.5 c 128,-1,19
 62 81 62 81 51.5 115.5 c 128,-1,20
 41 150 41 150 41 197 c 0,21,22
 41 273 41 273 68.5 320 c 128,-1,23
 96 367 96 367 133.5 393 c 128,-1,24
 171 419 171 419 211 429.5 c 128,-1,25
 251 440 251 440 275 442 c 1,26,-1
 243 476 l 1,27,-1
 321 451 l 1,28,-1
 324 445 l 1,0,1
233 27 m 0,29,30
 242 24 242 24 262.5 23 c 128,-1,31
 283 22 283 22 307.5 26.5 c 128,-1,32
 332 31 332 31 358 42 c 128,-1,33
 384 53 384 53 405.5 73 c 128,-1,34
 427 93 427 93 441 123.5 c 128,-1,35
 455 154 455 154 455 197 c 0,36,37
 455 259 455 259 441.5 297 c 128,-1,38
 428 335 428 335 411 356 c 128,-1,39
 394 377 394 377 378 384.5 c 128,-1,40
 362 392 362 392 357 393 c 0,41,42
 302 393 302 393 261.5 384 c 128,-1,43
 221 375 221 375 194 353 c 128,-1,44
 167 331 167 331 153.5 294 c 128,-1,45
 140 257 140 257 140 201 c 0,46,47
 140 144 140 144 150 110.5 c 128,-1,48
 160 77 160 77 174.5 60 c 128,-1,49
 189 43 189 43 205 36.5 c 128,-1,50
 221 30 221 30 233 27 c 0,29,30
EndSplineSet
EndChar

StartChar: p
Encoding: 112 112 85
Width: 522
GlyphClass: 2
Flags: W
LayerCount: 2
Fore
SplineSet
385 442 m 2,0,1
 415 439 415 439 441.5 409 c 128,-1,2
 468 379 468 379 483.5 336 c 128,-1,3
 499 293 499 293 500.5 244 c 128,-1,4
 502 195 502 195 483 154.5 c 128,-1,5
 464 114 464 114 421 88.5 c 128,-1,6
 378 63 378 63 304 67 c 1,7,-1
 197 81 l 1,8,-1
 197 -224 l 1,9,-1
 253 -275 l 1,10,-1
 45 -275 l 1,11,-1
 99 -224 l 1,12,-1
 104 475 l 1,13,-1
 27 505 l 1,14,-1
 197 514 l 1,15,-1
 197 454 l 1,16,-1
 385 442 l 2,0,1
364 158 m 0,17,18
 375 164 375 164 382 182.5 c 128,-1,19
 389 201 389 201 392 225 c 128,-1,20
 395 249 395 249 393 275.5 c 128,-1,21
 391 302 391 302 383 324.5 c 128,-1,22
 375 347 375 347 361 363.5 c 128,-1,23
 347 380 347 380 325 383 c 2,24,-1
 197 389 l 1,25,-1
 197 142 l 1,26,-1
 253 139 l 2,27,28
 274 137 274 137 294 139 c 0,29,30
 311 141 311 141 330 145 c 128,-1,31
 349 149 349 149 364 158 c 0,17,18
EndSplineSet
EndChar

StartChar: q
Encoding: 113 113 86
Width: 477
GlyphClass: 2
Flags: W
LayerCount: 2
Fore
SplineSet
439 -276 m 1,0,-1
 224 -276 l 1,1,-1
 281 -221 l 1,2,-1
 281 121 l 1,3,-1
 216 107 l 1,4,5
 154 108 154 108 115 132.5 c 128,-1,6
 76 157 76 157 56 194 c 128,-1,7
 36 231 36 231 34 274 c 128,-1,8
 32 317 32 317 43.5 354.5 c 128,-1,9
 55 392 55 392 78.5 418.5 c 128,-1,10
 102 445 102 445 133 448 c 2,11,-1
 281 461 l 1,12,-1
 281 523 l 1,13,-1
 457 514 l 1,14,-1
 377 482 l 1,15,-1
 382 -221 l 1,16,-1
 439 -276 l 1,0,-1
281 184 m 1,17,-1
 281 393 l 1,18,-1
 194 388 l 2,19,20
 161 383 161 383 144 357 c 128,-1,21
 127 331 127 331 124 299.5 c 128,-1,22
 121 268 121 268 129 239.5 c 128,-1,23
 137 211 137 211 154 201 c 0,24,25
 169 192 169 192 182 188 c 128,-1,26
 195 184 195 184 204 182 c 0,27,28
 215 180 215 180 223 181 c 2,29,-1
 281 184 l 1,17,-1
EndSplineSet
EndChar

StartChar: r
Encoding: 114 114 87
Width: 438
GlyphClass: 2
Flags: W
LayerCount: 2
Fore
SplineSet
195 461 m 0,0,1
 235 474 235 474 275 471 c 0,2,3
 309 469 309 469 346 450 c 128,-1,4
 383 431 383 431 412 380 c 1,5,-1
 387 301 l 1,6,7
 364 345 364 345 344 368 c 128,-1,8
 324 391 324 391 302.5 399.5 c 128,-1,9
 281 408 281 408 257.5 406 c 128,-1,10
 234 404 234 404 206 398 c 0,11,12
 201 396 201 396 189.5 390 c 128,-1,13
 178 384 178 384 167 368 c 128,-1,14
 156 352 156 352 147.5 323 c 128,-1,15
 139 294 139 294 139 245 c 2,16,-1
 137 84 l 1,17,-1
 137 2 l 1,18,-1
 60 0 l 1,19,-1
 67 464 l 1,20,-1
 35 528 l 1,21,-1
 141 508 l 1,22,-1
 140 422 l 1,23,24
 152 433 152 433 159.5 439.5 c 128,-1,25
 167 446 167 446 172.5 450 c 128,-1,26
 178 454 178 454 182.5 456 c 128,-1,27
 187 458 187 458 195 461 c 0,0,1
EndSplineSet
EndChar

StartChar: s
Encoding: 115 115 88
Width: 435
GlyphClass: 2
Flags: W
LayerCount: 2
Fore
SplineSet
296 226 m 0,0,1
 342 202 342 202 367 175.5 c 128,-1,2
 392 149 392 149 400 122.5 c 128,-1,3
 408 96 408 96 401.5 70.5 c 128,-1,4
 395 45 395 45 379 23 c 0,5,6
 368 12 368 12 356 2 c 128,-1,7
 344 -8 344 -8 328 -15.5 c 128,-1,8
 312 -23 312 -23 291.5 -27 c 128,-1,9
 271 -31 271 -31 242 -29 c 0,10,11
 183 -24 183 -24 140.5 -4 c 128,-1,12
 98 16 98 16 56 47 c 1,13,-1
 40 56 l 1,14,-1
 114 117 l 1,15,-1
 97 94 l 1,16,17
 141 63 141 63 183 47 c 0,18,19
 201 40 201 40 220 36 c 128,-1,20
 239 32 239 32 257.5 33 c 128,-1,21
 276 34 276 34 293 41 c 128,-1,22
 310 48 310 48 324 65 c 0,23,24
 344 99 344 99 316.5 133.5 c 128,-1,25
 289 168 289 168 236 197 c 0,26,27
 210 213 210 213 183 228.5 c 128,-1,28
 156 244 156 244 135 264.5 c 128,-1,29
 114 285 114 285 103.5 313.5 c 128,-1,30
 93 342 93 342 101 384 c 1,31,32
 108 399 108 399 122.5 418.5 c 128,-1,33
 137 438 137 438 166 448.5 c 128,-1,34
 195 459 195 459 242.5 454 c 128,-1,35
 290 449 290 449 362 415 c 1,36,-1
 379 405 l 1,37,-1
 377 322 l 1,38,-1
 365 344 l 1,39,40
 358 348 358 348 343 357 c 128,-1,41
 328 366 328 366 308 374.5 c 128,-1,42
 288 383 288 383 265.5 390 c 128,-1,43
 243 397 243 397 222 396.5 c 128,-1,44
 201 396 201 396 184 387 c 128,-1,45
 167 378 167 378 157 355 c 0,46,47
 155 343 155 343 159.5 331.5 c 128,-1,48
 164 320 164 320 173.5 308.5 c 128,-1,49
 183 297 183 297 195.5 286.5 c 128,-1,50
 208 276 208 276 222 267 c 0,51,52
 254 245 254 245 296 226 c 0,0,1
EndSplineSet
EndChar

StartChar: t
Encoding: 116 116 89
Width: 443
GlyphClass: 2
Flags: W
LayerCount: 2
Fore
SplineSet
256 290 m 1,0,1
 255 230 255 230 263 182 c 0,2,3
 266 162 266 162 272 142 c 128,-1,4
 278 122 278 122 287.5 106.5 c 128,-1,5
 297 91 297 91 310.5 80.5 c 128,-1,6
 324 70 324 70 342 69 c 1,7,-1
 394 102 l 1,8,-1
 373 51 l 1,9,-1
 350 0 l 1,10,-1
 303 8 l 2,11,12
 301 8 301 8 293 10 c 0,13,14
 278 13 278 13 258.5 25.5 c 128,-1,15
 239 38 239 38 221.5 68 c 128,-1,16
 204 98 204 98 191.5 151 c 128,-1,17
 179 204 179 204 179 288 c 2,18,-1
 180 339 l 1,19,-1
 26 339 l 1,20,-1
 63 377 l 1,21,-1
 181 377 l 1,22,-1
 183 450 l 1,23,-1
 286 487 l 1,24,-1
 260 451 l 1,25,-1
 258 377 l 1,26,-1
 416 377 l 1,27,-1
 385 339 l 1,28,-1
 257 339 l 1,29,-1
 256 290 l 1,30,-1
 256 290 l 1,0,1
EndSplineSet
EndChar

StartChar: u
Encoding: 117 117 90
Width: 633
GlyphClass: 2
Flags: W
LayerCount: 2
Fore
SplineSet
30 583 m 1,0,-1
 159 525 l 1,1,-1
 204 169 l 1,2,-1
 421 249 l 1,3,-1
 423 584 l 1,4,-1
 543 584 l 1,5,-1
 525 47 l 2,6,7
 523 40 523 40 523.5 33 c 128,-1,8
 524 26 524 26 529 21 c 2,9,-1
 597 -47 l 1,10,-1
 387 20 l 1,11,-1
 398 46 l 1,12,-1
 426 179 l 1,13,-1
 305 62 l 1,14,-1
 113 14 l 1,15,-1
 30 583 l 1,0,-1
EndSplineSet
EndChar

StartChar: v
Encoding: 118 118 91
Width: 517
GlyphClass: 2
Flags: W
LayerCount: 2
Fore
SplineSet
340 61 m 1,0,-1
 226 12 l 1,1,2
 230 26 230 26 220 34 c 1,3,-1
 10 460 l 1,4,-1
 128 445 l 1,5,-1
 260 157 l 1,6,-1
 389 454 l 1,7,-1
 502 460 l 1,8,-1
 323 80 l 1,9,-1
 340 63 l 1,10,-1
 340 61 l 1,0,-1
EndSplineSet
EndChar

StartChar: w
Encoding: 119 119 92
Width: 630
GlyphClass: 2
Flags: W
LayerCount: 2
Fore
SplineSet
19 492 m 1,0,-1
 119 446 l 1,1,-1
 154 170 l 1,2,-1
 309 396 l 1,3,-1
 464 170 l 1,4,-1
 499 446 l 1,5,-1
 599 492 l 1,6,-1
 535 79 l 2,7,8
 530 67 530 67 536 59 c 2,9,-1
 581 0 l 1,10,-1
 426 72 l 1,11,-1
 437 90 l 1,12,-1
 309 285 l 1,13,-1
 182 90 l 1,14,-1
 192 72 l 1,15,-1
 37 0 l 1,16,-1
 83 59 l 2,17,18
 90 67 90 67 83 79 c 1,19,-1
 19 492 l 1,0,-1
EndSplineSet
EndChar

StartChar: x
Encoding: 120 120 93
Width: 474
GlyphClass: 2
Flags: W
LayerCount: 2
Fore
SplineSet
432 57 m 1,0,-1
 437 0 l 1,1,-1
 349 6 l 1,2,-1
 233 178 l 1,3,-1
 117 6 l 1,4,-1
 29 0 l 1,5,-1
 34 57 l 1,6,-1
 52 35 l 1,7,-1
 190 242 l 1,8,-1
 29 482 l 1,9,-1
 121 476 l 1,10,-1
 233 307 l 1,11,-1
 346 476 l 1,12,-1
 437 482 l 1,13,-1
 276 242 l 1,14,-1
 414 35 l 1,15,-1
 432 57 l 1,0,-1
EndSplineSet
EndChar

StartChar: y
Encoding: 121 121 94
Width: 558
GlyphClass: 2
Flags: W
LayerCount: 2
Fore
SplineSet
228 -157 m 1,0,-1
 165 -228 l 1,1,-1
 79 -138 l 1,2,-1
 156 -162 l 1,3,-1
 242 52 l 1,4,-1
 25 472 l 1,5,-1
 141 456 l 1,6,-1
 309 159 l 1,7,-1
 473 466 l 1,8,-1
 534 472 l 1,9,-1
 228 -157 l 1,0,-1
EndSplineSet
EndChar

StartChar: z
Encoding: 122 122 95
Width: 473
GlyphClass: 2
Flags: W
LayerCount: 2
Fore
SplineSet
448 481 m 1,0,-1
 404 410 l 1,1,-1
 178 82 l 1,2,-1
 393 85 l 1,3,-1
 424 119 l 1,4,-1
 411 5 l 1,5,-1
 98 -1 l 1,6,-1
 27 -2 l 1,7,-1
 80 80 l 1,8,-1
 297 409 l 1,9,-1
 92 404 l 1,10,-1
 60 370 l 1,11,-1
 73 476 l 1,12,-1
 92 476 l 1,13,-1
 386 481 l 1,14,-1
 448 481 l 1,0,-1
EndSplineSet
EndChar

StartChar: braceleft
Encoding: 123 123 96
Width: 446
GlyphClass: 2
Flags: W
LayerCount: 2
Fore
SplineSet
235 334 m 1,0,1
 270 320 270 320 295.5 291 c 128,-1,2
 321 262 321 262 321 214 c 2,3,-1
 321 -34 l 2,4,5
 321 -76 321 -76 334 -88 c 128,-1,6
 347 -100 347 -100 375 -101 c 2,7,-1
 406 -101 l 1,8,-1
 406 -155 l 1,9,-1
 346 -155 l 2,10,11
 292 -155 292 -155 263 -129 c 128,-1,12
 234 -103 234 -103 234 -40 c 2,13,-1
 234 192 l 2,14,15
 234 242 234 242 215.5 275 c 128,-1,16
 197 308 197 308 147 315 c 1,17,-1
 147 353 l 1,18,19
 197 360 197 360 215.5 393 c 128,-1,20
 234 426 234 426 234 476 c 2,21,-1
 234 674 l 2,22,23
 234 737 234 737 263 763 c 128,-1,24
 292 789 292 789 346 789 c 2,25,-1
 406 789 l 1,26,-1
 406 735 l 1,27,-1
 375 735 l 2,28,29
 347 734 347 734 334 722 c 128,-1,30
 321 710 321 710 321 668 c 2,31,-1
 321 454 l 2,32,33
 321 406 321 406 295.5 377 c 128,-1,34
 270 348 270 348 235 334 c 1,0,1
EndSplineSet
EndChar

StartChar: bar
Encoding: 124 124 97
Width: 446
GlyphClass: 2
Flags: W
LayerCount: 2
Fore
SplineSet
185 -150 m 1,0,-1
 185 784 l 1,1,-1
 261 784 l 1,2,-1
 261 -150 l 1,3,-1
 185 -150 l 1,0,-1
EndSplineSet
EndChar

StartChar: braceright
Encoding: 125 125 98
Width: 446
GlyphClass: 2
Flags: W
LayerCount: 2
Fore
SplineSet
211 334 m 1,0,1
 176 348 176 348 150.5 377 c 128,-1,2
 125 406 125 406 125 454 c 2,3,-1
 125 668 l 2,4,5
 125 710 125 710 112 722 c 128,-1,6
 99 734 99 734 71 735 c 2,7,-1
 40 735 l 1,8,-1
 40 789 l 1,9,-1
 100 789 l 2,10,11
 154 789 154 789 183 763 c 128,-1,12
 212 737 212 737 212 674 c 2,13,-1
 212 476 l 2,14,15
 212 426 212 426 230.5 393 c 128,-1,16
 249 360 249 360 299 353 c 1,17,-1
 299 315 l 1,18,19
 249 308 249 308 230.5 275 c 128,-1,20
 212 242 212 242 212 192 c 2,21,-1
 212 -40 l 2,22,23
 212 -103 212 -103 183 -129 c 128,-1,24
 154 -155 154 -155 100 -155 c 2,25,-1
 40 -155 l 1,26,-1
 40 -101 l 1,27,-1
 71 -101 l 2,28,29
 99 -100 99 -100 112 -88 c 128,-1,30
 125 -76 125 -76 125 -34 c 2,31,-1
 125 214 l 2,32,33
 125 262 125 262 150.5 291 c 128,-1,34
 176 320 176 320 211 334 c 1,0,1
EndSplineSet
EndChar

StartChar: asciitilde
Encoding: 126 126 99
Width: 669
GlyphClass: 2
Flags: W
LayerCount: 2
Fore
SplineSet
328 317 m 0,0,1
 301 339 301 339 279.5 350.5 c 128,-1,2
 258 362 258 362 227 362 c 0,3,4
 197 362 197 362 170.5 342.5 c 128,-1,5
 144 323 144 323 127 290 c 0,6,7
 124 284 124 284 120 284.5 c 128,-1,8
 116 285 116 285 116 293 c 2,9,-1
 116 381 l 1,10,11
 134 410 134 410 166 427 c 128,-1,12
 198 444 198 444 234 444 c 0,13,14
 293 444 293 444 340 406 c 0,15,16
 367 384 367 384 388.5 372.5 c 128,-1,17
 410 361 410 361 441 361 c 0,18,19
 471 361 471 361 497.5 380.5 c 128,-1,20
 524 400 524 400 541 433 c 0,21,22
 544 439 544 439 548 438.5 c 128,-1,23
 552 438 552 438 552 430 c 2,24,-1
 552 342 l 1,25,26
 534 313 534 313 502 296 c 128,-1,27
 470 279 470 279 434 279 c 0,28,29
 375 279 375 279 328 317 c 0,0,1
EndSplineSet
EndChar

StartChar: periodcentered
Encoding: 183 183 100
Width: 446
GlyphClass: 2
Flags: W
LayerCount: 2
Fore
SplineSet
223 436 m 256,0,1
 254 436 254 436 273.5 416.5 c 128,-1,2
 293 397 293 397 293 367 c 256,3,4
 293 337 293 337 273.5 317.5 c 128,-1,5
 254 298 254 298 223 298 c 256,6,7
 192 298 192 298 172.5 317.5 c 128,-1,8
 153 337 153 337 153 367 c 256,9,10
 153 397 153 397 172.5 416.5 c 128,-1,11
 192 436 192 436 223 436 c 256,0,1
EndSplineSet
EndChar

StartChar: quoteleft
Encoding: 8216 8216 101
Width: 303
GlyphClass: 2
Flags: W
LayerCount: 2
Fore
SplineSet
268 618 m 0,0,1
 268 591 268 591 249 572.5 c 128,-1,2
 230 554 230 554 198 554 c 256,3,4
 166 554 166 554 146 578.5 c 128,-1,5
 126 603 126 603 126 638 c 0,6,7
 126 669 126 669 136 697 c 128,-1,8
 146 725 146 725 163.5 748 c 128,-1,9
 181 771 181 771 204.5 788.5 c 128,-1,10
 228 806 228 806 255 816 c 1,11,-1
 273 778 l 1,12,13
 244 766 244 766 223.5 745 c 128,-1,14
 203 724 203 724 196 698 c 0,15,16
 192 684 192 684 194.5 680 c 128,-1,17
 197 676 197 676 209 676 c 0,18,19
 232 676 232 676 250 659 c 128,-1,20
 268 642 268 642 268 618 c 0,0,1
EndSplineSet
EndChar

StartChar: quoteright
Encoding: 8217 8217 102
Width: 303
GlyphClass: 2
Flags: W
LayerCount: 2
Fore
SplineSet
32 724 m 0,0,1
 32 751 32 751 50.5 769.5 c 128,-1,2
 69 788 69 788 102 788 c 0,3,4
 134 788 134 788 154 763.5 c 128,-1,5
 174 739 174 739 174 704 c 0,6,7
 174 673 174 673 164 644.5 c 128,-1,8
 154 616 154 616 136.5 593 c 128,-1,9
 119 570 119 570 95.5 552.5 c 128,-1,10
 72 535 72 535 45 526 c 1,11,-1
 27 564 l 1,12,13
 56 575 56 575 76 596.5 c 128,-1,14
 96 618 96 618 104 644 c 0,15,16
 107 656 107 656 104.5 661 c 128,-1,17
 102 666 102 666 91 666 c 0,18,19
 68 666 68 666 50 683.5 c 128,-1,20
 32 701 32 701 32 724 c 0,0,1
EndSplineSet
EndChar

StartChar: quotedblleft
Encoding: 8220 8220 103
Width: 446
GlyphClass: 2
Flags: W
LayerCount: 2
Fore
SplineSet
252 617 m 0,0,1
 252 591 252 591 234 572.5 c 128,-1,2
 216 554 216 554 184 554 c 256,3,4
 152 554 152 554 132.5 578 c 128,-1,5
 113 602 113 602 113 637 c 0,6,7
 113 667 113 667 123 694.5 c 128,-1,8
 133 722 133 722 150 744.5 c 128,-1,9
 167 767 167 767 190 784 c 128,-1,10
 213 801 213 801 239 811 c 1,11,-1
 257 774 l 1,12,13
 228 762 228 762 208 742 c 128,-1,14
 188 722 188 722 182 696 c 0,15,16
 178 682 178 682 180.5 678 c 128,-1,17
 183 674 183 674 194 674 c 0,18,19
 217 674 217 674 234.5 657.5 c 128,-1,20
 252 641 252 641 252 617 c 0,0,1
415 617 m 0,21,22
 415 591 415 591 396.5 572.5 c 128,-1,23
 378 554 378 554 346 554 c 256,24,25
 314 554 314 554 295 578 c 128,-1,26
 276 602 276 602 276 637 c 0,27,28
 276 667 276 667 286 694.5 c 128,-1,29
 296 722 296 722 313 744.5 c 128,-1,30
 330 767 330 767 353 784 c 128,-1,31
 376 801 376 801 402 811 c 1,32,-1
 420 774 l 1,33,34
 391 762 391 762 371 742 c 128,-1,35
 351 722 351 722 344 696 c 0,36,37
 340 682 340 682 342.5 678 c 128,-1,38
 345 674 345 674 357 674 c 0,39,40
 380 674 380 674 397.5 657.5 c 128,-1,41
 415 641 415 641 415 617 c 0,21,22
EndSplineSet
EndChar

StartChar: quotedblright
Encoding: 8221 8221 104
Width: 446
GlyphClass: 2
Flags: W
LayerCount: 2
Fore
SplineSet
195 724 m 0,0,1
 195 750 195 750 213 768.5 c 128,-1,2
 231 787 231 787 263 787 c 256,3,4
 295 787 295 787 314.5 763 c 128,-1,5
 334 739 334 739 334 704 c 0,6,7
 334 674 334 674 324 646.5 c 128,-1,8
 314 619 314 619 297 596.5 c 128,-1,9
 280 574 280 574 257 557 c 128,-1,10
 234 540 234 540 207 530 c 1,11,-1
 190 567 l 1,12,13
 251 592 251 592 265 646 c 0,14,15
 269 660 269 660 266.5 663.5 c 128,-1,16
 264 667 264 667 252 667 c 0,17,18
 229 667 229 667 212 684 c 128,-1,19
 195 701 195 701 195 724 c 0,0,1
32 724 m 0,20,21
 32 750 32 750 50 768.5 c 128,-1,22
 68 787 68 787 100 787 c 256,23,24
 132 787 132 787 151.5 763 c 128,-1,25
 171 739 171 739 171 704 c 0,26,27
 171 674 171 674 161 646.5 c 128,-1,28
 151 619 151 619 134 596.5 c 128,-1,29
 117 574 117 574 94 557 c 128,-1,30
 71 540 71 540 45 530 c 1,31,-1
 27 567 l 1,32,33
 56 579 56 579 76 599.5 c 128,-1,34
 96 620 96 620 102 646 c 0,35,36
 106 660 106 660 103.5 663.5 c 128,-1,37
 101 667 101 667 90 667 c 0,38,39
 67 667 67 667 49.5 684 c 128,-1,40
 32 701 32 701 32 724 c 0,20,21
EndSplineSet
EndChar

StartChar: ellipsis
Encoding: 8230 8230 105
Width: 892
GlyphClass: 2
Flags: W
LayerCount: 2
Fore
SplineSet
206 436 m 256,0,1
 237 436 237 436 256.5 416.5 c 128,-1,2
 276 397 276 397 276 367 c 256,3,4
 276 337 276 337 256.5 317.5 c 128,-1,5
 237 298 237 298 206 298 c 256,6,7
 175 298 175 298 155.5 317.5 c 128,-1,8
 136 337 136 337 136 367 c 256,9,10
 136 397 136 397 155.5 416.5 c 128,-1,11
 175 436 175 436 206 436 c 256,0,1
685 436 m 256,12,13
 716 436 716 436 735.5 416.5 c 128,-1,14
 755 397 755 397 755 367 c 256,15,16
 755 337 755 337 735.5 317.5 c 128,-1,17
 716 298 716 298 685 298 c 256,18,19
 654 298 654 298 634.5 317.5 c 128,-1,20
 615 337 615 337 615 367 c 256,21,22
 615 397 615 397 634.5 416.5 c 128,-1,23
 654 436 654 436 685 436 c 256,12,13
446 436 m 256,24,25
 477 436 477 436 496.5 416.5 c 128,-1,26
 516 397 516 397 516 367 c 256,27,28
 516 337 516 337 496.5 317.5 c 128,-1,29
 477 298 477 298 446 298 c 256,30,31
 415 298 415 298 395.5 317.5 c 128,-1,32
 376 337 376 337 376 367 c 256,33,34
 376 397 376 397 395.5 416.5 c 128,-1,35
 415 436 415 436 446 436 c 256,24,25
EndSplineSet
EndChar

StartChar: uni3131
Encoding: 12593 12593 106
Width: 391
GlyphClass: 2
Flags: W
LayerCount: 2
Fore
SplineSet
354 422 m 1,0,-1
 231 72 l 1,1,-1
 197 72 l 1,2,-1
 238 352 l 1,3,-1
 52 320 l 1,4,-1
 28 370 l 1,5,-1
 87 370 l 1,6,-1
 354 422 l 1,0,-1
EndSplineSet
EndChar

StartChar: uni3132
Encoding: 12594 12594 107
Width: 535
GlyphClass: 2
Flags: W
LayerCount: 2
Fore
SplineSet
493 324 m 1,0,-1
 386 -72 l 1,1,-1
 357 -71 l 1,2,-1
 392 252 l 1,3,-1
 289 231 l 1,4,-1
 214 -48 l 1,5,-1
 185 -47 l 1,6,-1
 220 275 l 1,7,-1
 56 249 l 1,8,-1
 36 303 l 1,9,-1
 90 299 l 1,10,-1
 321 348 l 1,11,-1
 304 284 l 1,12,-1
 493 324 l 1,0,-1
EndSplineSet
EndChar

StartChar: uni3133
Encoding: 12595 12595 108
Width: 718
GlyphClass: 2
Flags: W
LayerCount: 2
Fore
SplineSet
66 251 m 1,0,-1
 21 310 l 1,1,-1
 124 303 l 1,2,-1
 351 362 l 1,3,-1
 311 21 l 1,4,-1
 239 23 l 1,5,-1
 267 272 l 1,6,-1
 66 251 l 1,0,-1
486 298 m 2,7,8
 488 306 488 306 486 310 c 128,-1,9
 484 314 484 314 480 321 c 2,10,-1
 427 365 l 1,11,-1
 589 337 l 1,12,-1
 582 319 l 1,13,-1
 696 80 l 1,14,-1
 582 140 l 1,15,-1
 527 247 l 1,16,-1
 454 94 l 1,17,-1
 339 15 l 1,18,-1
 486 298 l 2,7,8
EndSplineSet
EndChar

StartChar: uni3134
Encoding: 12596 12596 109
Width: 420
GlyphClass: 2
Flags: W
LayerCount: 2
Fore
SplineSet
130 67 m 1,0,-1
 400 91 l 1,1,-1
 398 68 l 1,2,-1
 43 0 l 1,3,-1
 64 266 l 1,4,-1
 25 311 l 1,5,-1
 131 289 l 1,6,-1
 130 67 l 1,0,-1
EndSplineSet
EndChar

StartChar: uni3135
Encoding: 12597 12597 110
Width: 674
GlyphClass: 2
Flags: W
LayerCount: 2
Fore
SplineSet
159 95 m 1,0,-1
 357 126 l 1,1,-1
 357 76 l 1,2,-1
 72 0 l 1,3,-1
 78 267 l 1,4,-1
 16 303 l 1,5,-1
 157 292 l 1,6,-1
 159 95 l 1,0,-1
654 303 m 1,7,-1
 565 183 l 1,8,-1
 650 105 l 1,9,-1
 610 22 l 1,10,-1
 540 151 l 1,11,-1
 447 28 l 1,12,-1
 369 23 l 1,13,-1
 549 254 l 1,14,-1
 402 246 l 1,15,-1
 357 294 l 1,16,-1
 406 291 l 1,17,-1
 654 303 l 1,7,-1
EndSplineSet
EndChar

StartChar: uni3136
Encoding: 12598 12598 111
Width: 608
GlyphClass: 2
Flags: W
LayerCount: 2
Fore
SplineSet
475 160 m 1,0,1
 500 164 500 164 519 160 c 0,2,3
 536 156 536 156 549.5 143.5 c 128,-1,4
 563 131 563 131 563 103 c 0,5,6
 563 69 563 69 547 52.5 c 128,-1,7
 531 36 531 36 511 28 c 0,8,9
 488 19 488 19 460 19 c 0,10,11
 431 19 431 19 409 28 c 0,12,13
 389 36 389 36 373.5 52.5 c 128,-1,14
 358 69 358 69 358 103 c 0,15,16
 358 127 358 127 367 142.5 c 128,-1,17
 376 158 376 158 389 168 c 1,18,-1
 324 168 l 1,19,-1
 299 198 l 1,20,-1
 423 210 l 1,21,-1
 404 291 l 1,22,-1
 465 267 l 1,23,-1
 461 213 l 1,24,-1
 560 223 l 1,25,-1
 588 169 l 1,26,-1
 459 168 l 2,27,28
 430 166 430 166 415 152.5 c 128,-1,29
 400 139 400 139 400 104 c 0,30,31
 400 89 400 89 407.5 79.5 c 128,-1,32
 415 70 415 70 425.5 64.5 c 128,-1,33
 436 59 436 59 446 57 c 128,-1,34
 456 55 456 55 461 55 c 256,35,36
 466 55 466 55 477 55.5 c 128,-1,37
 488 56 488 56 498.5 60 c 128,-1,38
 509 64 509 64 517 74 c 128,-1,39
 525 84 525 84 525 103 c 0,40,41
 525 126 525 126 516.5 137 c 128,-1,42
 508 148 508 148 497 152 c 0,43,44
 485 156 485 156 469 153 c 1,45,-1
 475 160 l 1,0,1
146 80 m 1,46,-1
 312 106 l 1,47,-1
 312 63 l 1,48,-1
 73 0 l 1,49,-1
 78 223 l 1,50,-1
 26 254 l 1,51,-1
 144 245 l 1,52,-1
 146 80 l 1,46,-1
EndSplineSet
EndChar

StartChar: uni3137
Encoding: 12599 12599 112
Width: 477
GlyphClass: 2
Flags: W
LayerCount: 2
Fore
SplineSet
50 99 m 1,0,-1
 70 407 l 1,1,-1
 39 438 l 1,2,-1
 119 423 l 1,3,-1
 435 387 l 1,4,-1
 435 364 l 1,5,-1
 126 372 l 1,6,-1
 135 166 l 1,7,-1
 135 157 l 1,8,-1
 402 172 l 1,9,-1
 400 144 l 1,10,-1
 50 99 l 1,0,-1
EndSplineSet
EndChar

StartChar: uni3138
Encoding: 12600 12600 113
Width: 733
GlyphClass: 2
Flags: W
LayerCount: 2
Fore
SplineSet
709 428 m 1,0,-1
 438 440 l 1,1,-1
 453 242 l 1,2,-1
 453 229 l 1,3,-1
 657 251 l 1,4,-1
 654 219 l 1,5,-1
 328 146 l 1,6,-1
 330 173 l 1,7,-1
 43 123 l 1,8,-1
 75 514 l 1,9,-1
 24 565 l 1,10,-1
 156 540 l 1,11,-1
 332 512 l 1,12,-1
 309 535 l 1,13,-1
 438 511 l 1,14,-1
 709 453 l 1,15,-1
 709 428 l 1,0,-1
333 220 m 1,16,-1
 358 460 l 1,17,-1
 156 467 l 1,18,-1
 171 221 l 1,19,-1
 171 208 l 1,20,-1
 333 220 l 1,16,-1
EndSplineSet
EndChar

StartChar: uni3139
Encoding: 12601 12601 114
Width: 634
GlyphClass: 2
Flags: W
LayerCount: 2
Fore
SplineSet
57 71 m 1,0,-1
 57 165 l 1,1,-1
 52 344 l 1,2,-1
 24 396 l 1,3,-1
 143 388 l 1,4,-1
 455 403 l 1,5,-1
 442 515 l 1,6,-1
 75 515 l 1,7,-1
 49 577 l 1,8,-1
 104 575 l 1,9,-1
 558 602 l 1,10,-1
 554 579 l 1,11,-1
 548 319 l 1,12,-1
 491 304 l 1,13,-1
 143 300 l 1,14,-1
 159 173 l 1,15,-1
 530 182 l 1,16,-1
 577 203 l 1,17,-1
 612 122 l 1,18,-1
 57 71 l 1,0,-1
EndSplineSet
EndChar

StartChar: uni313A
Encoding: 12602 12602 115
Width: 632
GlyphClass: 2
Flags: W
LayerCount: 2
Fore
SplineSet
35 2 m 1,0,-1
 35 39 l 1,1,-1
 32 138 l 1,2,-1
 18 159 l 1,3,-1
 78 156 l 1,4,-1
 221 162 l 1,5,-1
 215 249 l 1,6,-1
 44 249 l 1,7,-1
 31 279 l 1,8,-1
 59 270 l 1,9,-1
 286 289 l 1,10,-1
 283 280 l 1,11,-1
 280 123 l 1,12,-1
 251 118 l 1,13,-1
 94 116 l 1,14,-1
 102 42 l 1,15,-1
 272 46 l 1,16,-1
 295 54 l 1,17,-1
 313 22 l 1,18,-1
 35 2 l 1,0,-1
367 225 m 1,19,-1
 333 277 l 1,20,-1
 418 265 l 1,21,-1
 610 300 l 1,22,-1
 556 20 l 1,23,-1
 497 25 l 1,24,-1
 535 230 l 1,25,-1
 367 225 l 1,19,-1
EndSplineSet
EndChar

StartChar: uni313B
Encoding: 12603 12603 116
Width: 511
GlyphClass: 2
Flags: W
LayerCount: 2
Fore
SplineSet
41 86 m 1,0,-1
 41 119 l 1,1,-1
 39 209 l 1,2,-1
 26 227 l 1,3,-1
 80 224 l 1,4,-1
 177 230 l 1,5,-1
 172 308 l 1,6,-1
 49 308 l 1,7,-1
 37 335 l 1,8,-1
 62 327 l 1,9,-1
 235 344 l 1,10,-1
 233 336 l 1,11,-1
 230 195 l 1,12,-1
 204 190 l 1,13,-1
 94 189 l 1,14,-1
 102 122 l 1,15,-1
 223 125 l 1,16,-1
 244 133 l 1,17,-1
 260 104 l 1,18,-1
 41 86 l 1,0,-1
312 337 m 1,19,-1
 485 357 l 1,20,-1
 481 149 l 1,21,-1
 450 151 l 1,22,-1
 441 319 l 1,23,-1
 340 313 l 1,24,-1
 343 132 l 1,25,-1
 480 140 l 1,26,-1
 480 112 l 1,27,-1
 290 95 l 1,28,-1
 295 328 l 1,29,-1
 277 341 l 1,30,-1
 304 337 l 1,31,-1
 312 337 l 1,19,-1
EndSplineSet
EndChar

StartChar: uni313C
Encoding: 12604 12604 117
Width: 598
GlyphClass: 2
Flags: W
LayerCount: 2
Fore
SplineSet
518 168 m 1,0,-1
 392 147 l 1,1,-1
 393 76 l 1,2,-1
 572 92 l 1,3,-1
 571 61 l 1,4,-1
 320 20 l 1,5,-1
 327 283 l 1,6,-1
 301 306 l 1,7,-1
 388 296 l 1,8,-1
 392 187 l 1,9,-1
 516 225 l 1,10,-1
 510 282 l 1,11,-1
 572 295 l 1,12,-1
 566 111 l 1,13,-1
 522 115 l 1,14,-1
 518 168 l 1,0,-1
42 0 m 1,15,-1
 42 40 l 1,16,-1
 39 146 l 1,17,-1
 24 168 l 1,18,-1
 88 164 l 1,19,-1
 203 171 l 1,20,-1
 197 264 l 1,21,-1
 51 264 l 1,22,-1
 38 295 l 1,23,-1
 67 285 l 1,24,-1
 272 306 l 1,25,-1
 270 296 l 1,26,-1
 266 130 l 1,27,-1
 236 123 l 1,28,-1
 105 122 l 1,29,-1
 114 43 l 1,30,-1
 257 47 l 1,31,-1
 282 56 l 1,32,-1
 301 22 l 1,33,-1
 42 0 l 1,15,-1
EndSplineSet
EndChar

StartChar: uni313D
Encoding: 12605 12605 118
Width: 614
GlyphClass: 2
Flags: W
LayerCount: 2
Fore
SplineSet
40 0 m 1,0,-1
 40 40 l 1,1,-1
 37 147 l 1,2,-1
 22 169 l 1,3,-1
 87 166 l 1,4,-1
 203 172 l 1,5,-1
 196 266 l 1,6,-1
 50 266 l 1,7,-1
 36 298 l 1,8,-1
 66 288 l 1,9,-1
 272 308 l 1,10,-1
 270 299 l 1,11,-1
 266 131 l 1,12,-1
 235 124 l 1,13,-1
 104 123 l 1,14,-1
 113 43 l 1,15,-1
 257 47 l 1,16,-1
 282 56 l 1,17,-1
 301 22 l 1,18,-1
 40 0 l 1,0,-1
590 72 m 1,19,-1
 484 117 l 1,20,-1
 427 208 l 1,21,-1
 370 108 l 1,22,-1
 269 83 l 1,23,-1
 386 250 l 2,24,25
 388 258 388 258 385.5 261 c 128,-1,26
 383 264 383 264 379 270 c 2,27,-1
 328 305 l 1,28,-1
 475 293 l 1,29,-1
 470 277 l 1,30,-1
 590 72 l 1,19,-1
EndSplineSet
EndChar

StartChar: uni313E
Encoding: 12606 12606 119
Width: 616
GlyphClass: 2
Flags: W
LayerCount: 2
Fore
SplineSet
42 -2 m 1,0,-1
 42 37 l 1,1,-1
 39 140 l 1,2,-1
 24 162 l 1,3,-1
 87 159 l 1,4,-1
 199 165 l 1,5,-1
 193 256 l 1,6,-1
 51 256 l 1,7,-1
 37 287 l 1,8,-1
 66 277 l 1,9,-1
 267 297 l 1,10,-1
 264 287 l 1,11,-1
 261 125 l 1,12,-1
 231 119 l 1,13,-1
 103 117 l 1,14,-1
 112 40 l 1,15,-1
 252 43 l 1,16,-1
 276 52 l 1,17,-1
 295 19 l 1,18,-1
 42 -2 l 1,0,-1
382 231 m 1,19,-1
 386 170 l 1,20,-1
 545 168 l 1,21,-1
 544 144 l 1,22,-1
 387 128 l 1,23,-1
 390 70 l 1,24,-1
 390 63 l 1,25,-1
 563 87 l 1,26,-1
 562 57 l 1,27,-1
 320 16 l 1,28,-1
 338 269 l 1,29,-1
 310 297 l 1,30,-1
 382 283 l 1,31,-1
 592 251 l 1,32,-1
 568 225 l 1,33,-1
 382 231 l 1,19,-1
EndSplineSet
EndChar

StartChar: uni313F
Encoding: 12607 12607 120
Width: 640
GlyphClass: 2
Flags: W
LayerCount: 2
Fore
SplineSet
38 0 m 1,0,-1
 38 40 l 1,1,-1
 35 146 l 1,2,-1
 20 168 l 1,3,-1
 84 165 l 1,4,-1
 200 171 l 1,5,-1
 194 265 l 1,6,-1
 48 265 l 1,7,-1
 34 296 l 1,8,-1
 63 286 l 1,9,-1
 269 307 l 1,10,-1
 267 297 l 1,11,-1
 263 130 l 1,12,-1
 233 124 l 1,13,-1
 101 122 l 1,14,-1
 110 43 l 1,15,-1
 254 47 l 1,16,-1
 279 56 l 1,17,-1
 298 22 l 1,18,-1
 38 0 l 1,0,-1
442 78 m 1,19,-1
 616 93 l 1,20,-1
 614 74 l 1,21,-1
 333 25 l 1,22,-1
 360 74 l 1,23,-1
 397 76 l 1,24,-1
 387 234 l 1,25,-1
 328 230 l 1,26,-1
 307 266 l 1,27,-1
 360 266 l 1,28,-1
 590 309 l 1,29,-1
 616 251 l 1,30,-1
 559 247 l 1,31,-1
 555 96 l 1,32,-1
 517 100 l 1,33,-1
 508 244 l 1,34,-1
 446 237 l 1,35,-1
 442 78 l 1,19,-1
EndSplineSet
EndChar

StartChar: uni3140
Encoding: 12608 12608 121
Width: 645
GlyphClass: 2
Flags: W
LayerCount: 2
Fore
SplineSet
41 0 m 1,0,-1
 41 42 l 1,1,-1
 38 153 l 1,2,-1
 22 176 l 1,3,-1
 89 172 l 1,4,-1
 210 179 l 1,5,-1
 203 277 l 1,6,-1
 51 277 l 1,7,-1
 36 310 l 1,8,-1
 67 299 l 1,9,-1
 283 321 l 1,10,-1
 280 311 l 1,11,-1
 276 136 l 1,12,-1
 244 129 l 1,13,-1
 107 128 l 1,14,-1
 117 45 l 1,15,-1
 267 49 l 1,16,-1
 293 58 l 1,17,-1
 313 23 l 1,18,-1
 41 0 l 1,0,-1
499 172 m 1,19,20
 526 176 526 176 548 172 c 0,21,22
 567 168 567 168 582.5 154 c 128,-1,23
 598 140 598 140 598 108 c 0,24,25
 598 70 598 70 580 50.5 c 128,-1,26
 562 31 562 31 540 23 c 0,27,28
 514 13 514 13 482 13 c 256,29,30
 450 13 450 13 424 23 c 0,31,32
 402 31 402 31 384.5 50.5 c 128,-1,33
 367 70 367 70 367 108 c 0,34,35
 367 135 367 135 377 153 c 128,-1,36
 387 171 387 171 402 182 c 1,37,-1
 329 182 l 1,38,-1
 300 216 l 1,39,-1
 440 229 l 1,40,-1
 418 321 l 1,41,-1
 488 293 l 1,42,-1
 483 232 l 1,43,-1
 595 244 l 1,44,-1
 626 183 l 1,45,-1
 480 182 l 2,46,47
 448 179 448 179 431 163.5 c 128,-1,48
 414 148 414 148 414 110 c 0,49,50
 414 93 414 93 422.5 82.5 c 128,-1,51
 431 72 431 72 442.5 65.5 c 128,-1,52
 454 59 454 59 465.5 56.5 c 128,-1,53
 477 54 477 54 483 54 c 256,54,55
 489 54 489 54 501 54.5 c 128,-1,56
 513 55 513 55 525 59.5 c 128,-1,57
 537 64 537 64 546 75 c 128,-1,58
 555 86 555 86 555 108 c 0,59,60
 555 134 555 134 545 146.5 c 128,-1,61
 535 159 535 159 523 163 c 0,62,63
 509 167 509 167 492 164 c 1,64,-1
 499 172 l 1,19,20
EndSplineSet
EndChar

StartChar: uni3141
Encoding: 12609 12609 122
Width: 600
GlyphClass: 2
Flags: W
LayerCount: 2
Fore
SplineSet
135 589 m 1,0,-1
 574 703 l 1,1,-1
 559 237 l 1,2,-1
 496 247 l 1,3,-1
 464 540 l 1,4,-1
 184 501 l 1,5,-1
 193 147 l 1,6,-1
 555 200 l 1,7,-1
 550 138 l 1,8,-1
 62 3 l 1,9,-1
 79 518 l 1,10,-1
 15 606 l 1,11,-1
 110 589 l 1,12,-1
 135 589 l 1,0,-1
EndSplineSet
EndChar

StartChar: uni3142
Encoding: 12610 12610 123
Width: 701
GlyphClass: 2
Flags: W
LayerCount: 2
Fore
SplineSet
242 109 m 1,0,-1
 681 156 l 1,1,-1
 678 121 l 1,2,-1
 79 1 l 1,3,-1
 99 631 l 1,4,-1
 24 701 l 1,5,-1
 226 673 l 1,6,-1
 234 362 l 1,7,-1
 566 439 l 1,8,-1
 550 628 l 1,9,-1
 681 666 l 1,10,-1
 664 176 l 1,11,-1
 586 192 l 1,12,-1
 575 327 l 1,13,-1
 236 299 l 1,14,-1
 242 109 l 1,0,-1
EndSplineSet
EndChar

StartChar: uni3143
Encoding: 12611 12611 124
Width: 725
GlyphClass: 2
Flags: W
LayerCount: 2
Fore
SplineSet
650 241 m 1,0,-1
 523 219 l 1,1,-1
 526 126 l 1,2,-1
 707 163 l 1,3,-1
 704 136 l 1,4,-1
 425 43 l 1,5,-1
 441 442 l 1,6,-1
 382 495 l 1,7,-1
 514 472 l 1,8,-1
 522 267 l 1,9,-1
 645 325 l 1,10,-1
 630 439 l 1,11,-1
 707 469 l 1,12,-1
 693 178 l 1,13,-1
 658 189 l 1,14,-1
 650 241 l 1,0,-1
321 217 m 1,15,-1
 185 194 l 1,16,-1
 189 90 l 1,17,-1
 382 129 l 1,18,-1
 379 100 l 1,19,-1
 80 0 l 1,20,-1
 97 442 l 1,21,-1
 34 499 l 1,22,-1
 176 475 l 1,23,-1
 184 245 l 1,24,-1
 316 308 l 1,25,-1
 300 439 l 1,26,-1
 382 471 l 1,27,-1
 367 145 l 1,28,-1
 330 157 l 1,29,-1
 321 217 l 1,15,-1
EndSplineSet
EndChar

StartChar: uni3144
Encoding: 12612 12612 125
Width: 689
GlyphClass: 2
Flags: W
LayerCount: 2
Fore
SplineSet
481 275 m 2,0,1
 483 282 483 282 481 285.5 c 128,-1,2
 479 289 479 289 476 295 c 2,3,-1
 430 333 l 1,4,-1
 570 308 l 1,5,-1
 564 293 l 1,6,-1
 661 87 l 1,7,-1
 563 139 l 1,8,-1
 516 231 l 1,9,-1
 453 100 l 1,10,-1
 354 32 l 1,11,-1
 481 275 l 2,0,1
275 173 m 1,12,-1
 128 148 l 1,13,-1
 130 65 l 1,14,-1
 338 84 l 1,15,-1
 337 47 l 1,16,-1
 44 0 l 1,17,-1
 52 306 l 1,18,-1
 22 333 l 1,19,-1
 124 321 l 1,20,-1
 127 195 l 1,21,-1
 273 238 l 1,22,-1
 265 305 l 1,23,-1
 338 320 l 1,24,-1
 331 105 l 1,25,-1
 279 111 l 1,26,-1
 275 173 l 1,12,-1
EndSplineSet
EndChar

StartChar: uni3145
Encoding: 12613 12613 126
Width: 675
GlyphClass: 2
Flags: W
LayerCount: 2
Fore
SplineSet
484 189 m 1,0,-1
 418 426 l 1,1,-1
 220 81 l 1,2,-1
 26 0 l 1,3,-1
 365 583 l 2,4,5
 370 590 370 590 369.5 598.5 c 128,-1,6
 369 607 369 607 364 613 c 2,7,-1
 298 700 l 1,8,-1
 524 608 l 1,9,-1
 509 582 l 1,10,-1
 654 65 l 1,11,-1
 484 189 l 1,0,-1
EndSplineSet
EndChar

StartChar: uni3146
Encoding: 12614 12614 127
Width: 837
GlyphClass: 2
Flags: W
LayerCount: 2
Fore
SplineSet
689 383 m 1,0,-1
 805 61 l 1,1,-1
 668 158 l 1,2,-1
 620 292 l 1,3,-1
 461 71 l 1,4,-1
 306 6 l 1,5,-1
 424 168 l 1,6,-1
 374 298 l 1,7,-1
 206 71 l 1,8,-1
 40 0 l 1,9,-1
 328 399 l 2,10,11
 331 404 331 404 331.5 406.5 c 128,-1,12
 332 409 332 409 332 412 c 2,13,-1
 328 425 l 1,14,-1
 271 499 l 1,15,-1
 466 421 l 1,16,-1
 441 392 l 1,17,-1
 474 240 l 1,18,-1
 576 379 l 2,19,20
 580 387 580 387 579 392 c 128,-1,21
 578 397 578 397 576 405 c 2,22,-1
 524 472 l 1,23,-1
 700 399 l 1,24,-1
 689 383 l 1,0,-1
EndSplineSet
EndChar

StartChar: uni3147
Encoding: 12615 12615 128
Width: 579
GlyphClass: 2
Flags: W
LayerCount: 2
Fore
SplineSet
333 455 m 1,0,1
 396 473 396 473 445 465 c 0,2,3
 466 462 466 462 486 452.5 c 128,-1,4
 506 443 506 443 522 425 c 128,-1,5
 538 407 538 407 547.5 378.5 c 128,-1,6
 557 350 557 350 557 308 c 0,7,8
 557 258 557 258 545.5 221.5 c 128,-1,9
 534 185 534 185 515 158 c 128,-1,10
 496 131 496 131 472 113.5 c 128,-1,11
 448 96 448 96 423 85 c 0,12,13
 364 59 364 59 290 60 c 0,14,15
 215 59 215 59 156 85 c 0,16,17
 131 96 131 96 107 113.5 c 128,-1,18
 83 131 83 131 64.5 158 c 128,-1,19
 46 185 46 185 34.5 221.5 c 128,-1,20
 23 258 23 258 23 308 c 0,21,22
 23 357 23 357 34.5 395 c 128,-1,23
 46 433 46 433 65.5 460.5 c 128,-1,24
 85 488 85 488 109.5 507 c 128,-1,25
 134 526 134 526 160 538 c 0,26,27
 220 566 220 566 297 570 c 1,28,-1
 223 666 l 1,29,-1
 344 618 l 1,30,-1
 358 516 l 1,31,32
 299 516 299 516 256 506.5 c 128,-1,33
 213 497 213 497 184.5 474 c 128,-1,34
 156 451 156 451 142 411.5 c 128,-1,35
 128 372 128 372 128 311 c 0,36,37
 128 251 128 251 148 218 c 128,-1,38
 168 185 168 185 195 169.5 c 128,-1,39
 222 154 222 154 249.5 151 c 128,-1,40
 277 148 277 148 291 148 c 0,41,42
 301 148 301 148 318 147 c 128,-1,43
 335 146 335 146 354 148.5 c 128,-1,44
 373 151 373 151 392 159 c 128,-1,45
 411 167 411 167 426.5 185 c 128,-1,46
 442 203 442 203 452 232.5 c 128,-1,47
 462 262 462 262 462 308 c 0,48,49
 462 343 462 343 455.5 367 c 128,-1,50
 449 391 449 391 439 406.5 c 128,-1,51
 429 422 429 422 415.5 430 c 128,-1,52
 402 438 402 438 389 441 c 0,53,54
 356 448 356 448 316 434 c 1,55,-1
 333 455 l 1,56,-1
 333 455 l 1,0,1
EndSplineSet
EndChar

StartChar: uni3148
Encoding: 12616 12616 129
Width: 709
GlyphClass: 2
Flags: W
LayerCount: 2
Fore
SplineSet
452 319 m 1,0,-1
 655 169 l 1,1,-1
 544 38 l 1,2,-1
 402 254 l 1,3,-1
 208 0 l 1,4,-1
 58 1 l 1,5,-1
 430 457 l 1,6,-1
 115 421 l 1,7,-1
 44 530 l 1,8,-1
 144 522 l 1,9,-1
 626 548 l 1,10,-1
 452 319 l 1,0,-1
EndSplineSet
EndChar

StartChar: uni3149
Encoding: 12617 12617 130
Width: 632
GlyphClass: 2
Flags: W
LayerCount: 2
Fore
SplineSet
605 127 m 1,0,-1
 546 19 l 1,1,-1
 440 181 l 1,2,-1
 368 6 l 1,3,-1
 294 0 l 1,4,-1
 303 23 l 1,5,-1
 199 181 l 1,6,-1
 128 6 l 1,7,-1
 53 0 l 1,8,-1
 222 425 l 1,9,-1
 101 414 l 1,10,-1
 36 483 l 1,11,-1
 107 479 l 1,12,-1
 363 497 l 1,13,-1
 354 479 l 1,14,-1
 603 497 l 1,15,-1
 475 227 l 1,16,-1
 605 127 l 1,0,-1
462 425 m 1,17,-1
 342 414 l 1,18,-1
 330 427 l 1,19,-1
 235 227 l 1,20,-1
 349 139 l 1,21,-1
 462 425 l 1,17,-1
EndSplineSet
EndChar

StartChar: uni314A
Encoding: 12618 12618 131
Width: 616
GlyphClass: 2
Flags: W
LayerCount: 2
Fore
SplineSet
358 256 m 1,0,-1
 200 50 l 1,1,-1
 66 50 l 1,2,-1
 387 454 l 1,3,-1
 127 444 l 1,4,-1
 52 535 l 1,5,-1
 144 527 l 1,6,-1
 301 537 l 1,7,-1
 254 663 l 1,8,-1
 374 617 l 1,9,-1
 358 539 l 1,10,-1
 576 551 l 1,11,-1
 416 303 l 1,12,-1
 550 205 l 1,13,-1
 503 36 l 1,14,-1
 358 256 l 1,0,-1
EndSplineSet
EndChar

StartChar: uni314B
Encoding: 12619 12619 132
Width: 659
GlyphClass: 2
Flags: W
LayerCount: 2
Fore
SplineSet
593 618 m 1,0,-1
 421 0 l 1,1,-1
 375 1 l 1,2,-1
 405 283 l 1,3,-1
 145 243 l 1,4,-1
 112 290 l 1,5,-1
 211 300 l 1,6,-1
 413 352 l 1,7,-1
 431 519 l 1,8,-1
 86 477 l 1,9,-1
 53 545 l 1,10,-1
 136 545 l 1,11,-1
 593 618 l 1,0,-1
EndSplineSet
EndChar

StartChar: uni314C
Encoding: 12620 12620 133
Width: 774
GlyphClass: 2
Flags: W
LayerCount: 2
Fore
SplineSet
213 465 m 1,0,-1
 221 331 l 1,1,-1
 626 327 l 1,2,-1
 625 276 l 1,3,-1
 224 241 l 1,4,-1
 231 116 l 1,5,-1
 231 101 l 1,6,-1
 666 153 l 1,7,-1
 662 88 l 1,8,-1
 80 0 l 1,9,-1
 117 547 l 1,10,-1
 57 607 l 1,11,-1
 213 578 l 1,12,-1
 729 508 l 1,13,-1
 676 450 l 1,14,-1
 213 465 l 1,0,-1
EndSplineSet
EndChar

StartChar: uni314D
Encoding: 12621 12621 134
Width: 839
GlyphClass: 2
Flags: W
LayerCount: 2
Fore
SplineSet
315 108 m 1,0,-1
 778 138 l 1,1,-1
 775 100 l 1,2,-1
 93 0 l 1,3,-1
 148 99 l 1,4,-1
 223 105 l 1,5,-1
 204 426 l 1,6,-1
 82 418 l 1,7,-1
 40 491 l 1,8,-1
 148 491 l 1,9,-1
 725 579 l 1,10,-1
 778 460 l 1,11,-1
 663 452 l 1,12,-1
 654 145 l 1,13,-1
 577 154 l 1,14,-1
 558 446 l 1,15,-1
 324 432 l 1,16,-1
 315 108 l 1,0,-1
EndSplineSet
EndChar

StartChar: uni314E
Encoding: 12622 12622 135
Width: 734
GlyphClass: 2
Flags: W
LayerCount: 2
Fore
SplineSet
700 455 m 1,0,-1
 77 453 l 1,1,-1
 26 514 l 1,2,-1
 309 537 l 1,3,-1
 271 700 l 1,4,-1
 394 651 l 1,5,-1
 385 543 l 1,6,-1
 644 564 l 1,7,-1
 700 455 l 1,0,-1
422 291 m 1,8,9
 470 299 470 299 509 290 c 0,10,11
 525 286 525 286 541 278.5 c 128,-1,12
 557 271 557 271 569.5 258 c 128,-1,13
 582 245 582 245 589.5 225 c 128,-1,14
 597 205 597 205 597 177 c 0,15,16
 597 144 597 144 588 119 c 128,-1,17
 579 94 579 94 564.5 76 c 128,-1,18
 550 58 550 58 531.5 46 c 128,-1,19
 513 34 513 34 494 27 c 0,20,21
 448 9 448 9 391 9 c 256,22,23
 334 9 334 9 289 27 c 0,24,25
 270 34 270 34 252 46 c 128,-1,26
 234 58 234 58 219.5 76 c 128,-1,27
 205 94 205 94 196.5 119 c 128,-1,28
 188 144 188 144 188 177 c 256,29,30
 188 210 188 210 197 235.5 c 128,-1,31
 206 261 206 261 220.5 279.5 c 128,-1,32
 235 298 235 298 253.5 311 c 128,-1,33
 272 324 272 324 292 332 c 0,34,35
 338 351 338 351 396 353 c 1,36,-1
 358 402 l 1,37,-1
 439 368 l 1,38,-1
 438 310 l 1,39,40
 399 310 399 310 368 305 c 128,-1,41
 337 300 337 300 315.5 285.5 c 128,-1,42
 294 271 294 271 282.5 245.5 c 128,-1,43
 271 220 271 220 271 179 c 0,44,45
 271 150 271 150 286.5 131.5 c 128,-1,46
 302 113 302 113 322.5 102 c 128,-1,47
 343 91 343 91 363.5 86.5 c 128,-1,48
 384 82 384 82 394 82 c 256,49,50
 404 82 404 82 425 82.5 c 128,-1,51
 446 83 446 83 467 91 c 128,-1,52
 488 99 488 99 504 118.5 c 128,-1,53
 520 138 520 138 520 177 c 0,54,55
 520 224 520 224 502.5 245.5 c 128,-1,56
 485 267 485 267 464 274 c 0,57,58
 439 282 439 282 409 276 c 1,59,-1
 422 291 l 1,8,9
EndSplineSet
EndChar

StartChar: uni314F
Encoding: 12623 12623 136
Width: 324
GlyphClass: 2
Flags: W
LayerCount: 2
Fore
SplineSet
305 468 m 1,0,-1
 260 327 l 1,1,-1
 144 327 l 1,2,-1
 158 -3 l 1,3,-1
 23 8 l 1,4,-1
 91 697 l 1,5,-1
 128 676 l 1,6,-1
 139 406 l 1,7,-1
 305 468 l 1,0,-1
EndSplineSet
EndChar

StartChar: uni3150
Encoding: 12624 12624 137
Width: 367
GlyphClass: 2
Flags: W
LayerCount: 2
Fore
SplineSet
207 18 m 1,0,-1
 243 325 l 1,1,-1
 145 328 l 1,2,-1
 149 17 l 1,3,-1
 26 32 l 1,4,-1
 105 703 l 1,5,-1
 139 682 l 1,6,-1
 142 401 l 1,7,-1
 256 439 l 1,8,-1
 286 689 l 1,9,-1
 319 668 l 1,10,-1
 330 3 l 1,11,-1
 207 18 l 1,0,-1
EndSplineSet
EndChar

StartChar: uni3151
Encoding: 12625 12625 138
Width: 367
GlyphClass: 2
Flags: W
LayerCount: 2
Fore
SplineSet
146 255 m 1,0,-1
 328 309 l 1,1,-1
 286 171 l 1,2,-1
 150 171 l 1,3,-1
 158 0 l 1,4,-1
 27 9 l 1,5,-1
 69 700 l 1,6,-1
 118 669 l 1,7,-1
 134 474 l 1,8,-1
 345 536 l 1,9,-1
 303 399 l 1,10,-1
 139 398 l 1,11,-1
 146 255 l 1,0,-1
EndSplineSet
EndChar

StartChar: uni3152
Encoding: 12626 12626 139
Width: 391
GlyphClass: 2
Flags: W
LayerCount: 2
Fore
SplineSet
236 15 m 1,0,-1
 255 220 l 1,1,-1
 154 223 l 1,2,-1
 156 14 l 1,3,-1
 33 29 l 1,4,-1
 112 700 l 1,5,-1
 146 679 l 1,6,-1
 149 482 l 1,7,-1
 290 520 l 1,8,-1
 314 686 l 1,9,-1
 348 665 l 1,10,-1
 359 0 l 1,11,-1
 236 15 l 1,0,-1
265 332 m 1,12,-1
 272 406 l 1,13,-1
 152 409 l 1,14,-1
 153 301 l 1,15,-1
 265 332 l 1,12,-1
EndSplineSet
EndChar

StartChar: uni3153
Encoding: 12627 12627 140
Width: 338
GlyphClass: 2
Flags: W
LayerCount: 2
Fore
SplineSet
26 425 m 1,0,-1
 183 379 l 1,1,-1
 173 678 l 1,2,-1
 206 700 l 1,3,-1
 320 20 l 1,4,-1
 196 0 l 1,5,-1
 185 307 l 1,6,-1
 77 298 l 1,7,-1
 26 425 l 1,0,-1
EndSplineSet
EndChar

StartChar: uni3154
Encoding: 12628 12628 141
Width: 412
GlyphClass: 2
Flags: W
LayerCount: 2
Fore
SplineSet
228 582 m 1,0,-1
 198 78 l 1,1,-1
 165 78 l 1,2,-1
 155 308 l 1,3,-1
 46 289 l 1,4,-1
 16 421 l 1,5,-1
 150 386 l 1,6,-1
 141 612 l 1,7,-1
 228 582 l 1,0,-1
300 2 m 1,8,-1
 269 5 l 1,9,-1
 281 702 l 1,10,-1
 389 642 l 1,11,-1
 300 2 l 1,8,-1
EndSplineSet
EndChar

StartChar: uni3155
Encoding: 12629 12629 142
Width: 300
GlyphClass: 2
Flags: W
LayerCount: 2
Fore
SplineSet
139 -2 m 1,0,-1
 154 212 l 1,1,-1
 71 208 l 1,2,-1
 27 341 l 1,3,-1
 158 290 l 1,4,-1
 167 412 l 1,5,-1
 64 405 l 1,6,-1
 21 537 l 1,7,-1
 172 480 l 1,8,-1
 183 677 l 1,9,-1
 220 698 l 1,10,-1
 274 30 l 1,11,-1
 139 -2 l 1,0,-1
EndSplineSet
EndChar

StartChar: uni3156
Encoding: 12630 12630 143
Width: 382
GlyphClass: 2
Flags: W
LayerCount: 2
Fore
SplineSet
251 700 m 1,0,-1
 295 684 l 1,1,-1
 361 0 l 1,2,-1
 247 0 l 1,3,-1
 251 700 l 1,0,-1
107 92 m 1,4,-1
 117 231 l 1,5,-1
 51 231 l 1,6,-1
 22 284 l 1,7,-1
 123 316 l 1,8,-1
 127 367 l 1,9,-1
 51 367 l 1,10,-1
 22 420 l 1,11,-1
 135 455 l 1,12,-1
 153 611 l 1,13,-1
 184 596 l 1,14,-1
 204 85 l 1,15,-1
 107 92 l 1,4,-1
EndSplineSet
EndChar

StartChar: uni3157
Encoding: 12631 12631 144
Width: 751
GlyphClass: 2
Flags: W
LayerCount: 2
Fore
SplineSet
328 71 m 1,0,-1
 321 172 l 1,1,-1
 419 205 l 1,2,-1
 388 74 l 1,3,-1
 674 84 l 1,4,-1
 723 -1 l 1,5,-1
 27 -5 l 1,6,-1
 27 48 l 1,7,-1
 328 71 l 1,0,-1
EndSplineSet
EndChar

StartChar: uni3158
Encoding: 12632 12632 145
Width: 892
GlyphClass: 2
Flags: W
LayerCount: 2
Fore
SplineSet
703 325 m 1,0,-1
 665 152 l 1,1,-1
 663 139 l 1,2,-1
 641 40 l 1,3,-1
 600 48 l 1,4,-1
 610 139 l 1,5,-1
 76 125 l 1,6,-1
 37 220 l 1,7,-1
 265 207 l 1,8,-1
 257 349 l 1,9,-1
 348 379 l 1,10,-1
 309 205 l 1,11,-1
 617 185 l 1,12,-1
 673 631 l 1,13,-1
 774 656 l 1,14,-1
 714 378 l 1,15,-1
 826 387 l 1,16,-1
 861 276 l 1,17,-1
 703 325 l 1,0,-1
EndSplineSet
EndChar

StartChar: uni3159
Encoding: 12633 12633 146
Width: 917
GlyphClass: 2
Flags: W
LayerCount: 2
Fore
SplineSet
774 17 m 1,0,-1
 779 324 l 1,1,-1
 673 335 l 1,2,-1
 695 0 l 1,3,-1
 580 17 l 1,4,-1
 581 103 l 1,5,-1
 26 65 l 1,6,-1
 71 180 l 1,7,-1
 100 168 l 1,8,-1
 303 158 l 1,9,-1
 256 299 l 1,10,-1
 381 263 l 1,11,-1
 376 156 l 1,12,-1
 582 148 l 1,13,-1
 591 700 l 1,14,-1
 630 685 l 1,15,-1
 667 410 l 1,16,-1
 781 447 l 1,17,-1
 785 700 l 1,18,-1
 824 685 l 1,19,-1
 889 0 l 1,20,-1
 774 17 l 1,0,-1
EndSplineSet
EndChar

StartChar: uni315A
Encoding: 12634 12634 147
Width: 920
GlyphClass: 2
Flags: W
LayerCount: 2
Fore
SplineSet
883 698 m 1,0,-1
 733 -2 l 1,1,-1
 685 5 l 1,2,-1
 698 109 l 1,3,-1
 84 94 l 1,4,-1
 38 202 l 1,5,-1
 297 187 l 1,6,-1
 287 349 l 1,7,-1
 392 382 l 1,8,-1
 346 184 l 1,9,-1
 704 162 l 1,10,-1
 769 669 l 1,11,-1
 883 698 l 1,0,-1
EndSplineSet
EndChar

StartChar: uni315B
Encoding: 12635 12635 148
Width: 890
GlyphClass: 2
Flags: W
LayerCount: 2
Fore
SplineSet
861 5 m 1,0,-1
 30 0 l 1,1,-1
 30 63 l 1,2,-1
 275 80 l 1,3,-1
 269 216 l 1,4,-1
 385 255 l 1,5,-1
 352 85 l 1,6,-1
 490 95 l 1,7,-1
 482 216 l 1,8,-1
 599 255 l 1,9,-1
 562 98 l 1,10,-1
 803 107 l 1,11,-1
 861 5 l 1,0,-1
EndSplineSet
EndChar

StartChar: uni315C
Encoding: 12636 12636 149
Width: 690
GlyphClass: 2
Flags: W
LayerCount: 2
Fore
SplineSet
43 88 m 1,0,-1
 28 112 l 1,1,-1
 639 177 l 1,2,-1
 664 84 l 1,3,-1
 366 87 l 1,4,-1
 372 29 l 1,5,-1
 281 -4 l 1,6,-1
 313 88 l 1,7,-1
 43 88 l 1,0,-1
EndSplineSet
EndChar

StartChar: uni315D
Encoding: 12637 12637 150
Width: 806
GlyphClass: 2
Flags: W
LayerCount: 2
Fore
SplineSet
374 217 m 1,0,-1
 390 99 l 1,1,-1
 283 62 l 1,2,-1
 321 219 l 1,3,-1
 33 227 l 1,4,-1
 32 278 l 1,5,-1
 605 317 l 1,6,-1
 656 207 l 1,7,-1
 374 217 l 1,0,-1
776 655 m 1,8,-1
 758 1 l 1,9,-1
 711 -1 l 1,10,-1
 703 78 l 1,11,-1
 520 50 l 1,12,-1
 578 167 l 1,13,-1
 699 138 l 1,14,-1
 669 699 l 1,15,-1
 776 655 l 1,8,-1
EndSplineSet
EndChar

StartChar: uni315E
Encoding: 12638 12638 151
Width: 939
GlyphClass: 2
Flags: W
LayerCount: 2
Fore
SplineSet
370 216 m 1,0,-1
 386 98 l 1,1,-1
 279 61 l 1,2,-1
 317 218 l 1,3,-1
 29 226 l 1,4,-1
 28 277 l 1,5,-1
 601 316 l 1,6,-1
 652 206 l 1,7,-1
 370 216 l 1,0,-1
665 698 m 1,8,-1
 772 654 l 1,9,-1
 754 0 l 1,10,-1
 707 -2 l 1,11,-1
 699 77 l 1,12,-1
 516 49 l 1,13,-1
 574 166 l 1,14,-1
 695 137 l 1,15,-1
 665 698 l 1,8,-1
911 654 m 1,16,-1
 892 0 l 1,17,-1
 846 -2 l 1,18,-1
 804 698 l 1,19,-1
 911 654 l 1,16,-1
EndSplineSet
EndChar

StartChar: uni315F
Encoding: 12639 12639 152
Width: 693
GlyphClass: 2
Flags: W
LayerCount: 2
Fore
SplineSet
647 680 m 1,0,-1
 644 1 l 1,1,-1
 528 17 l 1,2,-1
 543 135 l 1,3,-1
 356 122 l 1,4,-1
 364 40 l 1,5,-1
 262 0 l 1,6,-1
 304 118 l 1,7,-1
 98 101 l 1,8,-1
 70 88 l 1,9,-1
 22 200 l 1,10,-1
 549 182 l 1,11,-1
 616 700 l 1,12,-1
 647 680 l 1,0,-1
EndSplineSet
EndChar

StartChar: uni3160
Encoding: 12640 12640 153
Width: 610
GlyphClass: 2
Flags: W
LayerCount: 2
Fore
SplineSet
581 156 m 1,0,-1
 419 147 l 1,1,-1
 424 44 l 1,2,-1
 334 -2 l 1,3,-1
 363 145 l 1,4,-1
 276 141 l 1,5,-1
 280 48 l 1,6,-1
 191 2 l 1,7,-1
 217 138 l 1,8,-1
 25 128 l 1,9,-1
 67 192 l 1,10,-1
 91 178 l 1,11,-1
 581 247 l 1,12,-1
 581 156 l 1,0,-1
EndSplineSet
EndChar

StartChar: uni3161
Encoding: 12641 12641 154
Width: 793
GlyphClass: 2
Flags: W
LayerCount: 2
Fore
SplineSet
34 87 m 1,0,-1
 699 123 l 1,1,-1
 725 134 l 1,2,-1
 769 34 l 1,3,-1
 34 52 l 1,4,-1
 34 87 l 1,0,-1
EndSplineSet
EndChar

StartChar: uni3162
Encoding: 12642 12642 155
Width: 717
GlyphClass: 2
Flags: W
LayerCount: 2
Fore
SplineSet
111 98 m 1,0,-1
 83 85 l 1,1,-1
 35 197 l 1,2,-1
 563 179 l 1,3,-1
 630 698 l 1,4,-1
 661 678 l 1,5,-1
 658 -2 l 1,6,-1
 542 14 l 1,7,-1
 557 132 l 1,8,-1
 111 98 l 1,0,-1
EndSplineSet
EndChar

StartChar: uni3163
Encoding: 12643 12643 156
Width: 190
GlyphClass: 2
Flags: W
LayerCount: 2
Fore
SplineSet
34 700 m 1,0,-1
 158 740 l 1,1,-1
 115 40 l 1,2,-1
 69 44 l 1,3,-1
 34 700 l 1,0,-1
EndSplineSet
EndChar

StartChar: uniAC00
Encoding: 44032 44032 157
Width: 918
GlyphClass: 2
Flags: W
LayerCount: 2
Fore
SplineSet
554 -19 m 1,0,-1
 632 728 l 1,1,-1
 762 654 l 1,2,-1
 693 339 l 1,3,-1
 914 383 l 1,4,-1
 835 225 l 1,5,-1
 676 253 l 1,6,-1
 607 -26 l 1,7,-1
 554 -19 l 1,0,-1
314 -85 m 1,8,-1
 375 484 l 1,9,-1
 87 437 l 1,10,-1
 51 532 l 1,11,-1
 146 526 l 1,12,-1
 554 612 l 1,13,-1
 365 -87 l 1,14,-1
 314 -85 l 1,8,-1
EndSplineSet
EndChar

StartChar: uniAC01
Encoding: 44033 44033 158
Width: 821
GlyphClass: 2
Flags: W
LayerCount: 2
Fore
SplineSet
394 -153 m 1,0,-1
 780 -117 l 1,1,-1
 617 -503 l 1,2,-1
 573 -503 l 1,3,-1
 626 -207 l 1,4,-1
 345 -219 l 1,5,-1
 315 -143 l 1,6,-1
 394 -153 l 1,0,-1
740 295 m 1,7,-1
 715 182 l 1,8,-1
 595 205 l 1,9,-1
 561 -73 l 1,10,-1
 515 -89 l 1,11,-1
 535 557 l 1,12,-1
 641 506 l 1,13,-1
 602 272 l 1,14,-1
 740 295 l 1,7,-1
360 316 m 1,15,-1
 98 287 l 1,16,-1
 24 362 l 1,17,-1
 96 359 l 1,18,-1
 469 440 l 1,19,-1
 436 -59 l 1,20,-1
 367 0 l 1,21,-1
 360 316 l 1,15,-1
EndSplineSet
EndChar

StartChar: uniAC04
Encoding: 44036 44036 159
Width: 887
GlyphClass: 2
Flags: W
LayerCount: 2
Fore
SplineSet
355 -207 m 1,0,-1
 834 -174 l 1,1,-1
 833 -227 l 1,2,-1
 244 -300 l 1,3,-1
 252 -11 l 1,4,-1
 198 22 l 1,5,-1
 340 10 l 1,6,-1
 355 -207 l 1,0,-1
399 424 m 1,7,-1
 118 393 l 1,8,-1
 39 473 l 1,9,-1
 116 470 l 1,10,-1
 516 557 l 1,11,-1
 480 22 l 1,12,-1
 406 85 l 1,13,-1
 399 424 l 1,7,-1
806 371 m 1,14,-1
 779 249 l 1,15,-1
 651 274 l 1,16,-1
 614 39 l 1,17,-1
 565 22 l 1,18,-1
 586 651 l 1,19,-1
 700 597 l 1,20,-1
 658 346 l 1,21,-1
 806 371 l 1,14,-1
EndSplineSet
EndChar

StartChar: uniAC08
Encoding: 44040 44040 160
Width: 774
GlyphClass: 2
Flags: W
LayerCount: 2
Fore
SplineSet
381 699 m 1,0,-1
 92 649 l 1,1,-1
 16 726 l 1,2,-1
 90 723 l 1,3,-1
 473 806 l 1,4,-1
 439 348 l 1,5,-1
 368 294 l 1,6,-1
 381 699 l 1,0,-1
267 -39 m 1,7,-1
 267 9 l 1,8,-1
 263 111 l 1,9,-1
 245 138 l 1,10,-1
 323 134 l 1,11,-1
 561 141 l 1,12,-1
 553 202 l 1,13,-1
 278 202 l 1,14,-1
 262 240 l 1,15,-1
 298 228 l 1,16,-1
 644 253 l 1,17,-1
 641 241 l 1,18,-1
 637 92 l 1,19,-1
 600 84 l 1,20,-1
 343 82 l 1,21,-1
 354 13 l 1,22,-1
 626 17 l 1,23,-1
 656 28 l 1,24,-1
 679 -13 l 1,25,-1
 267 -39 l 1,7,-1
751 627 m 1,26,-1
 725 511 l 1,27,-1
 602 535 l 1,28,-1
 567 356 l 1,29,-1
 520 320 l 1,30,-1
 540 896 l 1,31,-1
 649 844 l 1,32,-1
 609 604 l 1,33,-1
 751 627 l 1,26,-1
EndSplineSet
EndChar

StartChar: uniAC10
Encoding: 44048 44048 161
Width: 844
GlyphClass: 2
Flags: W
LayerCount: 2
Fore
SplineSet
370 -30 m 1,0,-1
 775 -10 l 1,1,-1
 732 -278 l 1,2,-1
 687 -271 l 1,3,-1
 677 -97 l 1,4,-1
 411 -103 l 1,5,-1
 411 -310 l 1,6,-1
 729 -301 l 1,7,-1
 727 -343 l 1,8,-1
 290 -383 l 1,9,-1
 318 -71 l 1,10,-1
 264 -17 l 1,11,-1
 347 -29 l 1,12,-1
 370 -30 l 1,0,-1
398 463 m 1,13,-1
 106 431 l 1,14,-1
 23 515 l 1,15,-1
 103 511 l 1,16,-1
 519 602 l 1,17,-1
 483 104 l 1,18,-1
 406 45 l 1,19,-1
 398 463 l 1,13,-1
822 408 m 1,20,-1
 794 282 l 1,21,-1
 660 307 l 1,22,-1
 622 112 l 1,23,-1
 571 74 l 1,24,-1
 593 700 l 1,25,-1
 711 643 l 1,26,-1
 668 382 l 1,27,-1
 822 408 l 1,20,-1
EndSplineSet
EndChar

StartChar: uniAC12
Encoding: 44050 44050 162
Width: 753
GlyphClass: 2
Flags: W
LayerCount: 2
Fore
SplineSet
353 518 m 1,0,-1
 81 521 l 1,1,-1
 14 607 l 1,2,-1
 87 595 l 1,3,-1
 480 632 l 1,4,-1
 391 178 l 1,5,-1
 314 132 l 1,6,-1
 353 518 l 1,0,-1
735 429 m 1,7,-1
 709 312 l 1,8,-1
 585 336 l 1,9,-1
 550 155 l 1,10,-1
 502 120 l 1,11,-1
 523 700 l 1,12,-1
 632 647 l 1,13,-1
 592 405 l 1,14,-1
 735 429 l 1,7,-1
537 13 m 2,15,16
 539 18 539 18 538 20.5 c 128,-1,17
 537 23 537 23 536 28 c 2,18,-1
 507 60 l 1,19,-1
 612 27 l 1,20,-1
 607 17 l 1,21,-1
 690 -162 l 1,22,-1
 607 -113 l 1,23,-1
 574 -22 l 1,24,-1
 521 -118 l 1,25,-1
 442 -165 l 1,26,-1
 537 13 l 2,15,16
382 -58 m 1,27,-1
 319 -66 l 1,28,-1
 320 -127 l 1,29,-1
 428 -113 l 1,30,-1
 427 -140 l 1,31,-1
 257 -174 l 1,32,-1
 263 66 l 1,33,-1
 241 85 l 1,34,-1
 315 77 l 1,35,-1
 318 -32 l 1,36,-1
 381 -10 l 1,37,-1
 375 65 l 1,38,-1
 428 76 l 1,39,-1
 423 -107 l 1,40,-1
 385 -103 l 1,41,-1
 382 -58 l 1,27,-1
EndSplineSet
EndChar

StartChar: uniAC15
Encoding: 44053 44053 163
Width: 778
GlyphClass: 2
Flags: W
LayerCount: 2
Fore
SplineSet
363 735 m 1,0,-1
 99 706 l 1,1,-1
 24 781 l 1,2,-1
 97 778 l 1,3,-1
 473 860 l 1,4,-1
 439 411 l 1,5,-1
 370 357 l 1,6,-1
 363 735 l 1,0,-1
746 685 m 1,7,-1
 720 571 l 1,8,-1
 600 594 l 1,9,-1
 565 418 l 1,10,-1
 519 383 l 1,11,-1
 539 949 l 1,12,-1
 646 898 l 1,13,-1
 607 662 l 1,14,-1
 746 685 l 1,7,-1
533 247 m 1,15,16
 575 254 575 254 608 247 c 0,17,18
 622 244 622 244 635.5 237.5 c 128,-1,19
 649 231 649 231 659.5 220 c 128,-1,20
 670 209 670 209 676.5 192 c 128,-1,21
 683 175 683 175 683 151 c 0,22,23
 683 122 683 122 675.5 101 c 128,-1,24
 668 80 668 80 655.5 65 c 128,-1,25
 643 50 643 50 627 39.5 c 128,-1,26
 611 29 611 29 595 23 c 0,27,28
 556 8 556 8 507 8 c 256,29,30
 458 8 458 8 420 23 c 0,31,32
 404 29 404 29 388.5 39.5 c 128,-1,33
 373 50 373 50 361 65 c 128,-1,34
 349 80 349 80 341.5 101 c 128,-1,35
 334 122 334 122 334 151 c 0,36,37
 334 179 334 179 341.5 200.5 c 128,-1,38
 349 222 349 222 361.5 238 c 128,-1,39
 374 254 374 254 389.5 264.5 c 128,-1,40
 405 275 405 275 422 282 c 0,41,42
 461 298 461 298 511 300 c 1,43,-1
 479 342 l 1,44,-1
 548 313 l 1,45,-1
 547 264 l 1,46,47
 514 264 514 264 487.5 259.5 c 128,-1,48
 461 255 461 255 442.5 243 c 128,-1,49
 424 231 424 231 414.5 209.5 c 128,-1,50
 405 188 405 188 405 153 c 0,51,52
 405 128 405 128 418 112 c 128,-1,53
 431 96 431 96 448.5 86.5 c 128,-1,54
 466 77 466 77 483.5 73 c 128,-1,55
 501 69 501 69 510 69 c 0,56,57
 518 69 518 69 536 69.5 c 128,-1,58
 554 70 554 70 572 77 c 128,-1,59
 590 84 590 84 603.5 101 c 128,-1,60
 617 118 617 118 617 151 c 0,61,62
 617 191 617 191 602 209 c 128,-1,63
 587 227 587 227 570 233 c 0,64,65
 549 240 549 240 523 235 c 1,66,-1
 533 247 l 1,15,16
EndSplineSet
EndChar

StartChar: uniAC19
Encoding: 44057 44057 164
Width: 850
GlyphClass: 2
Flags: W
LayerCount: 2
Fore
SplineSet
382 139 m 1,0,-1
 388 63 l 1,1,-1
 704 61 l 1,2,-1
 702 19 l 1,3,-1
 390 -5 l 1,4,-1
 393 -84 l 1,5,-1
 393 -94 l 1,6,-1
 729 -60 l 1,7,-1
 726 -101 l 1,8,-1
 295 -158 l 1,9,-1
 321 192 l 1,10,-1
 281 232 l 1,11,-1
 382 212 l 1,12,-1
 753 183 l 1,13,-1
 720 148 l 1,14,-1
 382 139 l 1,0,-1
391 633 m 1,15,-1
 144 606 l 1,16,-1
 73 676 l 1,17,-1
 143 673 l 1,18,-1
 495 750 l 1,19,-1
 464 278 l 1,20,-1
 398 333 l 1,21,-1
 391 633 l 1,15,-1
794 613 m 1,22,-1
 772 505 l 1,23,-1
 649 527 l 1,24,-1
 609 265 l 1,25,-1
 566 249 l 1,26,-1
 592 860 l 1,27,-1
 693 814 l 1,28,-1
 657 592 l 1,29,-1
 794 613 l 1,22,-1
EndSplineSet
EndChar

StartChar: uniAC1C
Encoding: 44060 44060 165
Width: 924
GlyphClass: 2
Flags: W
LayerCount: 2
Fore
SplineSet
614 17 m 1,0,-1
 564 0 l 1,1,-1
 586 700 l 1,2,-1
 701 645 l 1,3,-1
 658 391 l 1,4,-1
 775 411 l 1,5,-1
 801 605 l 1,6,-1
 890 550 l 1,7,-1
 768 47 l 1,8,-1
 726 37 l 1,9,-1
 760 298 l 1,10,-1
 651 319 l 1,11,-1
 614 17 l 1,0,-1
396 509 m 1,12,-1
 112 478 l 1,13,-1
 32 559 l 1,14,-1
 110 556 l 1,15,-1
 514 643 l 1,16,-1
 478 33 l 1,17,-1
 404 96 l 1,18,-1
 396 509 l 1,12,-1
EndSplineSet
EndChar

StartChar: uniAC1D
Encoding: 44061 44061 166
Width: 881
GlyphClass: 2
Flags: W
LayerCount: 2
Fore
SplineSet
602 146 m 1,0,-1
 556 130 l 1,1,-1
 576 776 l 1,2,-1
 682 725 l 1,3,-1
 643 491 l 1,4,-1
 751 509 l 1,5,-1
 775 688 l 1,6,-1
 857 638 l 1,7,-1
 744 173 l 1,8,-1
 705 164 l 1,9,-1
 737 393 l 1,10,-1
 636 413 l 1,11,-1
 602 146 l 1,0,-1
395 66 m 1,12,-1
 781 102 l 1,13,-1
 618 -284 l 1,14,-1
 574 -284 l 1,15,-1
 627 12 l 1,16,-1
 346 0 l 1,17,-1
 316 76 l 1,18,-1
 395 66 l 1,12,-1
361 535 m 1,19,-1
 99 506 l 1,20,-1
 25 581 l 1,21,-1
 97 578 l 1,22,-1
 470 659 l 1,23,-1
 437 160 l 1,24,-1
 368 219 l 1,25,-1
 361 535 l 1,19,-1
EndSplineSet
EndChar

StartChar: uniAC70
Encoding: 44144 44144 167
Width: 808
GlyphClass: 2
Flags: W
LayerCount: 2
Fore
SplineSet
539 698 m 1,0,-1
 345 -2 l 1,1,-1
 292 -2 l 1,2,-1
 357 587 l 1,3,-1
 62 537 l 1,4,-1
 24 615 l 1,5,-1
 118 615 l 1,6,-1
 539 698 l 1,0,-1
781 628 m 1,7,-1
 648 5 l 1,8,-1
 607 9 l 1,9,-1
 626 308 l 1,10,-1
 530 289 l 1,11,-1
 503 441 l 1,12,-1
 632 365 l 1,13,-1
 656 691 l 1,14,-1
 781 628 l 1,7,-1
EndSplineSet
EndChar

StartChar: uniAC74
Encoding: 44148 44148 168
Width: 756
GlyphClass: 2
Flags: W
LayerCount: 2
Fore
SplineSet
381 -53 m 1,0,-1
 721 -39 l 1,1,-1
 719 -83 l 1,2,-1
 287 -126 l 1,3,-1
 303 110 l 1,4,-1
 259 139 l 1,5,-1
 375 125 l 1,6,-1
 381 -53 l 1,0,-1
502 702 m 1,7,-1
 325 198 l 1,8,-1
 276 198 l 1,9,-1
 335 601 l 1,10,-1
 67 556 l 1,11,-1
 32 627 l 1,12,-1
 118 627 l 1,13,-1
 502 702 l 1,7,-1
721 638 m 1,14,-1
 601 204 l 1,15,-1
 563 208 l 1,16,-1
 581 414 l 1,17,-1
 493 396 l 1,18,-1
 469 535 l 1,19,-1
 586 466 l 1,20,-1
 608 696 l 1,21,-1
 721 638 l 1,14,-1
EndSplineSet
EndChar

StartChar: uniAC78
Encoding: 44152 44152 169
Width: 788
GlyphClass: 2
Flags: W
LayerCount: 2
Fore
SplineSet
269 -223 m 1,0,-1
 269 -168 l 1,1,-1
 265 -52 l 1,2,-1
 244 -21 l 1,3,-1
 333 -26 l 1,4,-1
 604 -17 l 1,5,-1
 595 52 l 1,6,-1
 282 52 l 1,7,-1
 263 95 l 1,8,-1
 304 81 l 1,9,-1
 699 110 l 1,10,-1
 696 96 l 1,11,-1
 691 -74 l 1,12,-1
 649 -83 l 1,13,-1
 356 -85 l 1,14,-1
 369 -163 l 1,15,-1
 678 -159 l 1,16,-1
 713 -146 l 1,17,-1
 739 -193 l 1,18,-1
 269 -223 l 1,0,-1
521 722 m 1,19,-1
 331 179 l 1,20,-1
 279 179 l 1,21,-1
 342 613 l 1,22,-1
 53 564 l 1,23,-1
 16 641 l 1,24,-1
 108 641 l 1,25,-1
 521 722 l 1,19,-1
764 653 m 1,26,-1
 635 186 l 1,27,-1
 594 190 l 1,28,-1
 613 412 l 1,29,-1
 519 392 l 1,30,-1
 493 542 l 1,31,-1
 619 467 l 1,32,-1
 642 715 l 1,33,-1
 764 653 l 1,26,-1
EndSplineSet
EndChar

StartChar: uniAC80
Encoding: 44160 44160 170
Width: 786
GlyphClass: 2
Flags: W
LayerCount: 2
Fore
SplineSet
298 374 m 1,0,-1
 665 392 l 1,1,-1
 626 148 l 1,2,-1
 585 154 l 1,3,-1
 577 313 l 1,4,-1
 334 307 l 1,5,-1
 334 120 l 1,6,-1
 624 127 l 1,7,-1
 622 89 l 1,8,-1
 225 53 l 1,9,-1
 250 337 l 1,10,-1
 201 386 l 1,11,-1
 276 375 l 1,12,-1
 298 374 l 1,0,-1
525 983 m 1,13,-1
 337 447 l 1,14,-1
 286 447 l 1,15,-1
 348 876 l 1,16,-1
 63 828 l 1,17,-1
 26 903 l 1,18,-1
 117 903 l 1,19,-1
 525 983 l 1,13,-1
759 915 m 1,20,-1
 631 454 l 1,21,-1
 590 458 l 1,22,-1
 609 677 l 1,23,-1
 516 658 l 1,24,-1
 490 805 l 1,25,-1
 615 732 l 1,26,-1
 638 977 l 1,27,-1
 759 915 l 1,20,-1
EndSplineSet
EndChar

StartChar: uniAC83
Encoding: 44163 44163 171
Width: 735
GlyphClass: 2
Flags: W
LayerCount: 2
Fore
SplineSet
420 -199 m 2,0,1
 424 -192 424 -192 423 -188 c 128,-1,2
 422 -184 422 -184 420 -177 c 2,3,-1
 383 -126 l 1,4,-1
 534 -189 l 1,5,-1
 524 -203 l 1,6,-1
 624 -478 l 1,7,-1
 507 -395 l 1,8,-1
 465 -280 l 1,9,-1
 309 -457 l 1,10,-1
 163 -512 l 1,11,-1
 420 -199 l 2,0,1
488 377 m 1,12,-1
 312 -126 l 1,13,-1
 264 -126 l 1,14,-1
 322 276 l 1,15,-1
 55 231 l 1,16,-1
 20 302 l 1,17,-1
 106 302 l 1,18,-1
 488 377 l 1,12,-1
707 313 m 1,19,-1
 587 -120 l 1,20,-1
 549 -116 l 1,21,-1
 567 89 l 1,22,-1
 480 71 l 1,23,-1
 455 210 l 1,24,-1
 572 141 l 1,25,-1
 594 370 l 1,26,-1
 707 313 l 1,19,-1
EndSplineSet
EndChar

StartChar: uniAC8C
Encoding: 44172 44172 172
Width: 911
GlyphClass: 2
Flags: W
LayerCount: 2
Fore
SplineSet
732 562 m 1,0,-1
 638 119 l 1,1,-1
 613 122 l 1,2,-1
 627 328 l 1,3,-1
 547 314 l 1,4,-1
 528 436 l 1,5,-1
 631 382 l 1,6,-1
 648 607 l 1,7,-1
 732 562 l 1,0,-1
892 710 m 1,8,-1
 751 -33 l 1,9,-1
 716 -28 l 1,10,-1
 770 787 l 1,11,-1
 892 710 l 1,8,-1
566 703 m 1,12,-1
 362 -33 l 1,13,-1
 306 -33 l 1,14,-1
 374 586 l 1,15,-1
 64 534 l 1,16,-1
 24 616 l 1,17,-1
 123 616 l 1,18,-1
 566 703 l 1,12,-1
EndSplineSet
EndChar

StartChar: uniACA0
Encoding: 44192 44192 173
Width: 776
GlyphClass: 2
Flags: W
LayerCount: 2
Fore
SplineSet
459 414 m 1,0,-1
 293 -186 l 1,1,-1
 248 -186 l 1,2,-1
 303 318 l 1,3,-1
 51 276 l 1,4,-1
 18 343 l 1,5,-1
 99 343 l 1,6,-1
 459 414 l 1,0,-1
751 419 m 1,7,-1
 636 -186 l 1,8,-1
 607 -182 l 1,9,-1
 651 482 l 1,10,-1
 751 419 l 1,7,-1
617 390 m 1,11,-1
 541 -154 l 1,12,-1
 498 -151 l 1,13,-1
 509 108 l 1,14,-1
 444 97 l 1,15,-1
 428 196 l 1,16,-1
 512 152 l 1,17,-1
 526 427 l 1,18,-1
 617 390 l 1,11,-1
625 -298 m 1,19,-1
 710 -535 l 1,20,-1
 610 -464 l 1,21,-1
 574 -365 l 1,22,-1
 457 -528 l 1,23,-1
 342 -576 l 1,24,-1
 429 -456 l 1,25,-1
 393 -360 l 1,26,-1
 269 -528 l 1,27,-1
 146 -580 l 1,28,-1
 359 -286 l 2,29,30
 361 -282 361 -282 361.5 -280 c 128,-1,31
 362 -278 362 -278 362 -276 c 2,32,-1
 359 -267 l 1,33,-1
 316 -212 l 1,34,-1
 460 -269 l 1,35,-1
 442 -291 l 1,36,-1
 467 -403 l 1,37,-1
 541 -301 l 2,38,39
 545 -295 545 -295 544 -291 c 128,-1,40
 543 -287 543 -287 541 -281 c 2,41,-1
 503 -232 l 1,42,-1
 633 -286 l 1,43,-1
 625 -298 l 1,19,-1
EndSplineSet
EndChar

StartChar: uniACA8
Encoding: 44200 44200 174
Width: 818
GlyphClass: 2
Flags: W
LayerCount: 2
Fore
SplineSet
519 376 m 1,0,-1
 330 -324 l 1,1,-1
 278 -323 l 1,2,-1
 341 237 l 1,3,-1
 54 191 l 1,4,-1
 19 296 l 1,5,-1
 112 296 l 1,6,-1
 519 376 l 1,0,-1
797 303 m 1,7,-1
 663 -317 l 1,8,-1
 611 -314 l 1,9,-1
 630 -92 l 1,10,-1
 538 -106 l 1,11,-1
 512 37 l 1,12,-1
 633 -2 l 1,13,-1
 641 81 l 1,14,-1
 541 69 l 1,15,-1
 515 213 l 1,16,-1
 644 171 l 1,17,-1
 662 369 l 1,18,-1
 797 303 l 1,7,-1
EndSplineSet
EndChar

StartChar: uniACA9
Encoding: 44201 44201 175
Width: 773
GlyphClass: 2
Flags: W
LayerCount: 2
Fore
SplineSet
314 309 m 1,0,-1
 655 341 l 1,1,-1
 511 0 l 1,2,-1
 472 0 l 1,3,-1
 519 262 l 1,4,-1
 270 251 l 1,5,-1
 244 318 l 1,6,-1
 314 309 l 1,0,-1
489 941 m 1,7,-1
 311 415 l 1,8,-1
 262 415 l 1,9,-1
 321 811 l 1,10,-1
 51 767 l 1,11,-1
 18 866 l 1,12,-1
 105 866 l 1,13,-1
 489 941 l 1,7,-1
751 880 m 1,14,-1
 625 381 l 1,15,-1
 576 384 l 1,16,-1
 593 527 l 1,17,-1
 507 514 l 1,18,-1
 482 648 l 1,19,-1
 596 612 l 1,20,-1
 604 690 l 1,21,-1
 510 678 l 1,22,-1
 485 814 l 1,23,-1
 606 775 l 1,24,-1
 624 942 l 1,25,-1
 751 880 l 1,14,-1
EndSplineSet
EndChar

StartChar: uniACAC
Encoding: 44204 44204 176
Width: 778
GlyphClass: 2
Flags: W
LayerCount: 2
Fore
SplineSet
494 700 m 1,0,-1
 317 176 l 1,1,-1
 269 177 l 1,2,-1
 328 570 l 1,3,-1
 59 526 l 1,4,-1
 26 624 l 1,5,-1
 113 624 l 1,6,-1
 494 700 l 1,0,-1
755 639 m 1,7,-1
 630 142 l 1,8,-1
 581 145 l 1,9,-1
 598 287 l 1,10,-1
 512 274 l 1,11,-1
 488 408 l 1,12,-1
 601 372 l 1,13,-1
 608 449 l 1,14,-1
 515 438 l 1,15,-1
 491 573 l 1,16,-1
 611 534 l 1,17,-1
 628 700 l 1,18,-1
 755 639 l 1,7,-1
345 -135 m 1,19,-1
 713 -101 l 1,20,-1
 712 -155 l 1,21,-1
 231 -230 l 1,22,-1
 240 65 l 1,23,-1
 184 99 l 1,24,-1
 330 87 l 1,25,-1
 345 -135 l 1,19,-1
EndSplineSet
EndChar

StartChar: uniACB0
Encoding: 44208 44208 177
Width: 759
GlyphClass: 2
Flags: W
LayerCount: 2
Fore
SplineSet
220 -436 m 1,0,-1
 220 -377 l 1,1,-1
 215 -251 l 1,2,-1
 193 -218 l 1,3,-1
 289 -223 l 1,4,-1
 582 -214 l 1,5,-1
 572 -148 l 1,6,-1
 234 -148 l 1,7,-1
 213 -92 l 1,8,-1
 258 -107 l 1,9,-1
 685 -76 l 1,10,-1
 681 -91 l 1,11,-1
 676 -275 l 1,12,-1
 630 -284 l 1,13,-1
 314 -286 l 1,14,-1
 328 -372 l 1,15,-1
 662 -366 l 1,16,-1
 700 -353 l 1,17,-1
 728 -404 l 1,18,-1
 220 -436 l 1,0,-1
460 491 m 1,19,-1
 294 0 l 1,20,-1
 249 1 l 1,21,-1
 304 369 l 1,22,-1
 52 329 l 1,23,-1
 21 421 l 1,24,-1
 102 421 l 1,25,-1
 460 491 l 1,19,-1
705 434 m 1,26,-1
 588 -31 l 1,27,-1
 542 -29 l 1,28,-1
 558 105 l 1,29,-1
 477 92 l 1,30,-1
 454 218 l 1,31,-1
 561 184 l 1,32,-1
 567 257 l 1,33,-1
 480 246 l 1,34,-1
 457 372 l 1,35,-1
 570 336 l 1,36,-1
 586 492 l 1,37,-1
 705 434 l 1,26,-1
EndSplineSet
EndChar

StartChar: uniACBD
Encoding: 44221 44221 178
Width: 892
GlyphClass: 2
Flags: W
LayerCount: 2
Fore
SplineSet
564 1186 m 1,0,-1
 360 583 l 1,1,-1
 305 584 l 1,2,-1
 372 1036 l 1,3,-1
 63 987 l 1,4,-1
 25 1099 l 1,5,-1
 125 1099 l 1,6,-1
 564 1186 l 1,0,-1
864 1116 m 1,7,-1
 720 545 l 1,8,-1
 664 548 l 1,9,-1
 684 712 l 1,10,-1
 585 697 l 1,11,-1
 557 850 l 1,12,-1
 687 809 l 1,13,-1
 695 898 l 1,14,-1
 588 885 l 1,15,-1
 560 1040 l 1,16,-1
 699 996 l 1,17,-1
 718 1187 l 1,18,-1
 864 1116 l 1,7,-1
561 381 m 1,19,20
 625 391 625 391 676 380 c 0,21,22
 697 375 697 375 718 365 c 128,-1,23
 739 355 739 355 755 338 c 128,-1,24
 771 321 771 321 781 295 c 128,-1,25
 791 269 791 269 791 232 c 0,26,27
 791 188 791 188 779.5 155.5 c 128,-1,28
 768 123 768 123 749 99.5 c 128,-1,29
 730 76 730 76 705.5 60.5 c 128,-1,30
 681 45 681 45 656 35 c 0,31,32
 596 12 596 12 521 12 c 256,33,34
 446 12 446 12 388 35 c 0,35,36
 363 45 363 45 339.5 60.5 c 128,-1,37
 316 76 316 76 297.5 99.5 c 128,-1,38
 279 123 279 123 267.5 155.5 c 128,-1,39
 256 188 256 188 256 232 c 0,40,41
 256 275 256 275 267.5 308.5 c 128,-1,42
 279 342 279 342 298.5 366 c 128,-1,43
 318 390 318 390 342 406.5 c 128,-1,44
 366 423 366 423 392 434 c 0,45,46
 452 459 452 459 528 462 c 1,47,-1
 479 526 l 1,48,-1
 584 482 l 1,49,-1
 583 406 l 1,50,51
 531 406 531 406 490.5 399.5 c 128,-1,52
 450 393 450 393 422 374 c 128,-1,53
 394 355 394 355 379 322 c 128,-1,54
 364 289 364 289 364 235 c 0,55,56
 364 197 364 197 384.5 172.5 c 128,-1,57
 405 148 405 148 432 133.5 c 128,-1,58
 459 119 459 119 485.5 113 c 128,-1,59
 512 107 512 107 525 107 c 256,60,61
 538 107 538 107 565.5 107.5 c 128,-1,62
 593 108 593 108 621 119 c 128,-1,63
 649 130 649 130 670 156 c 128,-1,64
 691 182 691 182 691 232 c 0,65,66
 691 263 691 263 684.5 285 c 128,-1,67
 678 307 678 307 668 322 c 128,-1,68
 658 337 658 337 644.5 345.5 c 128,-1,69
 631 354 631 354 618 359 c 0,70,71
 585 370 585 370 545 362 c 1,72,-1
 561 381 l 1,19,20
EndSplineSet
EndChar

StartChar: uniACC4
Encoding: 44228 44228 179
Width: 865
GlyphClass: 2
Flags: W
LayerCount: 2
Fore
SplineSet
675 440 m 1,0,-1
 588 35 l 1,1,-1
 554 37 l 1,2,-1
 566 182 l 1,3,-1
 506 173 l 1,4,-1
 489 266 l 1,5,-1
 568 241 l 1,6,-1
 573 295 l 1,7,-1
 508 287 l 1,8,-1
 491 381 l 1,9,-1
 575 354 l 1,10,-1
 587 483 l 1,11,-1
 675 440 l 1,0,-1
841 576 m 1,12,-1
 710 -105 l 1,13,-1
 678 -99 l 1,14,-1
 729 646 l 1,15,-1
 841 576 l 1,12,-1
522 590 m 1,16,-1
 334 -106 l 1,17,-1
 283 -105 l 1,18,-1
 345 452 l 1,19,-1
 60 406 l 1,20,-1
 25 510 l 1,21,-1
 117 510 l 1,22,-1
 522 590 l 1,16,-1
EndSplineSet
EndChar

StartChar: uniACE0
Encoding: 44256 44256 180
Width: 963
GlyphClass: 2
Flags: W
LayerCount: 2
Fore
SplineSet
914 -260 m 1,0,-1
 914 -318 l 1,1,-1
 121 -339 l 1,2,-1
 66 -210 l 1,3,-1
 373 -228 l 1,4,-1
 362 -34 l 1,5,-1
 486 4 l 1,6,-1
 433 -231 l 1,7,-1
 914 -260 l 1,0,-1
258 96 m 1,8,-1
 222 163 l 1,9,-1
 314 163 l 1,10,-1
 825 236 l 1,11,-1
 633 -173 l 1,12,-1
 581 -171 l 1,13,-1
 643 138 l 1,14,-1
 258 96 l 1,8,-1
EndSplineSet
EndChar

StartChar: uniACE1
Encoding: 44257 44257 181
Width: 892
GlyphClass: 2
Flags: W
LayerCount: 2
Fore
SplineSet
249 111 m 1,0,-1
 702 150 l 1,1,-1
 524 -270 l 1,2,-1
 476 -270 l 1,3,-1
 534 52 l 1,4,-1
 196 39 l 1,5,-1
 163 122 l 1,6,-1
 249 111 l 1,0,-1
199 703 m 1,7,-1
 159 778 l 1,8,-1
 262 778 l 1,9,-1
 834 860 l 1,10,-1
 684 402 l 1,11,-1
 625 404 l 1,12,-1
 630 718 l 1,13,-1
 199 703 l 1,7,-1
816 280 m 1,14,-1
 816 247 l 1,15,-1
 111 224 l 1,16,-1
 49 336 l 1,17,-1
 393 316 l 1,18,-1
 380 468 l 1,19,-1
 519 510 l 1,20,-1
 460 312 l 1,21,-1
 816 280 l 1,14,-1
EndSplineSet
EndChar

StartChar: uniACE8
Encoding: 44264 44264 182
Width: 892
GlyphClass: 2
Flags: W
LayerCount: 2
Fore
SplineSet
219 -420 m 1,0,-1
 219 -352 l 1,1,-1
 213 -209 l 1,2,-1
 187 -171 l 1,3,-1
 297 -177 l 1,4,-1
 631 -167 l 1,5,-1
 620 -92 l 1,6,-1
 234 -92 l 1,7,-1
 210 -28 l 1,8,-1
 261 -45 l 1,9,-1
 748 -10 l 1,10,-1
 744 -27 l 1,11,-1
 738 -236 l 1,12,-1
 686 -247 l 1,13,-1
 325 -249 l 1,14,-1
 341 -347 l 1,15,-1
 723 -341 l 1,16,-1
 765 -325 l 1,17,-1
 797 -383 l 1,18,-1
 219 -420 l 1,0,-1
225 518 m 1,19,-1
 187 588 l 1,20,-1
 284 588 l 1,21,-1
 823 665 l 1,22,-1
 682 234 l 1,23,-1
 627 236 l 1,24,-1
 631 532 l 1,25,-1
 225 518 l 1,19,-1
806 119 m 1,26,-1
 806 88 l 1,27,-1
 142 66 l 1,28,-1
 84 172 l 1,29,-1
 408 153 l 1,30,-1
 396 296 l 1,31,-1
 527 336 l 1,32,-1
 471 150 l 1,33,-1
 806 119 l 1,26,-1
EndSplineSet
EndChar

StartChar: uniACF3
Encoding: 44275 44275 183
Width: 1025
GlyphClass: 2
Flags: W
LayerCount: 2
Fore
SplineSet
240 546 m 1,0,-1
 196 627 l 1,1,-1
 307 627 l 1,2,-1
 923 715 l 1,3,-1
 762 222 l 1,4,-1
 699 224 l 1,5,-1
 704 562 l 1,6,-1
 240 546 l 1,0,-1
904 90 m 1,7,-1
 904 55 l 1,8,-1
 145 30 l 1,9,-1
 78 151 l 1,10,-1
 448 129 l 1,11,-1
 435 293 l 1,12,-1
 584 339 l 1,13,-1
 521 125 l 1,14,-1
 904 90 l 1,7,-1
433 -151 m 2,15,16
 438 -142 438 -142 436 -136.5 c 128,-1,17
 434 -131 434 -131 432 -122 c 1,18,-1
 380 -57 l 1,19,-1
 581 -133 l 1,20,-1
 568 -152 l 1,21,-1
 711 -509 l 1,22,-1
 554 -405 l 1,23,-1
 495 -256 l 1,24,-1
 263 -495 l 1,25,-1
 73 -574 l 1,26,-1
 433 -151 l 2,15,16
EndSplineSet
EndChar

StartChar: uniACF5
Encoding: 44277 44277 184
Width: 1046
GlyphClass: 2
Flags: W
LayerCount: 2
Fore
SplineSet
570 -468 m 1,0,1
 635 -458 635 -458 687 -469 c 0,2,3
 709 -474 709 -474 730.5 -484 c 128,-1,4
 752 -494 752 -494 768.5 -512 c 128,-1,5
 785 -530 785 -530 795 -556.5 c 128,-1,6
 805 -583 805 -583 805 -620 c 0,7,8
 805 -665 805 -665 793 -698 c 128,-1,9
 781 -731 781 -731 761.5 -755 c 128,-1,10
 742 -779 742 -779 717.5 -795 c 128,-1,11
 693 -811 693 -811 667 -821 c 0,12,13
 606 -845 606 -845 530 -845 c 256,14,15
 454 -845 454 -845 394 -821 c 0,16,17
 368 -811 368 -811 344 -795 c 128,-1,18
 320 -779 320 -779 300.5 -755 c 128,-1,19
 281 -731 281 -731 269.5 -698 c 128,-1,20
 258 -665 258 -665 258 -620 c 256,21,22
 258 -575 258 -575 270 -541.5 c 128,-1,23
 282 -508 282 -508 301.5 -483 c 128,-1,24
 321 -458 321 -458 346 -441 c 128,-1,25
 371 -424 371 -424 397 -413 c 0,26,27
 458 -387 458 -387 536 -385 c 1,28,-1
 486 -319 l 1,29,-1
 594 -364 l 1,30,-1
 592 -442 l 1,31,32
 539 -442 539 -442 498 -449 c 128,-1,33
 457 -456 457 -456 428 -475 c 128,-1,34
 399 -494 399 -494 384 -528 c 128,-1,35
 369 -562 369 -562 369 -617 c 0,36,37
 369 -656 369 -656 389.5 -681.5 c 128,-1,38
 410 -707 410 -707 438 -721.5 c 128,-1,39
 466 -736 466 -736 493 -742 c 128,-1,40
 520 -748 520 -748 534 -748 c 0,41,42
 547 -748 547 -748 575 -747.5 c 128,-1,43
 603 -747 603 -747 631.5 -735.5 c 128,-1,44
 660 -724 660 -724 681.5 -697.5 c 128,-1,45
 703 -671 703 -671 703 -620 c 0,46,47
 703 -589 703 -589 696.5 -566.5 c 128,-1,48
 690 -544 690 -544 679.5 -528.5 c 128,-1,49
 669 -513 669 -513 655.5 -504.5 c 128,-1,50
 642 -496 642 -496 628 -491 c 0,51,52
 595 -480 595 -480 554 -487 c 1,53,-1
 570 -468 l 1,0,1
265 268 m 1,54,-1
 221 350 l 1,55,-1
 334 350 l 1,56,-1
 963 440 l 1,57,-1
 798 -63 l 1,58,-1
 734 -61 l 1,59,-1
 739 284 l 1,60,-1
 265 268 l 1,54,-1
944 -198 m 1,61,-1
 944 -234 l 1,62,-1
 168 -259 l 1,63,-1
 100 -136 l 1,64,-1
 478 -158 l 1,65,-1
 464 9 l 1,66,-1
 617 56 l 1,67,-1
 552 -162 l 1,68,-1
 944 -198 l 1,61,-1
EndSplineSet
EndChar

StartChar: uniACFC
Encoding: 44284 44284 185
Width: 1318
GlyphClass: 2
Flags: W
LayerCount: 2
Fore
SplineSet
1023 272 m 1,0,-1
 972 36 l 1,1,-1
 968 19 l 1,2,-1
 940 -116 l 1,3,-1
 884 -105 l 1,4,-1
 898 18 l 1,5,-1
 174 0 l 1,6,-1
 120 127 l 1,7,-1
 429 111 l 1,8,-1
 418 303 l 1,9,-1
 541 344 l 1,10,-1
 489 107 l 1,11,-1
 906 81 l 1,12,-1
 983 686 l 1,13,-1
 1120 719 l 1,14,-1
 1039 343 l 1,15,-1
 1190 355 l 1,16,-1
 1238 204 l 1,17,-1
 1023 272 l 1,0,-1
313 435 m 1,18,-1
 275 504 l 1,19,-1
 371 504 l 1,20,-1
 884 576 l 1,21,-1
 690 167 l 1,22,-1
 637 167 l 1,23,-1
 700 478 l 1,24,-1
 313 435 l 1,18,-1
EndSplineSet
EndChar

StartChar: uniAD00
Encoding: 44288 44288 186
Width: 1001
GlyphClass: 2
Flags: W
LayerCount: 2
Fore
SplineSet
783 295 m 1,0,-1
 740 97 l 1,1,-1
 737 83 l 1,2,-1
 713 -30 l 1,3,-1
 666 -21 l 1,4,-1
 678 82 l 1,5,-1
 71 67 l 1,6,-1
 26 174 l 1,7,-1
 285 160 l 1,8,-1
 276 291 l 1,9,-1
 379 326 l 1,10,-1
 335 157 l 1,11,-1
 685 135 l 1,12,-1
 749 642 l 1,13,-1
 864 670 l 1,14,-1
 796 355 l 1,15,-1
 923 365 l 1,16,-1
 963 238 l 1,17,-1
 783 295 l 1,0,-1
188 432 m 1,18,-1
 156 490 l 1,19,-1
 236 490 l 1,20,-1
 666 550 l 1,21,-1
 504 207 l 1,22,-1
 459 207 l 1,23,-1
 512 468 l 1,24,-1
 188 432 l 1,18,-1
398 -180 m 1,25,-1
 838 -148 l 1,26,-1
 826 -218 l 1,27,-1
 282 -271 l 1,28,-1
 328 -11 l 1,29,-1
 284 27 l 1,30,-1
 410 -3 l 1,31,-1
 398 -180 l 1,25,-1
EndSplineSet
EndChar

StartChar: uniAD11
Encoding: 44305 44305 187
Width: 991
GlyphClass: 2
Flags: W
LayerCount: 2
Fore
SplineSet
519 279 m 1,0,1
 575 288 575 288 619 278 c 0,2,3
 638 274 638 274 656 265.5 c 128,-1,4
 674 257 674 257 688 242 c 128,-1,5
 702 227 702 227 711 204 c 128,-1,6
 720 181 720 181 720 149 c 0,7,8
 720 111 720 111 710 82.5 c 128,-1,9
 700 54 700 54 683.5 33.5 c 128,-1,10
 667 13 667 13 645.5 -0.5 c 128,-1,11
 624 -14 624 -14 602 -23 c 0,12,13
 550 -43 550 -43 484 -43 c 256,14,15
 418 -43 418 -43 367 -23 c 0,16,17
 345 -14 345 -14 324.5 -0.5 c 128,-1,18
 304 13 304 13 287.5 33.5 c 128,-1,19
 271 54 271 54 261 82.5 c 128,-1,20
 251 111 251 111 251 149 c 256,21,22
 251 187 251 187 261 216 c 128,-1,23
 271 245 271 245 288 266.5 c 128,-1,24
 305 288 305 288 326 302.5 c 128,-1,25
 347 317 347 317 370 326 c 0,26,27
 423 348 423 348 490 351 c 1,28,-1
 446 407 l 1,29,-1
 539 368 l 1,30,-1
 537 301 l 1,31,32
 492 301 492 301 456.5 295.5 c 128,-1,33
 421 290 421 290 396.5 273.5 c 128,-1,34
 372 257 372 257 359 228 c 128,-1,35
 346 199 346 199 346 152 c 0,36,37
 346 119 346 119 364 97 c 128,-1,38
 382 75 382 75 405.5 62.5 c 128,-1,39
 429 50 429 50 452.5 45 c 128,-1,40
 476 40 476 40 487 40 c 0,41,42
 499 40 499 40 523 40.5 c 128,-1,43
 547 41 547 41 571 50.5 c 128,-1,44
 595 60 595 60 613.5 82.5 c 128,-1,45
 632 105 632 105 632 149 c 0,46,47
 632 203 632 203 612 227.5 c 128,-1,48
 592 252 592 252 568 260 c 0,49,50
 540 269 540 269 505 263 c 1,51,-1
 519 279 l 1,0,1
779 689 m 1,52,-1
 736 491 l 1,53,-1
 733 477 l 1,54,-1
 709 364 l 1,55,-1
 662 373 l 1,56,-1
 674 476 l 1,57,-1
 67 461 l 1,58,-1
 22 568 l 1,59,-1
 281 554 l 1,60,-1
 272 685 l 1,61,-1
 375 720 l 1,62,-1
 331 551 l 1,63,-1
 681 529 l 1,64,-1
 745 1036 l 1,65,-1
 860 1064 l 1,66,-1
 792 749 l 1,67,-1
 919 759 l 1,68,-1
 959 632 l 1,69,-1
 779 689 l 1,52,-1
184 826 m 1,70,-1
 152 884 l 1,71,-1
 232 884 l 1,72,-1
 662 944 l 1,73,-1
 500 601 l 1,74,-1
 455 601 l 1,75,-1
 508 862 l 1,76,-1
 184 826 l 1,70,-1
EndSplineSet
EndChar

StartChar: uniAD34
Encoding: 44340 44340 188
Width: 892
GlyphClass: 2
Flags: W
LayerCount: 2
Fore
SplineSet
771 10 m 1,0,-1
 745 -109 l 1,1,-1
 696 -100 l 1,2,-1
 708 9 l 1,3,-1
 69 -7 l 1,4,-1
 22 106 l 1,5,-1
 295 91 l 1,6,-1
 285 261 l 1,7,-1
 394 297 l 1,8,-1
 347 88 l 1,9,-1
 716 65 l 1,10,-1
 783 599 l 1,11,-1
 904 628 l 1,12,-1
 774 25 l 1,13,-1
 771 10 l 1,0,-1
193 377 m 1,14,-1
 159 438 l 1,15,-1
 243 438 l 1,16,-1
 696 502 l 1,17,-1
 525 141 l 1,18,-1
 478 141 l 1,19,-1
 534 415 l 1,20,-1
 193 377 l 1,14,-1
EndSplineSet
EndChar

StartChar: uniAD50
Encoding: 44368 44368 189
Width: 983
GlyphClass: 2
Flags: W
LayerCount: 2
Fore
SplineSet
929 160 m 1,0,-1
 919 88 l 1,1,-1
 102 68 l 1,2,-1
 42 212 l 1,3,-1
 337 193 l 1,4,-1
 324 411 l 1,5,-1
 463 457 l 1,6,-1
 403 189 l 1,7,-1
 533 182 l 1,8,-1
 521 390 l 1,9,-1
 660 436 l 1,10,-1
 602 178 l 1,11,-1
 929 160 l 1,0,-1
291 670 m 1,12,-1
 255 752 l 1,13,-1
 362 742 l 1,14,-1
 946 768 l 1,15,-1
 793 319 l 1,16,-1
 733 325 l 1,17,-1
 730 677 l 1,18,-1
 291 670 l 1,12,-1
EndSplineSet
EndChar

StartChar: uniAD6C
Encoding: 44396 44396 190
Width: 892
GlyphClass: 2
Flags: W
LayerCount: 2
Fore
SplineSet
111 694 m 1,0,-1
 70 768 l 1,1,-1
 173 768 l 1,2,-1
 742 849 l 1,3,-1
 527 393 l 1,4,-1
 470 396 l 1,5,-1
 539 740 l 1,6,-1
 111 694 l 1,0,-1
48 259 m 1,7,-1
 48 324 l 1,8,-1
 786 347 l 1,9,-1
 847 204 l 1,10,-1
 472 224 l 1,11,-1
 484 8 l 1,12,-1
 334 -35 l 1,13,-1
 392 227 l 1,14,-1
 48 259 l 1,7,-1
EndSplineSet
EndChar

StartChar: uniAD6D
Encoding: 44397 44397 191
Width: 957
GlyphClass: 2
Flags: W
LayerCount: 2
Fore
SplineSet
138 691 m 1,0,-1
 97 770 l 1,1,-1
 203 770 l 1,2,-1
 790 852 l 1,3,-1
 570 383 l 1,4,-1
 509 385 l 1,5,-1
 579 740 l 1,6,-1
 138 691 l 1,0,-1
69 258 m 1,7,-1
 68 325 l 1,8,-1
 828 377 l 1,9,-1
 896 231 l 1,10,-1
 497 245 l 1,11,-1
 518 88 l 1,12,-1
 376 39 l 1,13,-1
 427 247 l 1,14,-1
 69 258 l 1,7,-1
159 -99 m 1,15,-1
 120 -26 l 1,16,-1
 218 -26 l 1,17,-1
 769 51 l 1,18,-1
 562 -388 l 1,19,-1
 507 -386 l 1,20,-1
 573 -55 l 1,21,-1
 159 -99 l 1,15,-1
EndSplineSet
EndChar

StartChar: uniAD70
Encoding: 44400 44400 192
Width: 1005
GlyphClass: 2
Flags: W
LayerCount: 2
Fore
SplineSet
323 21 m 1,0,-1
 842 41 l 1,1,-1
 838 -22 l 1,2,-1
 188 -84 l 1,3,-1
 211 256 l 1,4,-1
 148 298 l 1,5,-1
 315 278 l 1,6,-1
 323 21 l 1,0,-1
85 487 m 1,7,-1
 84 555 l 1,8,-1
 862 608 l 1,9,-1
 931 459 l 1,10,-1
 548 473 l 1,11,-1
 569 313 l 1,12,-1
 424 263 l 1,13,-1
 476 476 l 1,14,-1
 85 487 l 1,7,-1
156 930 m 1,15,-1
 114 1010 l 1,16,-1
 223 1010 l 1,17,-1
 823 1095 l 1,18,-1
 597 614 l 1,19,-1
 535 617 l 1,20,-1
 607 980 l 1,21,-1
 156 930 l 1,15,-1
EndSplineSet
EndChar

StartChar: uniAD74
Encoding: 44404 44404 193
Width: 968
GlyphClass: 2
Flags: W
LayerCount: 2
Fore
SplineSet
163 -666 m 1,0,-1
 163 -586 l 1,1,-1
 157 -415 l 1,2,-1
 126 -370 l 1,3,-1
 256 -377 l 1,4,-1
 654 -365 l 1,5,-1
 640 -264 l 1,6,-1
 182 -264 l 1,7,-1
 154 -200 l 1,8,-1
 214 -220 l 1,9,-1
 793 -179 l 1,10,-1
 788 -199 l 1,11,-1
 781 -448 l 1,12,-1
 719 -460 l 1,13,-1
 290 -463 l 1,14,-1
 309 -579 l 1,15,-1
 763 -572 l 1,16,-1
 813 -553 l 1,17,-1
 851 -622 l 1,18,-1
 163 -666 l 1,0,-1
90 58 m 1,19,-1
 89 122 l 1,20,-1
 823 172 l 1,21,-1
 889 32 l 1,22,-1
 527 45 l 1,23,-1
 547 -106 l 1,24,-1
 410 -154 l 1,25,-1
 459 47 l 1,26,-1
 90 58 l 1,19,-1
157 476 m 1,27,-1
 118 552 l 1,28,-1
 220 552 l 1,29,-1
 786 632 l 1,30,-1
 573 178 l 1,31,-1
 515 181 l 1,32,-1
 583 523 l 1,33,-1
 157 476 l 1,27,-1
EndSplineSet
EndChar

StartChar: uniAD8C
Encoding: 44428 44428 194
Width: 1116
GlyphClass: 2
Flags: W
LayerCount: 2
Fore
SplineSet
272 -387 m 1,0,-1
 941 -366 l 1,1,-1
 937 -429 l 1,2,-1
 136 -492 l 1,3,-1
 159 -151 l 1,4,-1
 96 -109 l 1,5,-1
 264 -129 l 1,6,-1
 272 -387 l 1,0,-1
54 58 m 1,7,-1
 53 127 l 1,8,-1
 833 180 l 1,9,-1
 903 31 l 1,10,-1
 518 45 l 1,11,-1
 540 -116 l 1,12,-1
 394 -167 l 1,13,-1
 446 47 l 1,14,-1
 54 58 l 1,7,-1
164 502 m 1,15,-1
 123 583 l 1,16,-1
 231 583 l 1,17,-1
 833 668 l 1,18,-1
 607 186 l 1,19,-1
 545 189 l 1,20,-1
 617 553 l 1,21,-1
 164 502 l 1,15,-1
966 -145 m 1,22,-1
 717 -184 l 1,23,-1
 796 -24 l 1,24,-1
 961 -63 l 1,25,-1
 920 700 l 1,26,-1
 1066 641 l 1,27,-1
 1041 -250 l 1,28,-1
 978 -252 l 1,29,-1
 966 -145 l 1,22,-1
EndSplineSet
EndChar

StartChar: uniADC0
Encoding: 44480 44480 195
Width: 1178
GlyphClass: 2
Flags: W
LayerCount: 2
Fore
SplineSet
181 744 m 1,0,-1
 139 826 l 1,1,-1
 249 826 l 1,2,-1
 859 912 l 1,3,-1
 630 423 l 1,4,-1
 567 426 l 1,5,-1
 640 795 l 1,6,-1
 181 744 l 1,0,-1
1104 922 m 1,7,-1
 986 26 l 1,8,-1
 894 28 l 1,9,-1
 901 201 l 1,10,-1
 540 214 l 1,11,-1
 562 51 l 1,12,-1
 414 0 l 1,13,-1
 467 217 l 1,14,-1
 69 228 l 1,15,-1
 68 298 l 1,16,-1
 908 351 l 1,17,-1
 935 995 l 1,18,-1
 1104 922 l 1,7,-1
EndSplineSet
EndChar

StartChar: uniADDC
Encoding: 44508 44508 196
Width: 1084
GlyphClass: 2
Flags: W
LayerCount: 2
Fore
SplineSet
1004 -482 m 1,0,-1
 723 -491 l 1,1,-1
 743 -794 l 1,2,-1
 583 -721 l 1,3,-1
 637 -479 l 1,4,-1
 450 -483 l 1,5,-1
 472 -789 l 1,6,-1
 315 -717 l 1,7,-1
 364 -471 l 1,8,-1
 68 -470 l 1,9,-1
 82 -373 l 1,10,-1
 936 -328 l 1,11,-1
 1004 -482 l 1,0,-1
195 150 m 1,12,-1
 149 239 l 1,13,-1
 268 239 l 1,14,-1
 928 331 l 1,15,-1
 680 -257 l 1,16,-1
 612 -254 l 1,17,-1
 691 205 l 1,18,-1
 195 150 l 1,12,-1
EndSplineSet
EndChar

StartChar: uniADE0
Encoding: 44512 44512 197
Width: 1047
GlyphClass: 2
Flags: W
LayerCount: 2
Fore
SplineSet
252 -605 m 1,0,-1
 970 -582 l 1,1,-1
 965 -655 l 1,2,-1
 94 -727 l 1,3,-1
 121 -332 l 1,4,-1
 48 -283 l 1,5,-1
 242 -307 l 1,6,-1
 252 -605 l 1,0,-1
970 -42 m 1,7,-1
 701 -50 l 1,8,-1
 720 -339 l 1,9,-1
 567 -270 l 1,10,-1
 619 -38 l 1,11,-1
 440 -43 l 1,12,-1
 462 -335 l 1,13,-1
 311 -266 l 1,14,-1
 358 -31 l 1,15,-1
 75 -29 l 1,16,-1
 89 63 l 1,17,-1
 904 106 l 1,18,-1
 970 -42 l 1,7,-1
196 537 m 1,19,-1
 152 621 l 1,20,-1
 266 621 l 1,21,-1
 897 710 l 1,22,-1
 660 148 l 1,23,-1
 595 151 l 1,24,-1
 670 590 l 1,25,-1
 196 537 l 1,19,-1
EndSplineSet
EndChar

StartChar: uniADF8
Encoding: 44536 44536 198
Width: 991
GlyphClass: 2
Flags: W
LayerCount: 2
Fore
SplineSet
233 789 m 1,0,-1
 174 879 l 1,1,-1
 322 859 l 1,2,-1
 814 920 l 1,3,-1
 720 458 l 1,4,-1
 617 468 l 1,5,-1
 683 798 l 1,6,-1
 233 789 l 1,0,-1
930 248 m 1,7,-1
 58 273 l 1,8,-1
 58 334 l 1,9,-1
 832 384 l 1,10,-1
 868 400 l 1,11,-1
 930 248 l 1,7,-1
EndSplineSet
EndChar

StartChar: uniADF9
Encoding: 44537 44537 199
Width: 1101
GlyphClass: 2
Flags: W
LayerCount: 2
Fore
SplineSet
277 476 m 1,0,-1
 213 573 l 1,1,-1
 374 552 l 1,2,-1
 909 618 l 1,3,-1
 806 116 l 1,4,-1
 694 127 l 1,5,-1
 766 485 l 1,6,-1
 277 476 l 1,0,-1
242 -317 m 1,7,-1
 178 -220 l 1,8,-1
 338 -241 l 1,9,-1
 873 -175 l 1,10,-1
 771 -677 l 1,11,-1
 659 -666 l 1,12,-1
 731 -308 l 1,13,-1
 242 -317 l 1,7,-1
1035 -112 m 1,14,-1
 87 -85 l 1,15,-1
 87 -19 l 1,16,-1
 928 35 l 1,17,-1
 967 53 l 1,18,-1
 1035 -112 l 1,14,-1
EndSplineSet
EndChar

StartChar: uniADFC
Encoding: 44540 44540 200
Width: 1059
GlyphClass: 2
Flags: W
LayerCount: 2
Fore
SplineSet
255 578 m 1,0,-1
 192 675 l 1,1,-1
 351 654 l 1,2,-1
 881 719 l 1,3,-1
 780 222 l 1,4,-1
 669 233 l 1,5,-1
 740 588 l 1,6,-1
 255 578 l 1,0,-1
1006 -4 m 1,7,-1
 67 23 l 1,8,-1
 67 88 l 1,9,-1
 900 142 l 1,10,-1
 939 160 l 1,11,-1
 1006 -4 l 1,7,-1
374 -393 m 1,12,-1
 942 -384 l 1,13,-1
 937 -447 l 1,14,-1
 236 -496 l 1,15,-1
 265 -112 l 1,16,-1
 202 -69 l 1,17,-1
 370 -92 l 1,18,-1
 374 -393 l 1,12,-1
EndSplineSet
EndChar

StartChar: uniAE00
Encoding: 44544 44544 201
Width: 996
GlyphClass: 2
Flags: W
LayerCount: 2
Fore
SplineSet
208 -100 m 1,0,-1
 208 -29 l 1,1,-1
 202 121 l 1,2,-1
 175 161 l 1,3,-1
 289 155 l 1,4,-1
 640 166 l 1,5,-1
 629 255 l 1,6,-1
 224 255 l 1,7,-1
 199 311 l 1,8,-1
 252 293 l 1,9,-1
 764 330 l 1,10,-1
 759 313 l 1,11,-1
 753 93 l 1,12,-1
 698 82 l 1,13,-1
 320 79 l 1,14,-1
 336 -23 l 1,15,-1
 737 -17 l 1,16,-1
 781 -1 l 1,17,-1
 815 -61 l 1,18,-1
 208 -100 l 1,0,-1
244 938 m 1,19,-1
 187 1024 l 1,20,-1
 330 1005 l 1,21,-1
 803 1064 l 1,22,-1
 712 620 l 1,23,-1
 613 629 l 1,24,-1
 677 946 l 1,25,-1
 244 938 l 1,19,-1
914 418 m 1,26,-1
 76 442 l 1,27,-1
 76 500 l 1,28,-1
 820 549 l 1,29,-1
 854 564 l 1,30,-1
 914 418 l 1,26,-1
EndSplineSet
EndChar

StartChar: uniAE08
Encoding: 44552 44552 202
Width: 878
GlyphClass: 2
Flags: W
LayerCount: 2
Fore
SplineSet
258 171 m 1,0,-1
 689 192 l 1,1,-1
 643 -94 l 1,2,-1
 595 -86 l 1,3,-1
 585 99 l 1,4,-1
 301 93 l 1,5,-1
 301 -127 l 1,6,-1
 640 -118 l 1,7,-1
 638 -162 l 1,8,-1
 173 -205 l 1,9,-1
 202 127 l 1,10,-1
 145 185 l 1,11,-1
 233 172 l 1,12,-1
 258 171 l 1,0,-1
848 243 m 1,13,-1
 39 266 l 1,14,-1
 39 323 l 1,15,-1
 573 358 l 1,16,-1
 619 587 l 1,17,-1
 201 578 l 1,18,-1
 147 662 l 1,19,-1
 284 643 l 1,20,-1
 741 700 l 1,21,-1
 672 364 l 1,22,-1
 757 369 l 1,23,-1
 791 384 l 1,24,-1
 848 243 l 1,13,-1
EndSplineSet
EndChar

StartChar: uniAE09
Encoding: 44553 44553 203
Width: 1037
GlyphClass: 2
Flags: W
LayerCount: 2
Fore
SplineSet
738 -341 m 1,0,-1
 364 -389 l 1,1,-1
 367 -515 l 1,2,-1
 834 -487 l 1,3,-1
 832 -542 l 1,4,-1
 237 -614 l 1,5,-1
 249 -114 l 1,6,-1
 203 -72 l 1,7,-1
 358 -90 l 1,8,-1
 364 -318 l 1,9,-1
 734 -241 l 1,10,-1
 722 -116 l 1,11,-1
 834 -93 l 1,12,-1
 824 -454 l 1,13,-1
 744 -445 l 1,14,-1
 738 -341 l 1,0,-1
243 561 m 1,15,-1
 181 656 l 1,16,-1
 337 635 l 1,17,-1
 857 699 l 1,18,-1
 757 211 l 1,19,-1
 649 222 l 1,20,-1
 718 571 l 1,21,-1
 243 561 l 1,15,-1
979 -10 m 1,22,-1
 58 16 l 1,23,-1
 58 80 l 1,24,-1
 876 133 l 1,25,-1
 914 150 l 1,26,-1
 979 -10 l 1,22,-1
EndSplineSet
EndChar

StartChar: uniAE30
Encoding: 44592 44592 204
Width: 881
GlyphClass: 2
Flags: W
LayerCount: 2
Fore
SplineSet
668 -678 m 1,0,-1
 611 -671 l 1,1,-1
 696 129 l 1,2,-1
 831 51 l 1,3,-1
 668 -678 l 1,0,-1
356 -742 m 1,4,-1
 420 -133 l 1,5,-1
 86 -163 l 1,6,-1
 51 -75 l 1,7,-1
 143 -75 l 1,8,-1
 611 -10 l 1,9,-1
 413 -742 l 1,10,-1
 356 -742 l 1,4,-1
EndSplineSet
EndChar

StartChar: uniAE34
Encoding: 44596 44596 205
Width: 1077
GlyphClass: 2
Flags: W
LayerCount: 2
Fore
SplineSet
507 -374 m 1,0,-1
 1010 -369 l 1,1,-1
 1005 -423 l 1,2,-1
 387 -462 l 1,3,-1
 415 -141 l 1,4,-1
 361 -103 l 1,5,-1
 506 -124 l 1,6,-1
 507 -374 l 1,0,-1
703 661 m 1,7,-1
 464 -22 l 1,8,-1
 398 -22 l 1,9,-1
 478 524 l 1,10,-1
 114 463 l 1,11,-1
 67 559 l 1,12,-1
 183 559 l 1,13,-1
 703 661 l 1,7,-1
955 633 m 1,14,-1
 826 -16 l 1,15,-1
 778 -15 l 2,16,17
 778 -12 778 -12 779 20.5 c 128,-1,18
 780 53 780 53 781 104 c 128,-1,19
 782 155 782 155 783 219.5 c 128,-1,20
 784 284 784 284 785 351 c 0,21,22
 788 508 788 508 790 705 c 1,23,-1
 955 633 l 1,14,-1
EndSplineSet
EndChar

StartChar: uniAE38
Encoding: 44600 44600 206
Width: 1010
GlyphClass: 2
Flags: W
LayerCount: 2
Fore
SplineSet
311 -273 m 1,0,-1
 311 -204 l 1,1,-1
 306 -57 l 1,2,-1
 279 -18 l 1,3,-1
 391 -24 l 1,4,-1
 734 -13 l 1,5,-1
 723 74 l 1,6,-1
 327 74 l 1,7,-1
 303 129 l 1,8,-1
 355 111 l 1,9,-1
 854 147 l 1,10,-1
 850 130 l 1,11,-1
 844 -85 l 1,12,-1
 790 -96 l 1,13,-1
 421 -98 l 1,14,-1
 437 -198 l 1,15,-1
 828 -192 l 1,16,-1
 872 -176 l 1,17,-1
 905 -235 l 1,18,-1
 311 -273 l 1,0,-1
681 920 m 1,19,-1
 441 235 l 1,20,-1
 375 235 l 1,21,-1
 455 783 l 1,22,-1
 90 722 l 1,23,-1
 43 818 l 1,24,-1
 159 818 l 1,25,-1
 681 920 l 1,19,-1
933 892 m 1,26,-1
 804 241 l 1,27,-1
 756 242 l 2,28,29
 756 245 756 245 757 277.5 c 128,-1,30
 758 310 758 310 759 361.5 c 128,-1,31
 760 413 760 413 761 477.5 c 128,-1,32
 762 542 762 542 763 609 c 0,33,34
 766 766 766 766 768 964 c 1,35,-1
 933 892 l 1,26,-1
EndSplineSet
EndChar

StartChar: uniAE40
Encoding: 44608 44608 207
Width: 1107
GlyphClass: 2
Flags: W
LayerCount: 2
Fore
SplineSet
453 -482 m 1,0,-1
 969 -457 l 1,1,-1
 914 -799 l 1,2,-1
 857 -790 l 1,3,-1
 844 -568 l 1,4,-1
 505 -575 l 1,5,-1
 505 -839 l 1,6,-1
 911 -828 l 1,7,-1
 908 -881 l 1,8,-1
 351 -932 l 1,9,-1
 387 -534 l 1,10,-1
 318 -465 l 1,11,-1
 423 -481 l 1,12,-1
 453 -482 l 1,0,-1
772 378 m 1,13,-1
 508 -374 l 1,14,-1
 436 -374 l 1,15,-1
 524 227 l 1,16,-1
 124 160 l 1,17,-1
 72 265 l 1,18,-1
 200 265 l 1,19,-1
 772 378 l 1,13,-1
1049 347 m 1,20,-1
 907 -368 l 1,21,-1
 854 -366 l 2,22,23
 854 -363 854 -363 855 -327.5 c 128,-1,24
 856 -292 856 -292 857 -235.5 c 128,-1,25
 858 -179 858 -179 859.5 -108.5 c 128,-1,26
 861 -38 861 -38 862 36 c 0,27,28
 865 208 865 208 868 426 c 1,29,-1
 1049 347 l 1,20,-1
EndSplineSet
EndChar

StartChar: uniAE4C
Encoding: 44620 44620 208
Width: 1058
GlyphClass: 2
Flags: W
LayerCount: 2
Fore
SplineSet
724 600 m 1,0,-1
 562 0 l 1,1,-1
 518 2 l 1,2,-1
 570 490 l 1,3,-1
 415 459 l 1,4,-1
 301 36 l 1,5,-1
 257 38 l 1,6,-1
 309 527 l 1,7,-1
 62 486 l 1,8,-1
 31 568 l 1,9,-1
 113 563 l 1,10,-1
 463 637 l 1,11,-1
 437 540 l 1,12,-1
 724 600 l 1,0,-1
1017 338 m 1,13,-1
 949 202 l 1,14,-1
 813 226 l 1,15,-1
 770 52 l 1,16,-1
 724 58 l 1,17,-1
 791 700 l 1,18,-1
 903 636 l 1,19,-1
 827 300 l 1,20,-1
 1017 338 l 1,13,-1
EndSplineSet
EndChar

StartChar: uniAED8
Encoding: 44760 44760 209
Width: 1039
GlyphClass: 2
Flags: W
LayerCount: 2
Fore
SplineSet
1006 162 m 1,0,-1
 886 -472 l 1,1,-1
 856 -468 l 1,2,-1
 902 228 l 1,3,-1
 1006 162 l 1,0,-1
867 132 m 1,4,-1
 786 -438 l 1,5,-1
 741 -436 l 1,6,-1
 753 -164 l 1,7,-1
 685 -176 l 1,8,-1
 668 -72 l 1,9,-1
 756 -118 l 1,10,-1
 771 171 l 1,11,-1
 867 132 l 1,4,-1
682 154 m 1,12,-1
 516 -459 l 1,13,-1
 471 -458 l 1,14,-1
 525 42 l 1,15,-1
 399 10 l 1,16,-1
 282 -422 l 1,17,-1
 237 -421 l 1,18,-1
 291 79 l 1,19,-1
 71 38 l 1,20,-1
 39 121 l 1,21,-1
 122 116 l 1,22,-1
 448 191 l 1,23,-1
 421 92 l 1,24,-1
 682 154 l 1,12,-1
EndSplineSet
EndChar

StartChar: uniAFB8
Encoding: 44984 44984 210
Width: 1005
GlyphClass: 2
Flags: W
LayerCount: 2
Fore
SplineSet
70 275 m 1,0,-1
 70 345 l 1,1,-1
 878 370 l 1,2,-1
 944 214 l 1,3,-1
 534 236 l 1,4,-1
 548 0 l 1,5,-1
 383 -47 l 1,6,-1
 447 239 l 1,7,-1
 70 275 l 1,0,-1
963 928 m 1,8,-1
 739 452 l 1,9,-1
 679 454 l 1,10,-1
 751 801 l 1,11,-1
 536 776 l 1,12,-1
 383 452 l 1,13,-1
 324 454 l 1,14,-1
 395 801 l 1,15,-1
 93 766 l 1,16,-1
 51 843 l 1,17,-1
 158 843 l 1,18,-1
 607 928 l 1,19,-1
 573 855 l 1,20,-1
 963 928 l 1,8,-1
EndSplineSet
EndChar

StartChar: uniB05D
Encoding: 45149 45149 211
Width: 892
GlyphClass: 2
Flags: W
LayerCount: 2
Fore
SplineSet
263 -81 m 1,0,-1
 269 -182 l 1,1,-1
 695 -185 l 1,2,-1
 694 -240 l 1,3,-1
 272 -270 l 1,4,-1
 278 -375 l 1,5,-1
 278 -387 l 1,6,-1
 728 -343 l 1,7,-1
 725 -398 l 1,8,-1
 151 -472 l 1,9,-1
 182 -13 l 1,10,-1
 132 38 l 1,11,-1
 263 13 l 1,12,-1
 760 -24 l 1,13,-1
 715 -72 l 1,14,-1
 263 -81 l 1,0,-1
64 129 m 1,15,-1
 64 191 l 1,16,-1
 769 213 l 1,17,-1
 827 76 l 1,18,-1
 64 129 l 1,15,-1
844 700 m 1,19,-1
 648 284 l 1,20,-1
 596 286 l 1,21,-1
 659 589 l 1,22,-1
 471 567 l 1,23,-1
 337 284 l 1,24,-1
 286 286 l 1,25,-1
 348 589 l 1,26,-1
 84 558 l 1,27,-1
 47 626 l 1,28,-1
 140 626 l 1,29,-1
 533 700 l 1,30,-1
 503 636 l 1,31,-1
 844 700 l 1,19,-1
EndSplineSet
EndChar

StartChar: uniB07C
Encoding: 45180 45180 212
Width: 924
GlyphClass: 2
Flags: W
LayerCount: 2
Fore
SplineSet
704 -75 m 1,0,-1
 548 -652 l 1,1,-1
 506 -650 l 1,2,-1
 557 -180 l 1,3,-1
 407 -211 l 1,4,-1
 297 -617 l 1,5,-1
 255 -616 l 1,6,-1
 306 -146 l 1,7,-1
 68 -184 l 1,8,-1
 38 -106 l 1,9,-1
 116 -111 l 1,10,-1
 453 -40 l 1,11,-1
 428 -133 l 1,12,-1
 704 -75 l 1,0,-1
757 -696 m 1,13,-1
 713 -691 l 1,14,-1
 760 4 l 1,15,-1
 869 -54 l 1,16,-1
 757 -696 l 1,13,-1
EndSplineSet
EndChar

StartChar: uniB098
Encoding: 45208 45208 213
Width: 827
GlyphClass: 2
Flags: W
LayerCount: 2
Fore
SplineSet
202 -43 m 1,0,-1
 527 0 l 1,1,-1
 524 -52 l 1,2,-1
 73 -160 l 1,3,-1
 88 332 l 1,4,-1
 32 393 l 1,5,-1
 191 367 l 1,6,-1
 202 -43 l 1,0,-1
578 -267 m 1,7,-1
 507 541 l 1,8,-1
 643 496 l 1,9,-1
 635 191 l 1,10,-1
 800 242 l 1,11,-1
 784 98 l 1,12,-1
 634 105 l 1,13,-1
 625 -267 l 1,14,-1
 578 -267 l 1,7,-1
EndSplineSet
EndChar

StartChar: uniB09C
Encoding: 45212 45212 214
Width: 892
GlyphClass: 2
Flags: W
LayerCount: 2
Fore
SplineSet
403 3 m 1,0,-1
 859 44 l 1,1,-1
 857 -11 l 1,2,-1
 286 -102 l 1,3,-1
 297 193 l 1,4,-1
 229 234 l 1,5,-1
 384 220 l 1,6,-1
 403 3 l 1,0,-1
624 285 m 1,7,-1
 549 946 l 1,8,-1
 693 899 l 1,9,-1
 684 662 l 1,10,-1
 858 716 l 1,11,-1
 841 564 l 1,12,-1
 683 571 l 1,13,-1
 674 285 l 1,14,-1
 624 285 l 1,7,-1
239 426 m 1,15,-1
 571 471 l 1,16,-1
 567 406 l 1,17,-1
 92 292 l 1,18,-1
 108 810 l 1,19,-1
 49 875 l 1,20,-1
 227 847 l 1,21,-1
 239 426 l 1,15,-1
EndSplineSet
EndChar

StartChar: uniB0A0
Encoding: 45216 45216 215
Width: 976
GlyphClass: 2
Flags: W
LayerCount: 2
Fore
SplineSet
251 -120 m 1,0,-1
 629 -70 l 1,1,-1
 625 -143 l 1,2,-1
 101 -268 l 1,3,-1
 118 304 l 1,4,-1
 53 375 l 1,5,-1
 250 345 l 1,6,-1
 251 -120 l 1,0,-1
295 -732 m 1,7,-1
 295 -666 l 1,8,-1
 290 -526 l 1,9,-1
 265 -489 l 1,10,-1
 371 -495 l 1,11,-1
 698 -485 l 1,12,-1
 687 -402 l 1,13,-1
 311 -402 l 1,14,-1
 287 -350 l 1,15,-1
 337 -366 l 1,16,-1
 812 -332 l 1,17,-1
 808 -348 l 1,18,-1
 803 -553 l 1,19,-1
 751 -563 l 1,20,-1
 400 -565 l 1,21,-1
 415 -660 l 1,22,-1
 787 -655 l 1,23,-1
 829 -640 l 1,24,-1
 860 -696 l 1,25,-1
 295 -732 l 1,7,-1
688 -276 m 1,26,-1
 606 454 l 1,27,-1
 764 402 l 1,28,-1
 755 140 l 1,29,-1
 947 200 l 1,30,-1
 928 32 l 1,31,-1
 753 40 l 1,32,-1
 743 -276 l 1,33,-1
 688 -276 l 1,26,-1
EndSplineSet
EndChar

StartChar: uniB0A8
Encoding: 45224 45224 216
Width: 946
GlyphClass: 2
Flags: W
LayerCount: 2
Fore
SplineSet
201 577 m 1,0,-1
 573 614 l 1,1,-1
 570 560 l 1,2,-1
 69 456 l 1,3,-1
 102 967 l 1,4,-1
 42 1036 l 1,5,-1
 203 1001 l 1,6,-1
 201 577 l 1,0,-1
748 1142 m 1,7,-1
 757 830 l 1,8,-1
 896 941 l 1,9,-1
 913 798 l 1,10,-1
 757 763 l 1,11,-1
 764 488 l 1,12,-1
 637 445 l 1,13,-1
 702 1142 l 1,14,-1
 748 1142 l 1,7,-1
348 378 m 1,15,-1
 774 398 l 1,16,-1
 730 131 l 1,17,-1
 687 138 l 1,18,-1
 677 310 l 1,19,-1
 388 305 l 1,20,-1
 388 99 l 1,21,-1
 728 108 l 1,22,-1
 727 66 l 1,23,-1
 270 27 l 1,24,-1
 296 337 l 1,25,-1
 243 391 l 1,26,-1
 326 378 l 1,27,-1
 348 378 l 1,15,-1
EndSplineSet
EndChar

StartChar: uniB0AC
Encoding: 45228 45228 217
Width: 953
GlyphClass: 2
Flags: W
LayerCount: 2
Fore
SplineSet
650 -44 m 1,0,-1
 572 642 l 1,1,-1
 721 593 l 1,2,-1
 712 347 l 1,3,-1
 892 403 l 1,4,-1
 875 246 l 1,5,-1
 711 253 l 1,6,-1
 701 -44 l 1,7,-1
 650 -44 l 1,0,-1
250 103 m 1,8,-1
 594 150 l 1,9,-1
 591 82 l 1,10,-1
 98 -36 l 1,11,-1
 114 501 l 1,12,-1
 53 568 l 1,13,-1
 238 540 l 1,14,-1
 250 103 l 1,8,-1
712 -206 m 1,15,-1
 822 -509 l 1,16,-1
 693 -418 l 1,17,-1
 648 -292 l 1,18,-1
 498 -500 l 1,19,-1
 351 -561 l 1,20,-1
 462 -408 l 1,21,-1
 415 -286 l 1,22,-1
 257 -500 l 1,23,-1
 100 -567 l 1,24,-1
 372 -190 l 2,25,26
 374 -186 374 -186 374.5 -183.5 c 128,-1,27
 375 -181 375 -181 375 -178 c 2,28,-1
 372 -166 l 1,29,-1
 318 -96 l 1,30,-1
 502 -169 l 1,31,-1
 479 -197 l 1,32,-1
 510 -340 l 1,33,-1
 605 -209 l 2,34,35
 610 -201 610 -201 608.5 -197 c 128,-1,36
 607 -193 607 -193 605 -185 c 2,37,-1
 556 -122 l 1,38,-1
 723 -190 l 1,39,-1
 712 -206 l 1,15,-1
EndSplineSet
EndChar

StartChar: uniB0B4
Encoding: 45236 45236 218
Width: 1300
GlyphClass: 2
Flags: W
LayerCount: 2
Fore
SplineSet
301 93 m 1,0,-1
 738 149 l 1,1,-1
 734 69 l 1,2,-1
 121 -71 l 1,3,-1
 140 716 l 1,4,-1
 68 795 l 1,5,-1
 287 761 l 1,6,-1
 301 93 l 1,0,-1
1249 804 m 1,7,-1
 1129 -92 l 1,8,-1
 1069 -84 l 1,9,-1
 1075 304 l 1,10,-1
 904 321 l 1,11,-1
 874 -75 l 1,12,-1
 813 -71 l 1,13,-1
 764 895 l 1,14,-1
 937 828 l 1,15,-1
 910 432 l 1,16,-1
 1077 474 l 1,17,-1
 1082 884 l 1,18,-1
 1249 804 l 1,7,-1
EndSplineSet
EndChar

StartChar: uniB0B8
Encoding: 45240 45240 219
Width: 999
GlyphClass: 2
Flags: W
LayerCount: 2
Fore
SplineSet
390 -341 m 1,0,-1
 829 -301 l 1,1,-1
 827 -355 l 1,2,-1
 277 -442 l 1,3,-1
 287 -158 l 1,4,-1
 222 -118 l 1,5,-1
 372 -132 l 1,6,-1
 390 -341 l 1,0,-1
232 66 m 1,7,-1
 551 110 l 1,8,-1
 548 47 l 1,9,-1
 91 -63 l 1,10,-1
 106 436 l 1,11,-1
 49 498 l 1,12,-1
 220 472 l 1,13,-1
 232 66 l 1,7,-1
952 505 m 1,14,-1
 858 -79 l 1,15,-1
 811 -73 l 1,16,-1
 815 196 l 1,17,-1
 681 210 l 1,18,-1
 657 -65 l 1,19,-1
 610 -63 l 1,20,-1
 572 577 l 1,21,-1
 707 524 l 1,22,-1
 685 273 l 1,23,-1
 817 306 l 1,24,-1
 821 568 l 1,25,-1
 952 505 l 1,14,-1
EndSplineSet
EndChar

StartChar: uniB0D0
Encoding: 45264 45264 220
Width: 1077
GlyphClass: 2
Flags: W
LayerCount: 2
Fore
SplineSet
270 7 m 1,0,-1
 672 58 l 1,1,-1
 668 -15 l 1,2,-1
 105 -144 l 1,3,-1
 123 579 l 1,4,-1
 56 652 l 1,5,-1
 257 621 l 1,6,-1
 270 7 l 1,0,-1
820 187 m 1,7,-1
 1005 234 l 1,8,-1
 961 67 l 1,9,-1
 812 82 l 1,10,-1
 796 -147 l 1,11,-1
 740 -144 l 1,12,-1
 696 744 l 1,13,-1
 854 682 l 1,14,-1
 837 460 l 1,15,-1
 1033 509 l 1,16,-1
 989 342 l 1,17,-1
 832 358 l 1,18,-1
 820 187 l 1,7,-1
EndSplineSet
EndChar

StartChar: uniB108
Encoding: 45320 45320 221
Width: 1032
GlyphClass: 2
Flags: W
LayerCount: 2
Fore
SplineSet
308 -199 m 1,0,-1
 764 -145 l 1,1,-1
 759 -196 l 1,2,-1
 113 -349 l 1,3,-1
 161 403 l 1,4,-1
 73 504 l 1,5,-1
 311 455 l 1,6,-1
 308 -199 l 1,0,-1
819 -374 m 1,7,-1
 839 30 l 1,8,-1
 724 14 l 1,9,-1
 689 166 l 1,10,-1
 842 121 l 1,11,-1
 863 463 l 1,12,-1
 921 519 l 1,13,-1
 944 135 l 1,14,-1
 948 69 l 1,15,-1
 975 -384 l 1,16,-1
 819 -374 l 1,7,-1
EndSplineSet
EndChar

StartChar: uniB118
Encoding: 45336 45336 222
Width: 918
GlyphClass: 2
Flags: W
LayerCount: 2
Fore
SplineSet
309 32 m 1,0,-1
 837 58 l 1,1,-1
 782 -292 l 1,2,-1
 722 -283 l 1,3,-1
 710 -55 l 1,4,-1
 361 -63 l 1,5,-1
 361 -333 l 1,6,-1
 778 -322 l 1,7,-1
 775 -377 l 1,8,-1
 204 -429 l 1,9,-1
 241 -21 l 1,10,-1
 170 49 l 1,11,-1
 278 33 l 1,12,-1
 309 32 l 1,0,-1
860 163 m 1,13,-1
 725 172 l 1,14,-1
 742 491 l 1,15,-1
 642 476 l 1,16,-1
 612 608 l 1,17,-1
 745 569 l 1,18,-1
 763 849 l 1,19,-1
 813 899 l 1,20,-1
 860 163 l 1,13,-1
282 276 m 1,21,-1
 677 323 l 1,22,-1
 673 279 l 1,23,-1
 114 146 l 1,24,-1
 155 798 l 1,25,-1
 79 885 l 1,26,-1
 285 843 l 1,27,-1
 282 276 l 1,21,-1
EndSplineSet
EndChar

StartChar: uniB124
Encoding: 45348 45348 223
Width: 1068
GlyphClass: 2
Flags: W
LayerCount: 2
Fore
SplineSet
217 -407 m 1,0,-1
 586 -364 l 1,1,-1
 582 -415 l 1,2,-1
 59 -539 l 1,3,-1
 97 70 l 1,4,-1
 27 152 l 1,5,-1
 219 111 l 1,6,-1
 217 -407 l 1,0,-1
997 -437 m 1,7,-1
 871 -443 l 1,8,-1
 813 234 l 1,9,-1
 864 210 l 1,10,-1
 997 -437 l 1,7,-1
665 -548 m 1,11,-1
 679 -209 l 1,12,-1
 588 -224 l 1,13,-1
 559 -101 l 1,14,-1
 683 -137 l 1,15,-1
 699 130 l 1,16,-1
 747 175 l 1,17,-1
 791 -557 l 1,18,-1
 665 -548 l 1,11,-1
EndSplineSet
EndChar

StartChar: uniB140
Encoding: 45376 45376 224
Width: 1108
GlyphClass: 2
Flags: W
LayerCount: 2
Fore
SplineSet
339 30 m 1,0,-1
 834 75 l 1,1,-1
 828 21 l 1,2,-1
 127 -133 l 1,3,-1
 179 684 l 1,4,-1
 84 793 l 1,5,-1
 342 740 l 1,6,-1
 339 30 l 1,0,-1
894 -75 m 1,7,-1
 915 207 l 1,8,-1
 686 189 l 1,9,-1
 648 355 l 1,10,-1
 919 305 l 1,11,-1
 927 463 l 1,12,-1
 706 446 l 1,13,-1
 668 611 l 1,14,-1
 932 565 l 1,15,-1
 942 775 l 1,16,-1
 1005 836 l 1,17,-1
 1064 -86 l 1,18,-1
 894 -75 l 1,7,-1
EndSplineSet
EndChar

StartChar: uniB144
Encoding: 45380 45380 225
Width: 877
GlyphClass: 2
Flags: W
LayerCount: 2
Fore
SplineSet
386 -311 m 1,0,-1
 840 -266 l 1,1,-1
 838 -327 l 1,2,-1
 257 -427 l 1,3,-1
 268 -102 l 1,4,-1
 194 -56 l 1,5,-1
 365 -72 l 1,6,-1
 386 -311 l 1,0,-1
218 119 m 1,7,-1
 588 153 l 1,8,-1
 584 112 l 1,9,-1
 60 -3 l 1,10,-1
 98 589 l 1,11,-1
 27 671 l 1,12,-1
 220 631 l 1,13,-1
 218 119 l 1,7,-1
633 40 m 1,14,-1
 644 247 l 1,15,-1
 473 233 l 1,16,-1
 444 357 l 1,17,-1
 647 320 l 1,18,-1
 653 438 l 1,19,-1
 488 425 l 1,20,-1
 459 549 l 1,21,-1
 656 514 l 1,22,-1
 669 657 l 1,23,-1
 716 703 l 1,24,-1
 760 32 l 1,25,-1
 633 40 l 1,14,-1
EndSplineSet
EndChar

StartChar: uniB150
Encoding: 45392 45392 226
Width: 840
GlyphClass: 2
Flags: W
LayerCount: 2
Fore
SplineSet
336 124 m 1,0,-1
 786 146 l 1,1,-1
 739 -153 l 1,2,-1
 688 -145 l 1,3,-1
 678 49 l 1,4,-1
 381 43 l 1,5,-1
 381 -187 l 1,6,-1
 736 -178 l 1,7,-1
 733 -224 l 1,8,-1
 247 -269 l 1,9,-1
 278 79 l 1,10,-1
 217 139 l 1,11,-1
 310 125 l 1,12,-1
 336 124 l 1,0,-1
243 329 m 1,13,-1
 614 364 l 1,14,-1
 610 323 l 1,15,-1
 85 207 l 1,16,-1
 123 800 l 1,17,-1
 52 882 l 1,18,-1
 245 842 l 1,19,-1
 243 329 l 1,13,-1
659 251 m 1,20,-1
 670 458 l 1,21,-1
 498 444 l 1,22,-1
 470 568 l 1,23,-1
 673 531 l 1,24,-1
 679 649 l 1,25,-1
 513 637 l 1,26,-1
 485 761 l 1,27,-1
 683 725 l 1,28,-1
 695 868 l 1,29,-1
 742 914 l 1,30,-1
 786 242 l 1,31,-1
 659 251 l 1,20,-1
EndSplineSet
EndChar

StartChar: uniB178
Encoding: 45432 45432 227
Width: 916
GlyphClass: 2
Flags: W
LayerCount: 2
Fore
SplineSet
245 -151 m 1,0,-1
 754 -125 l 1,1,-1
 751 -179 l 1,2,-1
 123 -245 l 1,3,-1
 139 130 l 1,4,-1
 81 167 l 1,5,-1
 234 151 l 1,6,-1
 245 -151 l 1,0,-1
433 -406 m 1,7,-1
 392 -266 l 1,8,-1
 521 -315 l 1,9,-1
 514 -408 l 1,10,-1
 889 -420 l 1,11,-1
 889 -468 l 1,12,-1
 129 -517 l 1,13,-1
 94 -533 l 1,14,-1
 34 -396 l 1,15,-1
 433 -406 l 1,7,-1
EndSplineSet
EndChar

StartChar: uniB179
Encoding: 45433 45433 228
Width: 789
GlyphClass: 2
Flags: W
LayerCount: 2
Fore
SplineSet
218 436 m 1,0,-1
 640 458 l 1,1,-1
 638 413 l 1,2,-1
 116 358 l 1,3,-1
 129 669 l 1,4,-1
 81 700 l 1,5,-1
 208 687 l 1,6,-1
 218 436 l 1,0,-1
374 224 m 1,7,-1
 340 341 l 1,8,-1
 447 299 l 1,9,-1
 441 222 l 1,10,-1
 752 212 l 1,11,-1
 752 172 l 1,12,-1
 121 132 l 1,13,-1
 92 118 l 1,14,-1
 42 233 l 1,15,-1
 374 224 l 1,7,-1
172 -34 m 1,16,-1
 121 44 l 1,17,-1
 249 27 l 1,18,-1
 673 79 l 1,19,-1
 592 -319 l 1,20,-1
 503 -310 l 1,21,-1
 560 -26 l 1,22,-1
 172 -34 l 1,16,-1
EndSplineSet
EndChar

StartChar: uniB17C
Encoding: 45436 45436 229
Width: 862
GlyphClass: 2
Flags: W
LayerCount: 2
Fore
SplineSet
317 -16 m 1,0,-1
 775 5 l 1,1,-1
 774 -51 l 1,2,-1
 210 -104 l 1,3,-1
 222 144 l 1,4,-1
 176 174 l 1,5,-1
 308 161 l 1,6,-1
 317 -16 l 1,0,-1
237 586 m 1,7,-1
 704 610 l 1,8,-1
 703 560 l 1,9,-1
 123 498 l 1,10,-1
 139 763 l 1,11,-1
 85 798 l 1,12,-1
 226 784 l 1,13,-1
 237 586 l 1,7,-1
409 362 m 1,14,-1
 372 496 l 1,15,-1
 491 451 l 1,16,-1
 483 359 l 1,17,-1
 830 349 l 1,18,-1
 830 294 l 1,19,-1
 129 248 l 1,20,-1
 97 234 l 1,21,-1
 42 371 l 1,22,-1
 409 362 l 1,14,-1
EndSplineSet
EndChar

StartChar: uniB18D
Encoding: 45453 45453 230
Width: 861
GlyphClass: 2
Flags: W
LayerCount: 2
Fore
SplineSet
487 -310 m 1,0,1
 544 -300 544 -300 589 -310 c 0,2,3
 608 -314 608 -314 626.5 -323 c 128,-1,4
 645 -332 645 -332 659.5 -347.5 c 128,-1,5
 674 -363 674 -363 683 -386 c 128,-1,6
 692 -409 692 -409 692 -442 c 0,7,8
 692 -481 692 -481 681.5 -510 c 128,-1,9
 671 -539 671 -539 654.5 -560 c 128,-1,10
 638 -581 638 -581 616 -595 c 128,-1,11
 594 -609 594 -609 572 -618 c 0,12,13
 519 -638 519 -638 452 -638 c 256,14,15
 385 -638 385 -638 333 -618 c 0,16,17
 311 -609 311 -609 289.5 -595 c 128,-1,18
 268 -581 268 -581 251.5 -560 c 128,-1,19
 235 -539 235 -539 225 -510 c 128,-1,20
 215 -481 215 -481 215 -442 c 256,21,22
 215 -403 215 -403 225.5 -374 c 128,-1,23
 236 -345 236 -345 253 -323 c 128,-1,24
 270 -301 270 -301 291.5 -286 c 128,-1,25
 313 -271 313 -271 336 -262 c 0,26,27
 390 -240 390 -240 458 -237 c 1,28,-1
 414 -180 l 1,29,-1
 508 -219 l 1,30,-1
 506 -287 l 1,31,32
 460 -287 460 -287 424 -293 c 128,-1,33
 388 -299 388 -299 363 -315.5 c 128,-1,34
 338 -332 338 -332 324.5 -362 c 128,-1,35
 311 -392 311 -392 311 -440 c 0,36,37
 311 -474 311 -474 329 -496 c 128,-1,38
 347 -518 347 -518 371 -531 c 128,-1,39
 395 -544 395 -544 419 -549 c 128,-1,40
 443 -554 443 -554 455 -554 c 256,41,42
 467 -554 467 -554 491.5 -553.5 c 128,-1,43
 516 -553 516 -553 540.5 -543 c 128,-1,44
 565 -533 565 -533 584 -510 c 128,-1,45
 603 -487 603 -487 603 -442 c 0,46,47
 603 -415 603 -415 597.5 -395.5 c 128,-1,48
 592 -376 592 -376 582.5 -362.5 c 128,-1,49
 573 -349 573 -349 561.5 -341 c 128,-1,50
 550 -333 550 -333 538 -329 c 0,51,52
 509 -319 509 -319 473 -326 c 1,53,-1
 487 -310 l 1,0,1
244 196 m 1,54,-1
 692 219 l 1,55,-1
 690 171 l 1,56,-1
 136 113 l 1,57,-1
 151 443 l 1,58,-1
 100 476 l 1,59,-1
 234 462 l 1,60,-1
 244 196 l 1,54,-1
410 -29 m 1,61,-1
 373 95 l 1,62,-1
 487 51 l 1,63,-1
 481 -31 l 1,64,-1
 811 -41 l 1,65,-1
 811 -84 l 1,66,-1
 142 -127 l 1,67,-1
 111 -141 l 1,68,-1
 58 -20 l 1,69,-1
 410 -29 l 1,61,-1
EndSplineSet
EndChar

StartChar: uniB192
Encoding: 45458 45458 231
Width: 928
GlyphClass: 2
Flags: W
LayerCount: 2
Fore
SplineSet
384 -167 m 1,0,-1
 790 -141 l 1,1,-1
 787 -175 l 1,2,-1
 190 -262 l 1,3,-1
 238 -175 l 1,4,-1
 304 -170 l 1,5,-1
 287 111 l 1,6,-1
 181 104 l 1,7,-1
 143 168 l 1,8,-1
 238 168 l 1,9,-1
 744 245 l 1,10,-1
 790 141 l 1,11,-1
 689 134 l 1,12,-1
 681 -135 l 1,13,-1
 614 -127 l 1,14,-1
 597 129 l 1,15,-1
 392 116 l 1,16,-1
 384 -167 l 1,0,-1
260 687 m 1,17,-1
 741 711 l 1,18,-1
 739 647 l 1,19,-1
 150 585 l 1,20,-1
 165 950 l 1,21,-1
 110 985 l 1,22,-1
 249 970 l 1,23,-1
 260 687 l 1,17,-1
440 397 m 1,24,-1
 402 572 l 1,25,-1
 523 525 l 1,26,-1
 516 394 l 1,27,-1
 867 383 l 1,28,-1
 867 338 l 1,29,-1
 155 292 l 1,30,-1
 122 277 l 1,31,-1
 66 406 l 1,32,-1
 440 397 l 1,24,-1
EndSplineSet
EndChar

StartChar: uniB193
Encoding: 45459 45459 232
Width: 951
GlyphClass: 2
Flags: W
LayerCount: 2
Fore
SplineSet
290 87 m 1,0,-1
 766 111 l 1,1,-1
 764 60 l 1,2,-1
 176 -2 l 1,3,-1
 191 348 l 1,4,-1
 137 383 l 1,5,-1
 280 368 l 1,6,-1
 290 87 l 1,0,-1
466 -152 m 1,7,-1
 428 -21 l 1,8,-1
 549 -68 l 1,9,-1
 542 -154 l 1,10,-1
 892 -166 l 1,11,-1
 892 -211 l 1,12,-1
 182 -256 l 1,13,-1
 149 -271 l 1,14,-1
 93 -143 l 1,15,-1
 466 -152 l 1,7,-1
597 -521 m 1,16,17
 640 -514 640 -514 674 -521 c 0,18,19
 688 -524 688 -524 702 -530.5 c 128,-1,20
 716 -537 716 -537 727 -549 c 128,-1,21
 738 -561 738 -561 744.5 -578.5 c 128,-1,22
 751 -596 751 -596 751 -620 c 0,23,24
 751 -649 751 -649 743 -671 c 128,-1,25
 735 -693 735 -693 722.5 -709 c 128,-1,26
 710 -725 710 -725 693.5 -736 c 128,-1,27
 677 -747 677 -747 660 -753 c 0,28,29
 620 -769 620 -769 570 -768 c 0,30,31
 520 -769 520 -769 481 -753 c 0,32,33
 464 -747 464 -747 448 -736 c 128,-1,34
 432 -725 432 -725 419.5 -709 c 128,-1,35
 407 -693 407 -693 399.5 -671 c 128,-1,36
 392 -649 392 -649 392 -620 c 0,37,38
 392 -578 392 -578 407.5 -550.5 c 128,-1,39
 423 -523 423 -523 446 -506 c 1,40,-1
 302 -507 l 1,41,-1
 257 -453 l 1,42,-1
 506 -433 l 1,43,-1
 472 -290 l 1,44,-1
 580 -333 l 1,45,-1
 572 -428 l 1,46,-1
 799 -409 l 1,47,-1
 848 -505 l 1,48,-1
 568 -506 l 1,49,50
 518 -511 518 -511 491 -535 c 128,-1,51
 464 -559 464 -559 464 -619 c 0,52,53
 464 -645 464 -645 477.5 -661 c 128,-1,54
 491 -677 491 -677 509.5 -687 c 128,-1,55
 528 -697 528 -697 546 -700.5 c 128,-1,56
 564 -704 564 -704 573 -704 c 256,57,58
 582 -704 582 -704 600 -703.5 c 128,-1,59
 618 -703 618 -703 637 -696 c 128,-1,60
 656 -689 656 -689 670 -671.5 c 128,-1,61
 684 -654 684 -654 684 -620 c 0,62,63
 684 -579 684 -579 668.5 -560.5 c 128,-1,64
 653 -542 653 -542 635 -536 c 0,65,66
 613 -529 613 -529 586 -534 c 1,67,-1
 597 -521 l 1,16,17
EndSplineSet
EndChar

StartChar: uniB204
Encoding: 45572 45572 233
Width: 1111
GlyphClass: 2
Flags: W
LayerCount: 2
Fore
SplineSet
335 94 m 1,0,-1
 349 -257 l 1,1,-1
 977 -214 l 1,2,-1
 975 -304 l 1,3,-1
 198 -412 l 1,4,-1
 218 58 l 1,5,-1
 335 94 l 1,0,-1
66 -617 m 1,6,-1
 140 -502 l 1,7,-1
 184 -527 l 1,8,-1
 1057 -404 l 1,9,-1
 1057 -566 l 1,10,-1
 605 -595 l 1,11,-1
 614 -705 l 1,12,-1
 454 -786 l 1,13,-1
 504 -599 l 1,14,-1
 66 -617 l 1,6,-1
EndSplineSet
EndChar

StartChar: uniB208
Encoding: 45576 45576 234
Width: 1180
GlyphClass: 2
Flags: W
LayerCount: 2
Fore
SplineSet
405 -326 m 1,0,-1
 1039 -298 l 1,1,-1
 1036 -360 l 1,2,-1
 274 -431 l 1,3,-1
 292 -97 l 1,4,-1
 228 -56 l 1,5,-1
 394 -74 l 1,6,-1
 405 -326 l 1,0,-1
310 289 m 1,7,-1
 943 320 l 1,8,-1
 940 253 l 1,9,-1
 158 171 l 1,10,-1
 178 529 l 1,11,-1
 106 575 l 1,12,-1
 296 554 l 1,13,-1
 310 289 l 1,7,-1
668 -5 m 1,14,-1
 720 -145 l 1,15,-1
 559 -84 l 1,16,-1
 568 -2 l 1,17,-1
 47 14 l 1,18,-1
 47 74 l 1,19,-1
 991 135 l 1,20,-1
 1036 154 l 1,21,-1
 1111 -16 l 1,22,-1
 668 -5 l 1,14,-1
EndSplineSet
EndChar

StartChar: uniB274
Encoding: 45684 45684 235
Width: 1106
GlyphClass: 2
Flags: W
LayerCount: 2
Fore
SplineSet
969 551 m 1,0,-1
 182 442 l 1,1,-1
 202 918 l 1,2,-1
 321 954 l 1,3,-1
 335 599 l 1,4,-1
 971 642 l 1,5,-1
 969 551 l 1,0,-1
1053 285 m 1,6,-1
 760 270 l 1,7,-1
 769 83 l 1,8,-1
 607 0 l 1,9,-1
 658 266 l 1,10,-1
 501 258 l 1,11,-1
 509 90 l 1,12,-1
 347 7 l 1,13,-1
 394 252 l 1,14,-1
 48 234 l 1,15,-1
 123 350 l 1,16,-1
 168 325 l 1,17,-1
 1053 450 l 1,18,-1
 1053 285 l 1,6,-1
EndSplineSet
EndChar

StartChar: uniB290
Encoding: 45712 45712 236
Width: 1219
GlyphClass: 2
Flags: W
LayerCount: 2
Fore
SplineSet
39 -87 m 1,0,-1
 1046 0 l 1,1,-1
 1093 27 l 1,2,-1
 1173 -216 l 1,3,-1
 39 -173 l 1,4,-1
 39 -87 l 1,0,-1
320 184 m 1,5,-1
 994 230 l 1,6,-1
 991 168 l 1,7,-1
 157 51 l 1,8,-1
 179 561 l 1,9,-1
 102 627 l 1,10,-1
 304 598 l 1,11,-1
 320 184 l 1,5,-1
EndSplineSet
EndChar

StartChar: uniB294
Encoding: 45716 45716 237
Width: 1342
GlyphClass: 2
Flags: W
LayerCount: 2
Fore
SplineSet
82 -269 m 1,0,-1
 1148 -228 l 1,1,-1
 1197 -206 l 1,2,-1
 1282 -361 l 1,3,-1
 82 -327 l 1,4,-1
 82 -269 l 1,0,-1
577 -723 m 1,5,-1
 1196 -692 l 1,6,-1
 1192 -784 l 1,7,-1
 428 -863 l 1,8,-1
 447 -464 l 1,9,-1
 376 -418 l 1,10,-1
 563 -438 l 1,11,-1
 577 -723 l 1,5,-1
379 -19 m 1,12,-1
 1093 17 l 1,13,-1
 1090 -81 l 1,14,-1
 207 -175 l 1,15,-1
 230 267 l 1,16,-1
 148 319 l 1,17,-1
 364 296 l 1,18,-1
 379 -19 l 1,12,-1
EndSplineSet
EndChar

StartChar: uniB298
Encoding: 45720 45720 238
Width: 1053
GlyphClass: 2
Flags: W
LayerCount: 2
Fore
SplineSet
202 -644 m 1,0,-1
 202 -565 l 1,1,-1
 195 -396 l 1,2,-1
 165 -352 l 1,3,-1
 294 -359 l 1,4,-1
 686 -346 l 1,5,-1
 673 -247 l 1,6,-1
 220 -247 l 1,7,-1
 192 -184 l 1,8,-1
 252 -204 l 1,9,-1
 824 -163 l 1,10,-1
 819 -182 l 1,11,-1
 812 -428 l 1,12,-1
 751 -441 l 1,13,-1
 327 -444 l 1,14,-1
 346 -558 l 1,15,-1
 794 -551 l 1,16,-1
 844 -533 l 1,17,-1
 882 -601 l 1,18,-1
 202 -644 l 1,0,-1
280 179 m 1,19,-1
 852 208 l 1,20,-1
 850 129 l 1,21,-1
 143 55 l 1,22,-1
 161 471 l 1,23,-1
 96 513 l 1,24,-1
 268 495 l 1,25,-1
 280 179 l 1,19,-1
43 -21 m 1,26,-1
 897 12 l 1,27,-1
 936 29 l 1,28,-1
 1004 -95 l 1,29,-1
 43 -68 l 1,30,-1
 43 -21 l 1,26,-1
EndSplineSet
EndChar

StartChar: uniB2A5
Encoding: 45733 45733 239
Width: 1054
GlyphClass: 2
Flags: W
LayerCount: 2
Fore
SplineSet
644 300 m 1,0,1
 709 310 709 310 760 299 c 0,2,3
 782 294 782 294 802.5 284 c 128,-1,4
 823 274 823 274 839.5 256.5 c 128,-1,5
 856 239 856 239 866 213 c 128,-1,6
 876 187 876 187 876 150 c 0,7,8
 876 106 876 106 864.5 73 c 128,-1,9
 853 40 853 40 833.5 16 c 128,-1,10
 814 -8 814 -8 789.5 -23.5 c 128,-1,11
 765 -39 765 -39 740 -49 c 0,12,13
 680 -72 680 -72 604 -72 c 0,14,15
 529 -72 529 -72 470 -49 c 0,16,17
 445 -39 445 -39 421 -23.5 c 128,-1,18
 397 -8 397 -8 378 16 c 128,-1,19
 359 40 359 40 347.5 73 c 128,-1,20
 336 106 336 106 336 150 c 256,21,22
 336 194 336 194 347.5 227 c 128,-1,23
 359 260 359 260 378.5 285 c 128,-1,24
 398 310 398 310 422.5 326.5 c 128,-1,25
 447 343 447 343 473 354 c 0,26,27
 533 380 533 380 610 382 c 1,28,-1
 561 446 l 1,29,-1
 667 402 l 1,30,-1
 666 325 l 1,31,32
 614 325 614 325 573 318.5 c 128,-1,33
 532 312 532 312 503.5 293 c 128,-1,34
 475 274 475 274 460 240.5 c 128,-1,35
 445 207 445 207 445 153 c 0,36,37
 445 115 445 115 465.5 90 c 128,-1,38
 486 65 486 65 513.5 50.5 c 128,-1,39
 541 36 541 36 568 30 c 128,-1,40
 595 24 595 24 608 24 c 256,41,42
 621 24 621 24 649 24.5 c 128,-1,43
 677 25 677 25 705 36 c 128,-1,44
 733 47 733 47 754 73 c 128,-1,45
 775 99 775 99 775 150 c 0,46,47
 775 181 775 181 768.5 203.5 c 128,-1,48
 762 226 762 226 751.5 241 c 128,-1,49
 741 256 741 256 728 264.5 c 128,-1,50
 715 273 715 273 701 278 c 0,51,52
 668 289 668 289 628 281 c 1,53,-1
 644 300 l 1,0,1
333 757 m 1,54,-1
 870 785 l 1,55,-1
 868 711 l 1,56,-1
 204 641 l 1,57,-1
 221 1032 l 1,58,-1
 159 1071 l 1,59,-1
 322 1054 l 1,60,-1
 333 757 l 1,54,-1
110 569 m 1,61,-1
 912 601 l 1,62,-1
 949 617 l 1,63,-1
 1013 500 l 1,64,-1
 110 526 l 1,65,-1
 110 569 l 1,61,-1
EndSplineSet
EndChar

StartChar: uniB2C8
Encoding: 45768 45768 240
Width: 852
GlyphClass: 2
Flags: W
LayerCount: 2
Fore
SplineSet
223 141 m 1,0,-1
 586 183 l 1,1,-1
 581 122 l 1,2,-1
 68 0 l 1,3,-1
 106 595 l 1,4,-1
 37 674 l 1,5,-1
 225 635 l 1,6,-1
 223 141 l 1,0,-1
724 35 m 1,7,-1
 671 35 l 1,8,-1
 686 700 l 1,9,-1
 821 641 l 1,10,-1
 724 35 l 1,7,-1
EndSplineSet
EndChar

StartChar: uniB2CC
Encoding: 45772 45772 241
Width: 950
GlyphClass: 2
Flags: W
LayerCount: 2
Fore
SplineSet
429 -664 m 1,0,-1
 904 -616 l 1,1,-1
 903 -680 l 1,2,-1
 293 -786 l 1,3,-1
 305 -443 l 1,4,-1
 226 -394 l 1,5,-1
 407 -411 l 1,6,-1
 429 -664 l 1,0,-1
834 -254 m 1,7,-1
 783 -256 l 1,8,-1
 765 351 l 1,9,-1
 904 299 l 1,10,-1
 834 -254 l 1,7,-1
260 -175 m 1,11,-1
 690 -112 l 1,12,-1
 688 -173 l 1,13,-1
 112 -322 l 1,14,-1
 121 217 l 1,15,-1
 49 292 l 1,16,-1
 239 262 l 1,17,-1
 260 -175 l 1,11,-1
EndSplineSet
EndChar

StartChar: uniB2D8
Encoding: 45784 45784 242
Width: 925
GlyphClass: 2
Flags: W
LayerCount: 2
Fore
SplineSet
282 404 m 1,0,-1
 653 458 l 1,1,-1
 651 406 l 1,2,-1
 154 277 l 1,3,-1
 162 742 l 1,4,-1
 100 807 l 1,5,-1
 264 781 l 1,6,-1
 282 404 l 1,0,-1
777 336 m 1,7,-1
 733 334 l 1,8,-1
 718 858 l 1,9,-1
 838 813 l 1,10,-1
 777 336 l 1,7,-1
339 197 m 1,11,-1
 785 240 l 1,12,-1
 752 -59 l 1,13,-1
 702 -54 l 1,14,-1
 682 148 l 1,15,-1
 387 128 l 1,16,-1
 398 -110 l 1,17,-1
 750 -85 l 1,18,-1
 750 -131 l 1,19,-1
 269 -198 l 1,20,-1
 283 148 l 1,21,-1
 221 205 l 1,22,-1
 313 196 l 1,23,-1
 339 197 l 1,11,-1
EndSplineSet
EndChar

StartChar: uniB2E4
Encoding: 45796 45796 243
Width: 959
GlyphClass: 2
Flags: W
LayerCount: 2
Fore
SplineSet
212 -271 m 1,0,-1
 527 -248 l 1,1,-1
 523 -293 l 1,2,-1
 64 -373 l 1,3,-1
 99 244 l 1,4,-1
 46 299 l 1,5,-1
 188 273 l 1,6,-1
 583 211 l 1,7,-1
 583 171 l 1,8,-1
 199 182 l 1,9,-1
 212 -257 l 1,10,-1
 212 -271 l 1,0,-1
910 20 m 1,11,-1
 853 -124 l 1,12,-1
 731 -113 l 1,13,-1
 720 -512 l 1,14,-1
 580 -490 l 1,15,-1
 709 330 l 1,16,-1
 746 304 l 1,17,-1
 735 -31 l 1,18,-1
 910 20 l 1,11,-1
EndSplineSet
EndChar

StartChar: uniB2E8
Encoding: 45800 45800 244
Width: 813
GlyphClass: 2
Flags: W
LayerCount: 2
Fore
SplineSet
771 517 m 1,0,-1
 744 420 l 1,1,-1
 659 416 l 1,2,-1
 674 186 l 1,3,-1
 574 190 l 1,4,-1
 591 700 l 1,5,-1
 642 688 l 1,6,-1
 656 473 l 1,7,-1
 771 517 l 1,0,-1
50 120 m 1,8,-1
 80 580 l 1,9,-1
 34 626 l 1,10,-1
 154 603 l 1,11,-1
 548 550 l 1,12,-1
 548 516 l 1,13,-1
 164 527 l 1,14,-1
 177 219 l 1,15,-1
 177 207 l 1,16,-1
 499 228 l 1,17,-1
 496 187 l 1,18,-1
 50 120 l 1,8,-1
357 -157 m 1,19,-1
 752 -139 l 1,20,-1
 748 -193 l 1,21,-1
 238 -252 l 1,22,-1
 264 31 l 1,23,-1
 201 75 l 1,24,-1
 350 52 l 1,25,-1
 357 -157 l 1,19,-1
EndSplineSet
EndChar

StartChar: uniB2EC
Encoding: 45804 45804 245
Width: 850
GlyphClass: 2
Flags: W
LayerCount: 2
Fore
SplineSet
202 -583 m 1,0,-1
 202 -517 l 1,1,-1
 197 -377 l 1,2,-1
 172 -340 l 1,3,-1
 278 -346 l 1,4,-1
 605 -336 l 1,5,-1
 594 -253 l 1,6,-1
 218 -253 l 1,7,-1
 194 -201 l 1,8,-1
 244 -217 l 1,9,-1
 719 -183 l 1,10,-1
 715 -199 l 1,11,-1
 709 -404 l 1,12,-1
 658 -414 l 1,13,-1
 307 -416 l 1,14,-1
 322 -511 l 1,15,-1
 694 -506 l 1,16,-1
 736 -491 l 1,17,-1
 767 -547 l 1,18,-1
 202 -583 l 1,0,-1
62 -147 m 1,19,-1
 93 328 l 1,20,-1
 45 376 l 1,21,-1
 169 352 l 1,22,-1
 577 297 l 1,23,-1
 577 262 l 1,24,-1
 179 274 l 1,25,-1
 193 -45 l 1,26,-1
 193 -58 l 1,27,-1
 525 -35 l 1,28,-1
 522 -78 l 1,29,-1
 62 -147 l 1,19,-1
807 263 m 1,30,-1
 779 163 l 1,31,-1
 692 159 l 1,32,-1
 706 -79 l 1,33,-1
 603 -75 l 1,34,-1
 621 453 l 1,35,-1
 673 440 l 1,36,-1
 688 217 l 1,37,-1
 807 263 l 1,30,-1
EndSplineSet
EndChar

StartChar: uniB2F4
Encoding: 45812 45812 246
Width: 856
GlyphClass: 2
Flags: W
LayerCount: 2
Fore
SplineSet
319 216 m 1,0,-1
 714 277 l 1,1,-1
 702 -5 l 1,2,-1
 646 2 l 1,3,-1
 619 202 l 1,4,-1
 362 182 l 1,5,-1
 371 -58 l 1,6,-1
 699 -33 l 1,7,-1
 698 -63 l 1,8,-1
 251 -118 l 1,9,-1
 266 188 l 1,10,-1
 208 227 l 1,11,-1
 294 216 l 1,12,-1
 319 216 l 1,0,-1
816 699 m 1,13,-1
 788 599 l 1,14,-1
 701 594 l 1,15,-1
 716 356 l 1,16,-1
 612 360 l 1,17,-1
 630 890 l 1,18,-1
 683 877 l 1,19,-1
 698 653 l 1,20,-1
 816 699 l 1,13,-1
68 287 m 1,21,-1
 99 764 l 1,22,-1
 51 813 l 1,23,-1
 175 789 l 1,24,-1
 585 733 l 1,25,-1
 585 698 l 1,26,-1
 186 710 l 1,27,-1
 200 390 l 1,28,-1
 200 377 l 1,29,-1
 534 399 l 1,30,-1
 531 357 l 1,31,-1
 68 287 l 1,21,-1
EndSplineSet
EndChar

StartChar: uniB2F5
Encoding: 45813 45813 247
Width: 844
GlyphClass: 2
Flags: W
LayerCount: 2
Fore
SplineSet
692 -139 m 1,0,-1
 427 -167 l 1,1,-1
 429 -256 l 1,2,-1
 760 -236 l 1,3,-1
 758 -275 l 1,4,-1
 336 -326 l 1,5,-1
 345 29 l 1,6,-1
 312 58 l 1,7,-1
 422 46 l 1,8,-1
 426 -116 l 1,9,-1
 689 -69 l 1,10,-1
 681 28 l 1,11,-1
 760 44 l 1,12,-1
 752 -212 l 1,13,-1
 696 -206 l 1,14,-1
 692 -139 l 1,0,-1
816 483 m 1,15,-1
 788 381 l 1,16,-1
 699 377 l 1,17,-1
 714 135 l 1,18,-1
 609 140 l 1,19,-1
 628 675 l 1,20,-1
 681 662 l 1,21,-1
 696 436 l 1,22,-1
 816 483 l 1,15,-1
59 66 m 1,23,-1
 91 549 l 1,24,-1
 42 598 l 1,25,-1
 168 574 l 1,26,-1
 582 517 l 1,27,-1
 582 482 l 1,28,-1
 178 494 l 1,29,-1
 192 170 l 1,30,-1
 192 157 l 1,31,-1
 530 180 l 1,32,-1
 527 136 l 1,33,-1
 59 66 l 1,23,-1
EndSplineSet
EndChar

StartChar: uniB2F9
Encoding: 45817 45817 248
Width: 850
GlyphClass: 2
Flags: W
LayerCount: 2
Fore
SplineSet
581 -300 m 1,0,1
 636 -290 636 -290 680 -300 c 0,2,3
 699 -304 699 -304 717 -313 c 128,-1,4
 735 -322 735 -322 749 -337 c 128,-1,5
 763 -352 763 -352 771.5 -374.5 c 128,-1,6
 780 -397 780 -397 780 -429 c 0,7,8
 780 -467 780 -467 770 -495 c 128,-1,9
 760 -523 760 -523 743.5 -543.5 c 128,-1,10
 727 -564 727 -564 706 -577.5 c 128,-1,11
 685 -591 685 -591 663 -600 c 0,12,13
 611 -620 611 -620 546 -620 c 256,14,15
 481 -620 481 -620 431 -600 c 0,16,17
 409 -591 409 -591 388.5 -577.5 c 128,-1,18
 368 -564 368 -564 352 -543.5 c 128,-1,19
 336 -523 336 -523 326 -495 c 128,-1,20
 316 -467 316 -467 316 -429 c 256,21,22
 316 -391 316 -391 326 -362.5 c 128,-1,23
 336 -334 336 -334 352.5 -312.5 c 128,-1,24
 369 -291 369 -291 390.5 -276.5 c 128,-1,25
 412 -262 412 -262 434 -253 c 0,26,27
 486 -231 486 -231 552 -229 c 1,28,-1
 509 -174 l 1,29,-1
 601 -212 l 1,30,-1
 599 -278 l 1,31,32
 554 -278 554 -278 519 -283.5 c 128,-1,33
 484 -289 484 -289 460 -305.5 c 128,-1,34
 436 -322 436 -322 423 -351 c 128,-1,35
 410 -380 410 -380 410 -426 c 0,36,37
 410 -459 410 -459 427.5 -480.5 c 128,-1,38
 445 -502 445 -502 468.5 -514.5 c 128,-1,39
 492 -527 492 -527 515.5 -532 c 128,-1,40
 539 -537 539 -537 550 -537 c 256,41,42
 561 -537 561 -537 585 -536.5 c 128,-1,43
 609 -536 609 -536 633 -526.5 c 128,-1,44
 657 -517 657 -517 675 -495 c 128,-1,45
 693 -473 693 -473 693 -429 c 0,46,47
 693 -402 693 -402 687.5 -383 c 128,-1,48
 682 -364 682 -364 673 -351 c 128,-1,49
 664 -338 664 -338 653 -330.5 c 128,-1,50
 642 -323 642 -323 630 -319 c 0,51,52
 602 -310 602 -310 567 -316 c 1,53,-1
 581 -300 l 1,0,1
810 250 m 1,54,-1
 782 150 l 1,55,-1
 695 146 l 1,56,-1
 710 -91 l 1,57,-1
 607 -86 l 1,58,-1
 625 439 l 1,59,-1
 677 426 l 1,60,-1
 692 204 l 1,61,-1
 810 250 l 1,54,-1
68 -159 m 1,62,-1
 99 315 l 1,63,-1
 51 363 l 1,64,-1
 174 339 l 1,65,-1
 581 284 l 1,66,-1
 581 249 l 1,67,-1
 185 261 l 1,68,-1
 199 -57 l 1,69,-1
 199 -69 l 1,70,-1
 530 -47 l 1,71,-1
 527 -90 l 1,72,-1
 68 -159 l 1,62,-1
EndSplineSet
EndChar

StartChar: uniB300
Encoding: 45824 45824 249
Width: 907
GlyphClass: 2
Flags: W
LayerCount: 2
Fore
SplineSet
495 557 m 1,0,-1
 176 568 l 1,1,-1
 190 224 l 1,2,-1
 190 207 l 1,3,-1
 447 233 l 1,4,-1
 445 179 l 1,5,-1
 63 113 l 1,6,-1
 92 628 l 1,7,-1
 46 673 l 1,8,-1
 165 651 l 1,9,-1
 495 598 l 1,10,-1
 495 557 l 1,0,-1
873 679 m 1,11,-1
 767 -2 l 1,12,-1
 736 19 l 1,13,-1
 746 310 l 1,14,-1
 618 319 l 1,15,-1
 608 -2 l 1,16,-1
 492 17 l 1,17,-1
 598 698 l 1,18,-1
 629 677 l 1,19,-1
 620 408 l 1,20,-1
 749 437 l 1,21,-1
 757 698 l 1,22,-1
 873 679 l 1,11,-1
EndSplineSet
EndChar

StartChar: uniB313
Encoding: 45843 45843 250
Width: 841
GlyphClass: 2
Flags: W
LayerCount: 2
Fore
SplineSet
416 -28 m 2,0,1
 420 -19 420 -19 417.5 -13.5 c 128,-1,2
 415 -8 415 -8 412 0 c 2,3,-1
 356 57 l 1,4,-1
 556 5 l 1,5,-1
 546 -14 l 1,6,-1
 720 -341 l 1,7,-1
 559 -258 l 1,8,-1
 489 -91 l 1,9,-1
 378 -297 l 1,10,-1
 214 -374 l 1,11,-1
 416 -28 l 2,0,1
789 617 m 1,12,-1
 744 119 l 1,13,-1
 714 135 l 1,14,-1
 704 315 l 1,15,-1
 588 312 l 1,16,-1
 601 105 l 1,17,-1
 494 112 l 1,18,-1
 539 611 l 1,19,-1
 569 594 l 1,20,-1
 582 393 l 1,21,-1
 696 430 l 1,22,-1
 682 624 l 1,23,-1
 789 617 l 1,12,-1
449 492 m 1,24,-1
 160 502 l 1,25,-1
 173 190 l 1,26,-1
 173 175 l 1,27,-1
 406 198 l 1,28,-1
 404 149 l 1,29,-1
 57 90 l 1,30,-1
 84 557 l 1,31,-1
 42 598 l 1,32,-1
 150 578 l 1,33,-1
 449 530 l 1,34,-1
 449 492 l 1,24,-1
EndSplineSet
EndChar

StartChar: uniB354
Encoding: 45908 45908 251
Width: 771
GlyphClass: 2
Flags: W
LayerCount: 2
Fore
SplineSet
482 84 m 1,0,-1
 595 79 l 1,1,-1
 591 320 l 1,2,-1
 722 306 l 1,3,-1
 634 -242 l 1,4,-1
 599 -220 l 1,5,-1
 596 24 l 1,6,-1
 434 -32 l 1,7,-1
 482 84 l 1,0,-1
191 -169 m 1,8,-1
 471 -148 l 1,9,-1
 468 -189 l 1,10,-1
 60 -260 l 1,11,-1
 91 290 l 1,12,-1
 43 338 l 1,13,-1
 169 315 l 1,14,-1
 521 260 l 1,15,-1
 521 225 l 1,16,-1
 179 235 l 1,17,-1
 191 -157 l 1,18,-1
 191 -169 l 1,8,-1
EndSplineSet
EndChar

StartChar: uniB355
Encoding: 45909 45909 252
Width: 819
GlyphClass: 2
Flags: W
LayerCount: 2
Fore
SplineSet
249 309 m 1,0,-1
 674 348 l 1,1,-1
 516 -76 l 1,2,-1
 468 -76 l 1,3,-1
 504 249 l 1,4,-1
 195 236 l 1,5,-1
 162 320 l 1,6,-1
 249 309 l 1,0,-1
197 496 m 1,7,-1
 499 519 l 1,8,-1
 496 474 l 1,9,-1
 54 398 l 1,10,-1
 88 906 l 1,11,-1
 36 958 l 1,12,-1
 173 933 l 1,13,-1
 554 874 l 1,14,-1
 554 835 l 1,15,-1
 184 847 l 1,16,-1
 197 509 l 1,17,-1
 197 496 l 1,7,-1
511 726 m 1,18,-1
 633 721 l 1,19,-1
 630 939 l 1,20,-1
 771 923 l 1,21,-1
 676 417 l 1,22,-1
 638 441 l 1,23,-1
 634 661 l 1,24,-1
 459 601 l 1,25,-1
 511 726 l 1,18,-1
EndSplineSet
EndChar

StartChar: uniB358
Encoding: 45912 45912 253
Width: 850
GlyphClass: 2
Flags: W
LayerCount: 2
Fore
SplineSet
349 -267 m 1,0,-1
 770 -248 l 1,1,-1
 766 -308 l 1,2,-1
 216 -374 l 1,3,-1
 245 -56 l 1,4,-1
 174 -7 l 1,5,-1
 342 -32 l 1,6,-1
 349 -267 l 1,0,-1
213 138 m 1,7,-1
 529 162 l 1,8,-1
 526 116 l 1,9,-1
 64 35 l 1,10,-1
 99 567 l 1,11,-1
 45 622 l 1,12,-1
 188 596 l 1,13,-1
 586 534 l 1,14,-1
 586 493 l 1,15,-1
 200 505 l 1,16,-1
 213 152 l 1,17,-1
 213 138 l 1,7,-1
542 379 m 1,18,-1
 669 374 l 1,19,-1
 666 601 l 1,20,-1
 813 585 l 1,21,-1
 714 56 l 1,22,-1
 674 81 l 1,23,-1
 670 311 l 1,24,-1
 488 248 l 1,25,-1
 542 379 l 1,18,-1
EndSplineSet
EndChar

StartChar: uniB370
Encoding: 45936 45936 254
Width: 892
GlyphClass: 2
Flags: W
LayerCount: 2
Fore
SplineSet
181 50 m 1,0,-1
 454 70 l 1,1,-1
 452 30 l 1,2,-1
 53 -39 l 1,3,-1
 83 517 l 1,4,-1
 36 565 l 1,5,-1
 160 543 l 1,6,-1
 504 489 l 1,7,-1
 504 454 l 1,8,-1
 170 464 l 1,9,-1
 181 62 l 1,10,-1
 181 50 l 1,0,-1
465 322 m 1,11,-1
 576 318 l 1,12,-1
 572 548 l 1,13,-1
 700 533 l 1,14,-1
 614 -21 l 1,15,-1
 580 0 l 1,16,-1
 576 252 l 1,17,-1
 418 198 l 1,18,-1
 465 322 l 1,11,-1
745 495 m 1,19,-1
 856 468 l 1,20,-1
 727 -21 l 1,21,-1
 700 2 l 1,22,-1
 745 495 l 1,19,-1
EndSplineSet
EndChar

StartChar: uniB3C4
Encoding: 46020 46020 255
Width: 820
GlyphClass: 2
Flags: W
LayerCount: 2
Fore
SplineSet
116 129 m 1,0,-1
 66 179 l 1,1,-1
 196 154 l 1,2,-1
 677 96 l 1,3,-1
 677 70 l 1,4,-1
 196 82 l 1,5,-1
 211 -177 l 1,6,-1
 211 -189 l 1,7,-1
 624 -167 l 1,8,-1
 622 -200 l 1,9,-1
 84 -274 l 1,10,-1
 116 129 l 1,0,-1
770 -422 m 1,11,-1
 770 -472 l 1,12,-1
 94 -488 l 1,13,-1
 48 -379 l 1,14,-1
 351 -398 l 1,15,-1
 343 -294 l 1,16,-1
 448 -271 l 1,17,-1
 405 -400 l 1,18,-1
 770 -422 l 1,11,-1
EndSplineSet
EndChar

StartChar: uniB3C5
Encoding: 46021 46021 256
Width: 744
GlyphClass: 2
Flags: W
LayerCount: 2
Fore
SplineSet
152 -90 m 1,0,-1
 98 -7 l 1,1,-1
 235 -25 l 1,2,-1
 648 31 l 1,3,-1
 561 -397 l 1,4,-1
 466 -388 l 1,5,-1
 527 -82 l 1,6,-1
 152 -90 l 1,0,-1
704 139 m 1,7,-1
 704 94 l 1,8,-1
 87 79 l 1,9,-1
 45 178 l 1,10,-1
 347 162 l 1,11,-1
 340 256 l 1,12,-1
 436 277 l 1,13,-1
 397 159 l 1,14,-1
 704 139 l 1,7,-1
107 642 m 1,15,-1
 61 688 l 1,16,-1
 180 665 l 1,17,-1
 620 612 l 1,18,-1
 620 588 l 1,19,-1
 180 600 l 1,20,-1
 194 363 l 1,21,-1
 194 352 l 1,22,-1
 571 372 l 1,23,-1
 569 342 l 1,24,-1
 78 275 l 1,25,-1
 107 642 l 1,15,-1
EndSplineSet
EndChar

StartChar: uniB3C8
Encoding: 46024 46024 257
Width: 754
GlyphClass: 2
Flags: W
LayerCount: 2
Fore
SplineSet
236 -236 m 1,0,-1
 708 -218 l 1,1,-1
 704 -273 l 1,2,-1
 113 -335 l 1,3,-1
 140 -40 l 1,4,-1
 74 6 l 1,5,-1
 230 -18 l 1,6,-1
 236 -236 l 1,0,-1
706 136 m 1,7,-1
 706 91 l 1,8,-1
 87 75 l 1,9,-1
 45 175 l 1,10,-1
 348 158 l 1,11,-1
 341 253 l 1,12,-1
 437 274 l 1,13,-1
 398 156 l 1,14,-1
 706 136 l 1,7,-1
107 640 m 1,15,-1
 61 686 l 1,16,-1
 180 664 l 1,17,-1
 622 611 l 1,18,-1
 622 586 l 1,19,-1
 180 598 l 1,20,-1
 194 361 l 1,21,-1
 194 349 l 1,22,-1
 573 370 l 1,23,-1
 571 340 l 1,24,-1
 78 272 l 1,25,-1
 107 640 l 1,15,-1
EndSplineSet
EndChar

StartChar: uniB3CC
Encoding: 46028 46028 258
Width: 689
GlyphClass: 2
Flags: W
LayerCount: 2
Fore
SplineSet
100 -636 m 1,0,-1
 100 -572 l 1,1,-1
 95 -436 l 1,2,-1
 71 -400 l 1,3,-1
 174 -406 l 1,4,-1
 492 -396 l 1,5,-1
 481 -315 l 1,6,-1
 115 -315 l 1,7,-1
 93 -264 l 1,8,-1
 141 -280 l 1,9,-1
 603 -247 l 1,10,-1
 599 -263 l 1,11,-1
 594 -462 l 1,12,-1
 544 -472 l 1,13,-1
 202 -474 l 1,14,-1
 216 -566 l 1,15,-1
 579 -561 l 1,16,-1
 619 -546 l 1,17,-1
 650 -601 l 1,18,-1
 100 -636 l 1,0,-1
89 346 m 1,19,-1
 44 390 l 1,20,-1
 159 368 l 1,21,-1
 583 317 l 1,22,-1
 583 294 l 1,23,-1
 159 305 l 1,24,-1
 172 77 l 1,25,-1
 172 66 l 1,26,-1
 536 85 l 1,27,-1
 534 57 l 1,28,-1
 61 -8 l 1,29,-1
 89 346 l 1,19,-1
664 -139 m 1,30,-1
 664 -182 l 1,31,-1
 69 -197 l 1,32,-1
 29 -101 l 1,33,-1
 320 -117 l 1,34,-1
 313 -26 l 1,35,-1
 405 -6 l 1,36,-1
 368 -120 l 1,37,-1
 664 -139 l 1,30,-1
EndSplineSet
EndChar

StartChar: uniB3D9
Encoding: 46041 46041 259
Width: 735
GlyphClass: 2
Flags: W
LayerCount: 2
Fore
SplineSet
94 775 m 1,0,-1
 50 817 l 1,1,-1
 162 796 l 1,2,-1
 640 746 l 1,3,-1
 640 713 l 1,4,-1
 182 724 l 1,5,-1
 196 521 l 1,6,-1
 196 510 l 1,7,-1
 594 530 l 1,8,-1
 591 491 l 1,9,-1
 67 427 l 1,10,-1
 94 775 l 1,0,-1
691 300 m 1,11,-1
 691 258 l 1,12,-1
 108 242 l 1,13,-1
 68 337 l 1,14,-1
 330 322 l 1,15,-1
 322 412 l 1,16,-1
 433 431 l 1,17,-1
 397 319 l 1,18,-1
 691 300 l 1,11,-1
416 64 m 1,19,20
 470 74 470 74 512 66 c 0,21,22
 530 62 530 62 547.5 54 c 128,-1,23
 565 46 565 46 578.5 32 c 128,-1,24
 592 18 592 18 600.5 -4 c 128,-1,25
 609 -26 609 -26 609 -57 c 0,26,27
 609 -93 609 -93 599 -121 c 128,-1,28
 589 -149 589 -149 573 -169.5 c 128,-1,29
 557 -190 557 -190 536 -204 c 128,-1,30
 515 -218 515 -218 494 -227 c 0,31,32
 444 -248 444 -248 380 -251 c 1,33,34
 316 -248 316 -248 266 -227 c 0,35,36
 245 -218 245 -218 224.5 -204 c 128,-1,37
 204 -190 204 -190 188 -169.5 c 128,-1,38
 172 -149 172 -149 162 -121 c 128,-1,39
 152 -93 152 -93 152 -56 c 0,40,41
 152 -20 152 -20 162 8.5 c 128,-1,42
 172 37 172 37 188.5 58 c 128,-1,43
 205 79 205 79 225.5 94 c 128,-1,44
 246 109 246 109 268 119 c 0,45,46
 319 142 319 142 385 147 c 1,47,-1
 343 211 l 1,48,-1
 432 164 l 1,49,-1
 432 102 l 1,50,51
 388 102 388 102 354.5 94.5 c 128,-1,52
 321 87 321 87 298 69 c 128,-1,53
 275 51 275 51 263 21 c 128,-1,54
 251 -9 251 -9 251 -54 c 256,55,56
 251 -99 251 -99 267.5 -123.5 c 128,-1,57
 284 -148 284 -148 305.5 -159.5 c 128,-1,58
 327 -171 327 -171 348.5 -173 c 128,-1,59
 370 -175 370 -175 381 -175 c 0,60,61
 393 -175 393 -175 415.5 -173.5 c 128,-1,62
 438 -172 438 -172 461 -161 c 128,-1,63
 484 -150 484 -150 501 -126 c 128,-1,64
 518 -102 518 -102 518 -57 c 0,65,66
 518 -5 518 -5 500 17.5 c 128,-1,67
 482 40 482 40 461 47 c 0,68,69
 435 55 435 55 404 47 c 1,70,-1
 416 64 l 1,19,20
EndSplineSet
EndChar

StartChar: uniB3FC
Encoding: 46076 46076 260
Width: 853
GlyphClass: 2
Flags: W
LayerCount: 2
Fore
SplineSet
39 25 m 1,0,-1
 68 384 l 1,1,-1
 23 428 l 1,2,-1
 139 406 l 1,3,-1
 492 355 l 1,4,-1
 492 331 l 1,5,-1
 139 342 l 1,6,-1
 152 112 l 1,7,-1
 152 101 l 1,8,-1
 445 120 l 1,9,-1
 443 91 l 1,10,-1
 39 25 l 1,0,-1
820 362 m 1,11,-1
 727 -240 l 1,12,-1
 699 -221 l 1,13,-1
 708 36 l 1,14,-1
 595 44 l 1,15,-1
 586 -240 l 1,16,-1
 484 -223 l 1,17,-1
 492 -167 l 1,18,-1
 88 -191 l 1,19,-1
 45 -87 l 1,20,-1
 240 -98 l 1,21,-1
 228 -6 l 1,22,-1
 341 17 l 1,23,-1
 306 -99 l 1,24,-1
 501 -109 l 1,25,-1
 577 379 l 1,26,-1
 605 360 l 1,27,-1
 597 123 l 1,28,-1
 711 148 l 1,29,-1
 718 379 l 1,30,-1
 820 362 l 1,11,-1
EndSplineSet
EndChar

StartChar: uniB410
Encoding: 46096 46096 261
Width: 830
GlyphClass: 2
Flags: W
LayerCount: 2
Fore
SplineSet
623 167 m 1,0,-1
 714 -85 l 1,1,-1
 607 -9 l 1,2,-1
 569 96 l 1,3,-1
 445 -78 l 1,4,-1
 323 -128 l 1,5,-1
 415 -1 l 1,6,-1
 376 101 l 1,7,-1
 244 -78 l 1,8,-1
 114 -133 l 1,9,-1
 340 180 l 2,10,11
 342 184 342 184 342.5 186 c 128,-1,12
 343 188 343 188 343 190 c 2,13,-1
 340 200 l 1,14,-1
 295 258 l 1,15,-1
 448 197 l 1,16,-1
 429 174 l 1,17,-1
 455 55 l 1,18,-1
 534 164 l 2,19,20
 538 171 538 171 537 174.5 c 128,-1,21
 536 178 536 178 534 185 c 2,22,-1
 493 237 l 1,23,-1
 632 180 l 1,24,-1
 623 167 l 1,0,-1
57 542 m 1,25,-1
 84 884 l 1,26,-1
 41 927 l 1,27,-1
 152 906 l 1,28,-1
 489 856 l 1,29,-1
 489 834 l 1,30,-1
 152 845 l 1,31,-1
 164 625 l 1,32,-1
 164 614 l 1,33,-1
 444 633 l 1,34,-1
 442 605 l 1,35,-1
 57 542 l 1,25,-1
802 864 m 1,36,-1
 713 289 l 1,37,-1
 687 307 l 1,38,-1
 695 552 l 1,39,-1
 587 560 l 1,40,-1
 578 289 l 1,41,-1
 481 305 l 1,42,-1
 489 359 l 1,43,-1
 103 336 l 1,44,-1
 62 435 l 1,45,-1
 248 425 l 1,46,-1
 237 513 l 1,47,-1
 345 534 l 1,48,-1
 311 424 l 1,49,-1
 498 414 l 1,50,-1
 570 880 l 1,51,-1
 596 862 l 1,52,-1
 589 635 l 1,53,-1
 697 659 l 1,54,-1
 704 880 l 1,55,-1
 802 864 l 1,36,-1
EndSplineSet
EndChar

StartChar: uniB418
Encoding: 46104 46104 262
Width: 819
GlyphClass: 2
Flags: W
LayerCount: 2
Fore
SplineSet
103 587 m 1,0,-1
 56 634 l 1,1,-1
 178 611 l 1,2,-1
 632 556 l 1,3,-1
 632 531 l 1,4,-1
 178 543 l 1,5,-1
 193 299 l 1,6,-1
 193 287 l 1,7,-1
 583 308 l 1,8,-1
 580 277 l 1,9,-1
 73 207 l 1,10,-1
 103 587 l 1,0,-1
661 -55 m 1,11,-1
 666 11 l 1,12,-1
 82 -3 l 1,13,-1
 39 108 l 1,14,-1
 324 90 l 1,15,-1
 314 188 l 1,16,-1
 434 210 l 1,17,-1
 394 88 l 1,18,-1
 671 70 l 1,19,-1
 718 634 l 1,20,-1
 751 615 l 1,21,-1
 778 -66 l 1,22,-1
 661 -55 l 1,11,-1
EndSplineSet
EndChar

StartChar: uniB41C
Encoding: 46108 46108 263
Width: 835
GlyphClass: 2
Flags: W
LayerCount: 2
Fore
SplineSet
316 -443 m 1,0,-1
 778 -425 l 1,1,-1
 774 -480 l 1,2,-1
 195 -540 l 1,3,-1
 222 -251 l 1,4,-1
 157 -206 l 1,5,-1
 310 -229 l 1,6,-1
 316 -443 l 1,0,-1
114 448 m 1,7,-1
 68 494 l 1,8,-1
 188 471 l 1,9,-1
 632 418 l 1,10,-1
 632 393 l 1,11,-1
 188 405 l 1,12,-1
 202 166 l 1,13,-1
 202 155 l 1,14,-1
 583 175 l 1,15,-1
 581 145 l 1,16,-1
 85 77 l 1,17,-1
 114 448 l 1,7,-1
660 -191 m 1,18,-1
 665 -126 l 1,19,-1
 94 -140 l 1,20,-1
 52 -32 l 1,21,-1
 331 -49 l 1,22,-1
 321 47 l 1,23,-1
 438 68 l 1,24,-1
 400 -51 l 1,25,-1
 670 -69 l 1,26,-1
 716 482 l 1,27,-1
 748 464 l 1,28,-1
 775 -202 l 1,29,-1
 660 -191 l 1,18,-1
EndSplineSet
EndChar

StartChar: uniB420
Encoding: 46112 46112 264
Width: 843
GlyphClass: 2
Flags: W
LayerCount: 2
Fore
SplineSet
190 -28 m 1,0,-1
 190 41 l 1,1,-1
 184 186 l 1,2,-1
 158 225 l 1,3,-1
 269 219 l 1,4,-1
 609 230 l 1,5,-1
 598 316 l 1,6,-1
 206 316 l 1,7,-1
 182 370 l 1,8,-1
 233 353 l 1,9,-1
 729 389 l 1,10,-1
 724 372 l 1,11,-1
 718 159 l 1,12,-1
 665 148 l 1,13,-1
 299 145 l 1,14,-1
 314 47 l 1,15,-1
 702 53 l 1,16,-1
 746 68 l 1,17,-1
 778 9 l 1,18,-1
 190 -28 l 1,0,-1
668 433 m 1,19,-1
 672 500 l 1,20,-1
 86 473 l 1,21,-1
 40 584 l 1,22,-1
 327 572 l 1,23,-1
 315 670 l 1,24,-1
 435 695 l 1,25,-1
 397 571 l 1,26,-1
 676 559 l 1,27,-1
 711 1126 l 1,28,-1
 744 1108 l 1,29,-1
 786 425 l 1,30,-1
 668 433 l 1,19,-1
100 1084 m 1,31,-1
 53 1132 l 1,32,-1
 176 1108 l 1,33,-1
 632 1053 l 1,34,-1
 632 1028 l 1,35,-1
 176 1040 l 1,36,-1
 190 795 l 1,37,-1
 190 783 l 1,38,-1
 582 804 l 1,39,-1
 580 773 l 1,40,-1
 70 703 l 1,41,-1
 100 1084 l 1,31,-1
EndSplineSet
EndChar

StartChar: uniB450
Encoding: 46160 46160 265
Width: 766
GlyphClass: 2
Flags: W
LayerCount: 2
Fore
SplineSet
52 -404 m 1,0,-1
 52 -357 l 1,1,-1
 668 -341 l 1,2,-1
 712 -445 l 1,3,-1
 424 -427 l 1,4,-1
 431 -526 l 1,5,-1
 321 -548 l 1,6,-1
 361 -425 l 1,7,-1
 52 -404 l 1,0,-1
125 104 m 1,8,-1
 78 152 l 1,9,-1
 202 129 l 1,10,-1
 660 73 l 1,11,-1
 660 48 l 1,12,-1
 202 60 l 1,13,-1
 216 -186 l 1,14,-1
 216 -198 l 1,15,-1
 609 -177 l 1,16,-1
 607 -208 l 1,17,-1
 95 -278 l 1,18,-1
 125 104 l 1,8,-1
EndSplineSet
EndChar

StartChar: uniB458
Encoding: 46168 46168 266
Width: 730
GlyphClass: 2
Flags: W
LayerCount: 2
Fore
SplineSet
114 -317 m 1,0,-1
 114 -253 l 1,1,-1
 109 -118 l 1,2,-1
 84 -82 l 1,3,-1
 187 -88 l 1,4,-1
 503 -78 l 1,5,-1
 493 3 l 1,6,-1
 129 3 l 1,7,-1
 106 53 l 1,8,-1
 154 37 l 1,9,-1
 614 70 l 1,10,-1
 610 54 l 1,11,-1
 605 -144 l 1,12,-1
 555 -154 l 1,13,-1
 215 -156 l 1,14,-1
 229 -248 l 1,15,-1
 590 -242 l 1,16,-1
 630 -228 l 1,17,-1
 660 -282 l 1,18,-1
 114 -317 l 1,0,-1
129 707 m 1,19,-1
 84 752 l 1,20,-1
 202 730 l 1,21,-1
 635 677 l 1,22,-1
 635 654 l 1,23,-1
 202 665 l 1,24,-1
 215 432 l 1,25,-1
 215 421 l 1,26,-1
 588 440 l 1,27,-1
 585 411 l 1,28,-1
 101 344 l 1,29,-1
 129 707 l 1,19,-1
60 247 m 1,30,-1
 60 291 l 1,31,-1
 644 307 l 1,32,-1
 685 208 l 1,33,-1
 412 225 l 1,34,-1
 419 131 l 1,35,-1
 315 111 l 1,36,-1
 353 227 l 1,37,-1
 60 247 l 1,30,-1
EndSplineSet
EndChar

StartChar: uniB4A4
Encoding: 46244 46244 267
Width: 892
GlyphClass: 2
Flags: W
LayerCount: 2
Fore
SplineSet
137 623 m 1,0,-1
 84 676 l 1,1,-1
 221 650 l 1,2,-1
 728 589 l 1,3,-1
 728 561 l 1,4,-1
 221 574 l 1,5,-1
 237 302 l 1,6,-1
 237 289 l 1,7,-1
 672 312 l 1,8,-1
 669 278 l 1,9,-1
 104 200 l 1,10,-1
 137 623 l 1,0,-1
719 -102 m 1,11,-1
 735 44 l 1,12,-1
 467 61 l 1,13,-1
 475 -49 l 1,14,-1
 353 -73 l 1,15,-1
 398 63 l 1,16,-1
 56 87 l 1,17,-1
 56 138 l 1,18,-1
 746 155 l 1,19,-1
 801 676 l 1,20,-1
 837 654 l 1,21,-1
 852 -117 l 1,22,-1
 719 -102 l 1,11,-1
EndSplineSet
EndChar

StartChar: uniB4DC
Encoding: 46300 46300 268
Width: 892
GlyphClass: 2
Flags: W
LayerCount: 2
Fore
SplineSet
110 1010 m 1,0,-1
 53 1067 l 1,1,-1
 200 1040 l 1,2,-1
 790 974 l 1,3,-1
 790 934 l 1,4,-1
 211 947 l 1,5,-1
 229 675 l 1,6,-1
 229 662 l 1,7,-1
 730 686 l 1,8,-1
 726 638 l 1,9,-1
 75 555 l 1,10,-1
 110 1010 l 1,0,-1
851 387 m 1,11,-1
 851 331 l 1,12,-1
 86 312 l 1,13,-1
 33 436 l 1,14,-1
 851 387 l 1,11,-1
EndSplineSet
EndChar

StartChar: uniB4DD
Encoding: 46301 46301 269
Width: 857
GlyphClass: 2
Flags: W
LayerCount: 2
Fore
SplineSet
196 -390 m 1,0,-1
 135 -297 l 1,1,-1
 289 -318 l 1,2,-1
 751 -255 l 1,3,-1
 658 -685 l 1,4,-1
 551 -675 l 1,5,-1
 615 -381 l 1,6,-1
 196 -390 l 1,0,-1
143 410 m 1,7,-1
 92 462 l 1,8,-1
 227 436 l 1,9,-1
 770 376 l 1,10,-1
 770 339 l 1,11,-1
 236 351 l 1,12,-1
 253 100 l 1,13,-1
 253 89 l 1,14,-1
 714 110 l 1,15,-1
 711 67 l 1,16,-1
 111 -11 l 1,17,-1
 143 410 l 1,7,-1
804 -118 m 1,18,-1
 804 -169 l 1,19,-1
 101 -188 l 1,20,-1
 52 -72 l 1,21,-1
 804 -118 l 1,18,-1
EndSplineSet
EndChar

StartChar: uniB4E0
Encoding: 46304 46304 270
Width: 891
GlyphClass: 2
Flags: W
LayerCount: 2
Fore
SplineSet
342 -324 m 1,0,-1
 833 -306 l 1,1,-1
 824 -352 l 1,2,-1
 216 -415 l 1,3,-1
 234 -138 l 1,4,-1
 172 -102 l 1,5,-1
 333 -120 l 1,6,-1
 342 -324 l 1,0,-1
761 420 m 1,7,-1
 226 429 l 1,8,-1
 244 198 l 1,9,-1
 244 180 l 1,10,-1
 707 208 l 1,11,-1
 707 161 l 1,12,-1
 108 90 l 1,13,-1
 135 483 l 1,14,-1
 90 537 l 1,15,-1
 216 510 l 1,16,-1
 761 457 l 1,17,-1
 761 420 l 1,7,-1
824 -48 m 1,18,-1
 40 -39 l 1,19,-1
 40 14 l 1,20,-1
 859 50 l 1,21,-1
 824 -48 l 1,18,-1
EndSplineSet
EndChar

StartChar: uniB4E4
Encoding: 46308 46308 271
Width: 812
GlyphClass: 2
Flags: W
LayerCount: 2
Fore
SplineSet
167 -494 m 1,0,-1
 167 -426 l 1,1,-1
 162 -282 l 1,2,-1
 135 -245 l 1,3,-1
 245 -250 l 1,4,-1
 581 -239 l 1,5,-1
 571 -154 l 1,6,-1
 183 -154 l 1,7,-1
 160 -101 l 1,8,-1
 211 -118 l 1,9,-1
 699 -83 l 1,10,-1
 695 -99 l 1,11,-1
 690 -309 l 1,12,-1
 636 -320 l 1,13,-1
 275 -323 l 1,14,-1
 291 -420 l 1,15,-1
 675 -414 l 1,16,-1
 717 -398 l 1,17,-1
 749 -456 l 1,18,-1
 167 -494 l 1,0,-1
144 554 m 1,19,-1
 96 602 l 1,20,-1
 222 578 l 1,21,-1
 731 522 l 1,22,-1
 731 487 l 1,23,-1
 231 499 l 1,24,-1
 246 264 l 1,25,-1
 246 253 l 1,26,-1
 678 273 l 1,27,-1
 676 233 l 1,28,-1
 114 160 l 1,29,-1
 144 554 l 1,19,-1
763 59 m 1,30,-1
 763 12 l 1,31,-1
 105 -6 l 1,32,-1
 59 103 l 1,33,-1
 763 59 l 1,30,-1
EndSplineSet
EndChar

StartChar: uniB4EF
Encoding: 46319 46319 272
Width: 892
GlyphClass: 2
Flags: W
LayerCount: 2
Fore
SplineSet
413 195 m 2,0,1
 419 208 419 208 416.5 215.5 c 128,-1,2
 414 223 414 223 409 234 c 1,3,-1
 332 310 l 1,4,-1
 604 242 l 1,5,-1
 591 214 l 1,6,-1
 826 -177 l 1,7,-1
 608 -66 l 1,8,-1
 513 110 l 1,9,-1
 363 -116 l 1,10,-1
 139 -222 l 1,11,-1
 413 195 l 2,0,1
141 1020 m 1,12,-1
 87 1076 l 1,13,-1
 230 1048 l 1,14,-1
 806 985 l 1,15,-1
 806 946 l 1,16,-1
 239 959 l 1,17,-1
 257 692 l 1,18,-1
 257 681 l 1,19,-1
 747 703 l 1,20,-1
 743 657 l 1,21,-1
 107 575 l 1,22,-1
 141 1020 l 1,12,-1
841 460 m 1,23,-1
 841 406 l 1,24,-1
 96 388 l 1,25,-1
 44 510 l 1,26,-1
 841 460 l 1,23,-1
EndSplineSet
EndChar

